<svg id="visual" viewBox="0 0 900 600" width="900" height="600" xmlns="http://www.w3.org/2000/svg" xmlns:xlink="http://www.w3.org/1999/xlink" version="1.1"><rect x="0" y="0" width="900" height="600" fill="#001220"></rect><path d="M0 441L21.5 427.8C43 414.7 86 388.3 128.8 374.3C171.7 360.3 214.3 358.7 257.2 356.7C300 354.7 343 352.3 385.8 363.8C428.7 375.3 471.3 400.7 514.2 401C557 401.3 600 376.7 642.8 375.7C685.7 374.7 728.3 397.3 771.2 404.5C814 411.7 857 403.3 878.5 399.2L900 395L900 601L878.5 601C857 601 814 601 771.2 601C728.3 601 685.7 601 642.8 601C600 601 557 601 514.2 601C471.3 601 428.7 601 385.8 601C343 601 300 601 257.2 601C214.3 601 171.7 601 128.8 601C86 601 43 601 21.5 601L0 601Z" fill="#fa7268"></path><path d="M0 436L21.5 438.5C43 441 86 446 128.8 445.8C171.7 445.7 214.3 440.3 257.2 440C300 439.7 343 444.3 385.8 442.7C428.7 441 471.3 433 514.2 429C557 425 600 425 642.8 433.5C685.7 442 728.3 459 771.2 455C814 451 857 426 878.5 413.5L900 401L900 601L878.5 601C857 601 814 601 771.2 601C728.3 601 685.7 601 642.8 601C600 601 557 601 514.2 601C471.3 601 428.7 601 385.8 601C343 601 300 601 257.2 601C214.3 601 171.7 601 128.8 601C86 601 43 601 21.5 601L0 601Z" fill="#ef5f67"></path><path d="M0 447L21.5 455C43 463 86 479 128.8 477.8C171.7 476.7 214.3 458.3 257.2 455.7C300 453 343 466 385.8 475.8C428.7 485.7 471.3 492.3 514.2 485.8C557 479.3 600 459.7 642.8 450.3C685.7 441 728.3 442 771.2 447C814 452 857 461 878.5 465.5L900 470L900 601L878.5 601C857 601 814 601 771.2 601C728.3 601 685.7 601 642.8 601C600 601 557 601 514.2 601C471.3 601 428.7 601 385.8 601C343 601 300 601 257.2 601C214.3 601 171.7 601 128.8 601C86 601 43 601 21.5 601L0 601Z" fill="#e34c67"></path><path d="M0 509L21.5 506C43 503 86 497 128.8 497.7C171.7 498.3 214.3 505.7 257.2 504.8C300 504 343 495 385.8 494C428.7 493 471.3 500 514.2 501.2C557 502.3 600 497.7 642.8 494.7C685.7 491.7 728.3 490.3 771.2 489C814 487.7 857 486.3 878.5 485.7L900 485L900 601L878.5 601C857 601 814 601 771.2 601C728.3 601 685.7 601 642.8 601C600 601 557 601 514.2 601C471.3 601 428.7 601 385.8 601C343 601 300 601 257.2 601C214.3 601 171.7 601 128.8 601C86 601 43 601 21.5 601L0 601Z" fill="#d53867"></path><path d="M0 555L21.5 553.7C43 552.3 86 549.7 128.8 546.5C171.7 543.3 214.3 539.7 257.2 541.3C300 543 343 550 385.8 553.8C428.7 557.7 471.3 558.3 514.2 553.8C557 549.3 600 539.7 642.8 542C685.7 544.3 728.3 558.7 771.2 561.8C814 565 857 557 878.5 553L900 549L900 601L878.5 601C857 601 814 601 771.2 601C728.3 601 685.7 601 642.8 601C600 601 557 601 514.2 601C471.3 601 428.7 601 385.8 601C343 601 300 601 257.2 601C214.3 601 171.7 601 128.8 601C86 601 43 601 21.5 601L0 601Z" fill="#c62368"></path></svg>