<?xml version="1.0" encoding="UTF-8" standalone="no"?>
<svg
   width="70"
   height="70"
   transform="scale(1)"
   version="1.1"
   id="svg12"
   sodipodi:docname="bg-pattern-call.svg"
   inkscape:version="1.1 (c68e22c387, 2021-05-23)"
   xmlns:inkscape="http://www.inkscape.org/namespaces/inkscape"
   xmlns:sodipodi="http://sodipodi.sourceforge.net/DTD/sodipodi-0.dtd"
   xmlns:xlink="http://www.w3.org/1999/xlink"
   xmlns="http://www.w3.org/2000/svg"
   xmlns:svg="http://www.w3.org/2000/svg">
  <defs
     id="defs16">
    <linearGradient
       inkscape:collect="always"
       id="linearGradient4515">
      <stop
         style="stop-color:#ececec;stop-opacity:1;"
         offset="0"
         id="stop4511" />
      <stop
         style="stop-color:#ececec;stop-opacity:0;"
         offset="1"
         id="stop4513" />
    </linearGradient>
    <inkscape:path-effect
       effect="powerstroke"
       id="path-effect1263"
       is_visible="true"
       lpeversion="1"
       offset_points="0,18.8679"
       not_jump="false"
       sort_points="true"
       interpolator_type="CubicBezierJohan"
       interpolator_beta="0.2"
       start_linecap_type="zerowidth"
       linejoin_type="extrp_arc"
       miter_limit="4"
       scale_width="1"
       end_linecap_type="zerowidth" />
    <linearGradient
       inkscape:collect="always"
       xlink:href="#linearGradient4515"
       id="linearGradient4517"
       x1="42.9683"
       y1="46.90202"
       x2="62.536022"
       y2="63.54467"
       gradientUnits="userSpaceOnUse"
       gradientTransform="matrix(0.71982953,0,0,0.71982953,18.656624,19.327308)" />
    <linearGradient
       inkscape:collect="always"
       xlink:href="#linearGradient4515"
       id="linearGradient4997"
       gradientUnits="userSpaceOnUse"
       gradientTransform="matrix(-0.0788014,0.71550324,-0.71550324,-0.0788014,67.020206,-14.724197)"
       x1="42.9683"
       y1="46.90202"
       x2="62.536022"
       y2="63.54467" />
  </defs>
  <sodipodi:namedview
     id="namedview14"
     pagecolor="#ffffff"
     bordercolor="#999999"
     borderopacity="1"
     inkscape:pageshadow="0"
     inkscape:pageopacity="0"
     inkscape:pagecheckerboard="0"
     showgrid="false"
     inkscape:zoom="3.5052294"
     inkscape:cx="-6.2763368"
     inkscape:cy="17.687858"
     inkscape:window-width="1920"
     inkscape:window-height="974"
     inkscape:window-x="-11"
     inkscape:window-y="-11"
     inkscape:window-maximized="1"
     inkscape:current-layer="svg12"
     showguides="true"
     inkscape:guide-bbox="true" />
  <path
     style="color:#000000;fill:url(#linearGradient4517);stroke-width:0.0303682;-inkscape-stroke:none"
     d="m 63.952228,52.886944 -3.158284,-0.728835 c -0.34316,-0.07896 -0.69543,0.100221 -0.835123,0.422118 l -1.45767,3.401227 c -0.127543,0.29761 -0.04251,0.646843 0.20954,0.85031 l 1.840307,1.506259 c -1.093251,2.329231 -3.003406,4.26672 -5.381229,5.381229 L 53.66351,61.878942 C 53.457007,61.626889 53.110811,61.54186 52.813202,61.669403 l -3.401229,1.457668 c -0.324939,0.142732 -0.50411,0.495005 -0.425153,0.83816 l 0.728835,3.158285 c 0.07592,0.327976 0.367453,0.564851 0.710613,0.564851 7.777275,0 14.090808,-6.301384 14.090808,-14.090812 0,-0.340122 -0.233835,-0.634691 -0.564848,-0.710611 z"
     id="path2" />
  <path
     style="color:#000000;fill:url(#linearGradient4997);stroke-width:0.0303682;-inkscape-stroke:none"
     d="m 28.703654,26.625323 1.070199,-3.059515 c 0.116052,-0.332453 -0.02349,-0.702222 -0.328158,-0.876314 l -3.22121,-1.821249 c -0.281859,-0.159357 -0.638302,-0.113066 -0.868139,0.115195 l -1.698669,1.664353 C 21.462126,21.306126 19.745391,19.19535 18.897886,16.70981 l 1.994143,-1.295743 c 0.273145,-0.177669 0.395561,-0.512476 0.301365,-0.822259 l -1.076567,-3.540361 c -0.106302,-0.338611 -0.436844,-0.55527 -0.78658,-0.514353 l -3.21909,0.37871 c -0.334316,0.03956 -0.601683,0.303409 -0.639249,0.644506 -0.851396,7.730533 4.720958,14.695947 12.463571,15.548674 0.338078,0.03723 0.656475,-0.162948 0.768175,-0.483661 z"
     id="path4995" />
</svg>
