<?xml version="1.0" encoding="UTF-8" standalone="no"?>
<svg
   width="100"
   height="100"
   version="1.1"
   id="svg12"
   sodipodi:docname="bg-pattern-call.svg"
   inkscape:version="1.1 (c68e22c387, 2021-05-23)"
   xmlns:inkscape="http://www.inkscape.org/namespaces/inkscape"
   xmlns:sodipodi="http://sodipodi.sourceforge.net/DTD/sodipodi-0.dtd"
   xmlns="http://www.w3.org/2000/svg"
   xmlns:svg="http://www.w3.org/2000/svg">
  <defs
     id="defs16">
    <inkscape:path-effect
       effect="powerstroke"
       id="path-effect1263"
       is_visible="true"
       lpeversion="1"
       offset_points="0,18.8679"
       not_jump="false"
       sort_points="true"
       interpolator_type="CubicBezierJohan"
       interpolator_beta="0.2"
       start_linecap_type="zerowidth"
       linejoin_type="extrp_arc"
       miter_limit="4"
       scale_width="1"
       end_linecap_type="zerowidth" />
  </defs>
  <sodipodi:namedview
     id="namedview14"
     pagecolor="#ffffff"
     bordercolor="#999999"
     borderopacity="1"
     inkscape:pageshadow="0"
     inkscape:pageopacity="0"
     inkscape:pagecheckerboard="0"
     showgrid="false"
     inkscape:zoom="3.5052294"
     inkscape:cx="-6.2763367"
     inkscape:cy="40.510901"
     inkscape:window-width="1920"
     inkscape:window-height="974"
     inkscape:window-x="-11"
     inkscape:window-y="-11"
     inkscape:window-maximized="1"
     inkscape:current-layer="svg12"
     showguides="true"
     inkscape:guide-bbox="true" />
  <path
     style="color:#000000;fill:#b3b3b3;fill-opacity:0.17122;stroke-width:0.0303682;-inkscape-stroke:none"
     d="m 92.481031,80.559883 -3.158284,-0.728835 c -0.34316,-0.07896 -0.69543,0.100221 -0.835123,0.422118 l -1.45767,3.401227 c -0.127543,0.29761 -0.04251,0.646843 0.20954,0.85031 l 1.840307,1.506259 c -1.093251,2.329231 -3.003406,4.26672 -5.381229,5.381229 l -1.506259,-1.84031 C 81.98581,89.299828 81.639614,89.214799 81.342005,89.342342 l -3.401229,1.457668 c -0.324939,0.142732 -0.50411,0.495005 -0.425153,0.83816 l 0.728835,3.158285 c 0.07592,0.327976 0.367453,0.564851 0.710613,0.564851 7.777275,0 14.090808,-6.301384 14.090808,-14.090812 0,-0.340122 -0.233835,-0.634691 -0.564848,-0.710611 z"
     id="path2" />
  <path
     style="color:#000000;fill:#b3b3b3;fill-opacity:0.138434;stroke-width:0.0251432;-inkscape-stroke:none"
     d="m 24.23008,26.424014 0.886067,-2.533112 c 0.09608,-0.275253 -0.01945,-0.581402 -0.271697,-0.72554 l -2.666987,-1.507895 c -0.233364,-0.131939 -0.528479,-0.09361 -0.718772,0.09538 l -1.406405,1.377994 c -1.817797,-1.110828 -3.23916,-2.858435 -3.940848,-4.916327 l 1.651042,-1.072805 c 0.226149,-0.1471 0.327503,-0.424302 0.249513,-0.680786 l -0.891339,-2.931226 c -0.08801,-0.280352 -0.361683,-0.459734 -0.651245,-0.425857 l -2.665232,0.313552 c -0.276795,0.03275 -0.49816,0.251206 -0.529263,0.533616 -0.70491,6.400461 3.908697,12.167445 10.319159,12.873456 0.27991,0.03083 0.543526,-0.134912 0.636007,-0.400445 z"
     id="path4995" />
</svg>
