<?xml version="1.0" encoding="UTF-8" standalone="no"?>
<!-- Created with Inkscape (http://www.inkscape.org/) -->

<svg
   width="550"
   height="300"
   viewBox="0 0 145.52084 79.375002"
   version="1.1"
   id="svg5"
   sodipodi:docname="bg-waves-rakit-id.svg"
   inkscape:version="1.1 (c68e22c387, 2021-05-23)"
   xmlns:inkscape="http://www.inkscape.org/namespaces/inkscape"
   xmlns:sodipodi="http://sodipodi.sourceforge.net/DTD/sodipodi-0.dtd"
   xmlns:xlink="http://www.w3.org/1999/xlink"
   xmlns="http://www.w3.org/2000/svg"
   xmlns:svg="http://www.w3.org/2000/svg">
  <sodipodi:namedview
     id="namedview7"
     pagecolor="#ffffff"
     bordercolor="#999999"
     borderopacity="1"
     inkscape:pageshadow="0"
     inkscape:pageopacity="0"
     inkscape:pagecheckerboard="0"
     inkscape:document-units="px"
     showgrid="false"
     inkscape:zoom="2.4445006"
     inkscape:cx="430.14922"
     inkscape:cy="35.181011"
     inkscape:window-width="1920"
     inkscape:window-height="974"
     inkscape:window-x="-11"
     inkscape:window-y="-11"
     inkscape:window-maximized="1"
     inkscape:current-layer="layer1"
     units="px" />
  <defs
     id="defs2">
    <linearGradient
       inkscape:collect="always"
       id="linearGradient5746">
      <stop
         style="stop-color:#d9d9d9;stop-opacity:1"
         offset="0"
         id="stop5742" />
      <stop
         style="stop-color:#ffd200;stop-opacity:1"
         offset="1"
         id="stop5744" />
    </linearGradient>
    <inkscape:path-effect
       effect="interpolate"
       id="path-effect1245"
       is_visible="true"
       lpeversion="1"
       trajectory="m 70.465867,22.201806 0.07331,-0.428166"
       equidistant_spacing="true"
       steps="5" />
    <inkscape:path-effect
       effect="spiro"
       id="path-effect1144"
       is_visible="true"
       lpeversion="1" />
    <inkscape:path-effect
       effect="spiro"
       id="path-effect1140"
       is_visible="true"
       lpeversion="1" />
    <inkscape:path-effect
       effect="spiro"
       id="path-effect939"
       is_visible="true"
       lpeversion="1" />
    <linearGradient
       inkscape:collect="always"
       xlink:href="#linearGradient5746"
       id="linearGradient5748"
       x1="53.962582"
       y1="31.486937"
       x2="160.62689"
       y2="23.154821"
       gradientUnits="userSpaceOnUse"
       gradientTransform="matrix(0.91064567,0,0,1.0002484,-0.15504374,-0.00575164)" />
  </defs>
  <g
     inkscape:label="Layer 1"
     inkscape:groupmode="layer"
     id="layer1">
    <rect
       style="fill:#f9f9f9;stroke:#ffaaaa;stroke-width:0.79375;stroke-linecap:square;paint-order:stroke fill markers;stop-color:#000000"
       id="rect3814"
       width="222.53352"
       height="78.795914"
       x="-6.9271135"
       y="160.1895" />
    <path
       id="path1142"
       style="fill:none;stroke:url(#linearGradient5748);stroke-width:0.187854;stroke-linecap:butt;stroke-linejoin:miter;stroke-miterlimit:4;stroke-dasharray:0.187854, 0.563563;stroke-dashoffset:0;stroke-opacity:1"
       inkscape:path-effect="#path-effect1144;#path-effect1245"
       inkscape:original-d="M -6.3254061,50.748136 C 13.640549,23.611445 25.344829,24.444502 44.710297,22.145058 58.764756,20.47624 71.449477,34.441564 85.580669,33.652776 101.19817,32.781024 115.69337,24.121054 129.05375,15.986774 136.3075,11.57043 144.46258,4.8438227 148.4112,-0.57758793 M -6.3254061,50.748136 C 19.21093,25.271044 13.612665,36.838842 24.300396,31.107322 c 6.529508,-3.501586 12.995699,-9.866095 20.347548,-8.946371 8.712804,1.089981 12.244477,14.07126 20.759181,16.216211 11.9035,2.998629 26.137717,0.673368 36.297835,-6.215542 5.47217,-3.710318 4.60122,-13.649304 10.34559,-16.922427 11.69164,-6.6618605 26.85647,11.314996 40.36538,-0.555483"
       d="M -6.3254061,50.748136 C -3.7666207,44.565721 0.14666443,38.958839 5.01801,34.37389 c 2.783626,-2.61997 5.880088,-4.906248 9.215415,-6.77554 2.501495,-1.401969 5.132931,-2.566905 7.848046,-3.486531 6.335269,-2.145795 13.126124,-2.956013 19.784876,-2.325497 0.951251,0.09007 1.899805,0.20955 2.84395,0.358736 3.824767,0.604357 7.542885,1.672064 11.211916,2.921146 3.057527,1.040902 6.080965,2.207759 9.103628,3.337392 1.209065,0.451853 2.423697,0.899078 3.644498,1.330938 4.272802,1.511509 8.621167,2.834792 13.070875,3.509496 1.271345,0.192773 2.550963,0.332601 3.839455,0.408746 3.628212,0.214414 7.258119,-0.08584 10.82157,-0.789269 4.276141,-0.84411 8.456581,-2.268781 12.423561,-4.081332 0.66116,-0.302092 1.31692,-0.614695 1.96756,-0.937067 4.55445,-2.256598 8.85783,-4.99183 13.00566,-7.950774 1.77764,-1.268119 3.52671,-2.577328 5.25473,-3.90756 2.44816,-1.884597 4.86082,-3.815299 7.23632,-5.790684 4.15714,-3.4569241 8.20048,-7.0506904 12.12113,-10.77367793 M -6.3254061,50.748136 c 4.6219253,-6.020973 10.125043,-11.873133 16.1640126,-17.190888 2.5165495,-2.30277 5.2638065,-4.364067 8.2079105,-6.085166 2.208078,-1.290825 4.523567,-2.388431 6.92089,-3.271315 5.593755,-2.060063 11.656905,-2.944247 17.59434,-2.320788 0.792143,0.08012 1.58167,0.185196 2.367224,0.315263 3.333242,0.562333 6.56249,1.569637 9.71524,2.767034 2.627292,0.997831 5.202906,2.127194 7.761043,3.24709 1.023255,0.447958 2.047983,0.895397 3.075224,1.333072 3.986083,1.930098 7.940875,3.817963 12.177214,4.984875 1.344987,0.43235 2.731199,0.773926 4.14613,1.015215 3.842564,0.621263 7.8243,0.528245 11.691671,-0.218223 4.640844,-0.89576 9.104847,-2.719389 13.079097,-5.141277 0.66237,-0.403648 1.31154,-0.823716 1.94667,-1.258792 4.4185,-3.009542 8.18123,-6.693615 12.34064,-10.193688 1.85317,-1.58622 3.80833,-3.098013 5.82058,-4.495955 2.7911,-1.947138 5.68514,-3.698425 8.56108,-5.195023 5.03288,-2.6190465 9.97484,-4.4576216 14.16882,-5.8018334 M -6.3254061,50.748136 C 0.35965916,44.888605 7.4526093,38.791168 14.659203,32.740606 c 2.249472,-1.985569 4.647525,-3.821885 7.200406,-5.394793 1.914661,-1.179681 3.914203,-2.209956 5.993735,-3.056098 4.85224,-1.97433 10.187685,-2.932482 15.403802,-2.316078 0.633036,0.07016 1.263536,0.16084 1.890498,0.271788 2.841718,0.52031 5.582097,1.467212 8.218566,2.612924 2.197057,0.954759 4.324845,2.046628 6.418458,3.156786 0.837445,0.444063 1.672267,0.891716 2.505948,1.335208 3.699365,2.348687 7.260584,4.801133 11.283554,6.460253 1.41863,0.671927 2.911435,1.215251 4.452805,1.621685 4.056916,1.02811 8.390482,1.142332 12.561771,0.352823 5.005548,-0.947411 9.753104,-3.169999 13.734634,-6.201222 0.66359,-0.505204 1.30616,-1.032738 1.92578,-1.580518 4.28254,-3.762485 7.50463,-8.395399 11.67563,-12.436601 1.92868,-1.904322 4.08993,-3.618698 6.38641,-5.08435 3.13405,-2.009681 6.50948,-3.5815521 9.88584,-4.5993629 5.90862,-1.7811689 11.74921,-1.8645528 16.21652,-0.8299891 M -6.3254061,50.748136 C 2.4227991,45.050047 11.105582,38.707333 19.479799,31.923964 c 1.982396,-1.668369 4.031244,-3.279703 6.192902,-4.704419 1.621245,-1.068537 3.30484,-2.031482 5.066579,-2.840881 4.110726,-1.888599 8.718466,-2.920718 13.213265,-2.31137 0.47393,0.0602 0.945403,0.136486 1.413773,0.228315 2.350194,0.478287 4.601703,1.364786 6.72189,2.458812 1.766823,0.911689 3.446786,1.966064 5.075873,3.066484 0.651635,0.440168 1.296553,0.888035 1.936674,1.337343 3.412646,2.767276 6.580292,5.784303 10.389892,7.935631 1.492273,0.911504 3.091672,1.656576 4.759481,2.228154 4.271269,1.434959 8.956663,1.75642 13.431872,0.923869 5.370251,-0.999062 10.401363,-3.620607 14.39017,-7.261167 0.6648,-0.606759 1.30078,-1.241759 1.90489,-1.902243 4.14658,-4.515429 6.82803,-10.097183 11.01061,-14.679514 2.0042,-2.222424 4.37154,-4.139383 6.95226,-5.672746 3.47699,-2.0722226 7.3338,-3.4646783 11.21059,-4.0037019 6.78437,-0.9432913 13.52359,0.7285161 18.26423,4.1418559 M -6.3254061,50.748136 C 4.485939,45.211489 14.758554,38.623498 24.300396,31.107322 c 1.715318,-1.351168 3.414961,-2.737521 5.185398,-4.014046 1.327827,-0.957393 2.695475,-1.853007 4.139423,-2.625664 3.369211,-1.802866 7.249246,-2.908952 11.022727,-2.306661 0.314823,0.05025 0.627269,0.112131 0.937047,0.184842 1.85867,0.436263 3.621309,1.26236 5.225215,2.3047 1.336588,0.868618 2.568726,1.885499 3.733289,2.976182 0.465825,0.436273 0.920838,0.884354 1.367399,1.339477 3.125927,3.185866 5.9,6.767475 9.496231,9.41101 1.565915,1.151081 3.271907,2.0979 5.066156,2.834623 4.485621,1.841807 9.522844,2.370508 14.301973,1.494915 5.734954,-1.050712 11.049622,-4.071216 15.045705,-8.321111 0.666011,-0.708316 1.295401,-1.450781 1.884001,-2.223969 4.01063,-5.268373 6.15142,-11.798967 10.34559,-16.922427 2.07972,-2.540526 4.65315,-4.660069 7.51811,-6.261142 3.81993,-2.1347642 8.15813,-3.3478044 12.53534,-3.4080408 7.66012,-0.1054138 15.29796,3.3215848 20.31193,9.1136998"
       sodipodi:nodetypes="caaaccaaaaac" />
    <circle
       style="fill:#ff8080;stroke:none;stroke-width:0.506638;stroke-linecap:square;paint-order:stroke fill markers;stop-color:#000000;opacity:0.67384106"
       id="circle4754"
       cx="78.902344"
       cy="43.035732"
       r="0.69085336" />
    <circle
       style="opacity:0.5910596;fill:#8dd35f;stroke:none;stroke-width:0.29273;stroke-linecap:square;paint-order:stroke fill markers;stop-color:#000000"
       id="circle4873"
       cx="18.869928"
       cy="25.124121"
       r="0.39916855" />
    <circle
       style="opacity:0.5910596;fill:#ffaaaa;stroke:none;stroke-width:0.218969;stroke-linecap:square;paint-order:stroke fill markers;stop-color:#000000"
       id="circle4893"
       cx="23.340017"
       cy="26.389332"
       r="0.29858759" />
    <circle
       style="fill:#8dd35f;stroke:none;stroke-width:0.590089;stroke-linecap:square;paint-order:stroke fill markers;stop-color:#000000;opacity:0.67384106"
       id="circle4964"
       cx="75.21138"
       cy="36.353653"
       r="0.80464774" />
    <circle
       style="fill:#ffcc00;fill-opacity:0.541818;stroke:none;stroke-width:0.391651;stroke-linecap:square;paint-order:stroke fill markers;stop-color:#000000"
       id="circle4982"
       cx="127.42655"
       cy="10.338201"
       r="0.53405738" />
    <circle
       style="fill:#ffcc00;fill-opacity:0.470909;stroke:none;stroke-width:0.402323;stroke-linecap:square;paint-order:stroke fill markers;stop-color:#000000"
       id="circle5019"
       cx="118.57219"
       cy="8.9748459"
       r="0.54861033" />
  </g>
</svg>
