<?xml version="1.0" encoding="UTF-8" standalone="no"?>
<svg
   id="visual"
   viewBox="0 0 900 600"
   width="900"
   height="600"
   version="1.1"
   sodipodi:docname="layered-waves-haikei.svg"
   inkscape:version="1.1 (c68e22c387, 2021-05-23)"
   xmlns:inkscape="http://www.inkscape.org/namespaces/inkscape"
   xmlns:sodipodi="http://sodipodi.sourceforge.net/DTD/sodipodi-0.dtd"
   xmlns:xlink="http://www.w3.org/1999/xlink"
   xmlns="http://www.w3.org/2000/svg"
   xmlns:svg="http://www.w3.org/2000/svg">
  <defs
     id="defs17">
    <linearGradient
       inkscape:collect="always"
       id="linearGradient15756">
      <stop
         style="stop-color:#ffffff;stop-opacity:1"
         offset="0"
         id="stop15752" />
      <stop
         style="stop-color:#ffffff;stop-opacity:1"
         offset="1"
         id="stop15754" />
    </linearGradient>
    <linearGradient
       inkscape:collect="always"
       id="linearGradient12393">
      <stop
         style="stop-color:#f9f9f9;stop-opacity:1"
         offset="0"
         id="stop12389" />
      <stop
         style="stop-color:#e6e6e6;stop-opacity:0;"
         offset="1"
         id="stop12391" />
    </linearGradient>
    <linearGradient
       inkscape:collect="always"
       id="linearGradient11828">
      <stop
         style="stop-color:#fffc82;stop-opacity:1"
         offset="0"
         id="stop11824" />
      <stop
         style="stop-color:#fffcc2;stop-opacity:1"
         offset="1"
         id="stop11826" />
    </linearGradient>
    <linearGradient
       inkscape:collect="always"
       id="linearGradient11199">
      <stop
         style="stop-color:#fffcc2;stop-opacity:1"
         offset="0"
         id="stop11195" />
      <stop
         style="stop-color:#ff6b00;stop-opacity:0"
         offset="1"
         id="stop11197" />
    </linearGradient>
    <linearGradient
       inkscape:collect="always"
       xlink:href="#linearGradient15756"
       id="linearGradient5748"
       x1="8.4046278"
       y1="32.412663"
       x2="160.62689"
       y2="23.154821"
       gradientUnits="userSpaceOnUse"
       gradientTransform="matrix(5.356328,0,0,3.7792487,36.293469,67.09028)" />
    <inkscape:path-effect
       effect="spiro"
       id="path-effect1144"
       is_visible="true"
       lpeversion="1" />
    <inkscape:path-effect
       effect="interpolate"
       id="path-effect1245"
       is_visible="true"
       lpeversion="1"
       trajectory="m 451.67868,150.99733 0.4312,-1.61773"
       equidistant_spacing="true"
       steps="7" />
    <linearGradient
       inkscape:collect="always"
       xlink:href="#linearGradient11199"
       id="linearGradient11201"
       x1="81.34111"
       y1="154.8105"
       x2="947.23029"
       y2="228.24197"
       gradientUnits="userSpaceOnUse" />
    <linearGradient
       inkscape:collect="always"
       xlink:href="#linearGradient11828"
       id="linearGradient11830"
       x1="1014.5773"
       y1="156.91205"
       x2="-1.7492712"
       y2="141.16861"
       gradientUnits="userSpaceOnUse" />
    <linearGradient
       inkscape:collect="always"
       xlink:href="#linearGradient12393"
       id="linearGradient12395"
       x1="-1.7492635"
       y1="66.472305"
       x2="860.64142"
       y2="66.472305"
       gradientUnits="userSpaceOnUse" />
  </defs>
  <sodipodi:namedview
     id="namedview15"
     pagecolor="#ffffff"
     bordercolor="#999999"
     borderopacity="1"
     inkscape:pageshadow="0"
     inkscape:pageopacity="0"
     inkscape:pagecheckerboard="0"
     showgrid="false"
     inkscape:zoom="1.1433333"
     inkscape:cx="624.0525"
     inkscape:cy="279.88339"
     inkscape:window-width="1920"
     inkscape:window-height="1046"
     inkscape:window-x="-11"
     inkscape:window-y="-11"
     inkscape:window-maximized="1"
     inkscape:current-layer="visual" />
  <path
     d="M -5.8753772,268.7496 -2.5024135,-0.37174565 c 0,0 151.7802435,7.42802115 227.7371535,7.96760365 C 299.75361,8.1252249 375.17256,-8.873004 448.74879,2.9540684 550.61715,19.328983 638.04797,94.768925 740.60653,106.04031 795.45748,112.06854 904.94769,86.123479 904.94769,86.123479 L 900,258.85423 H 878.5 771.2 642.8 514.2 l -137.21307,2.09058 z"
     fill="#e34c67"
     id="path8"
     sodipodi:nodetypes="ccaaacccccccc"
     style="fill:url(#linearGradient12395);fill-opacity:1" />
  <path
     d="m -13.737995,13.906653 c 0,0 315.774535,25.686873 467.482025,67.861313 78.58398,21.846224 144.071,98.535074 225.55269,94.869824 50.07386,-2.25245 88.67918,-46.75582 132.81714,-70.51094 48.24855,-25.967451 126.2725,-11.016299 144.30014,-78.724519 0,0 15.28996,219.442939 -15.30614,209.148689 -79.73699,-26.82802 -89.82269,-124.6233 -275.56734,-12.68221 -32.72323,19.72102 -76.66336,-2.73379 -114.60582,1.74927 -58.38763,6.89874 -113.73326,31.6781 -172.13178,38.48396 -127.37339,14.8443 -249.98285,-82.21589 -384.6782972,4.64756 z"
     fill="#d53867"
     id="path10"
     style="fill:url(#linearGradient11830);fill-opacity:1"
     sodipodi:nodetypes="caaacssaacc" />
  <path
     d="m -24.489797,77.918123 c 0,0 266.317507,26.782887 397.520277,52.215437 97.22799,18.84682 189.18194,84.26261 287.70488,74.17725 51.68692,-5.29096 87.97283,-69.68246 139.92033,-68.68832 46.90208,0.89758 96.03302,29.04285 123.86518,66.80502 10.19872,13.83743 34.00466,39.62064 9.94843,50.60063 C 910.56183,223.63156 850.82595,202.26596 807.9347,201.12828 747.86525,200.5602 697.40608,252.83494 637.85231,260.70961 553.76505,271.82829 468.90055,240.5799 384.09152,241.89206 253.39887,243.91413 -5.8753772,282.9742 -5.8753772,282.9742 Z"
     fill="#e34c67"
     id="path9991"
     style="fill:url(#linearGradient11201);fill-opacity:1;stroke-width:0.653909"
     sodipodi:nodetypes="caaaaccaacc" />
  <path
     id="path1142"
     style="fill:none;stroke:url(#linearGradient5748);stroke-width:1.786;stroke-linecap:butt;stroke-linejoin:miter;stroke-miterlimit:4;stroke-dasharray:1.786, 5.358;stroke-dashoffset:0;stroke-opacity:1"
     inkscape:path-effect="#path-effect1144;#path-effect1245"
     inkscape:original-d="M -44.606416,47.903789 C 72.831351,-54.627051 185.9029,114.39157 300.18695,150.78292 c 79.7857,25.40608 154.69183,71.4209 237.92164,80.58739 98.902,10.89253 208.26569,13.49671 296.78652,-31.93803 C 893.80948,169.19352 936.67056,93.467983 967.31747,51.338076 M -30.365174,104.31811 C 119.83703,8.0577486 37.642392,192.66244 85.713701,217.20067 c 59.584839,30.41537 130.821759,35.1102 197.717299,34.45141 87.87516,-0.8654 172.07739,-36.04846 258.78326,-50.36229 30.93649,-5.10715 64.2915,-0.54139 93.20966,-12.66119 51.8795,-21.74306 81.95138,-80.65839 133.44649,-103.296772 61.43766,-27.009346 118.98899,10.856598 198.44706,-33.993752"
     d="M -44.606416,47.903789 C 22.316936,62.93489 88.646173,80.610106 154.17683,100.86843 c 49.14799,15.19374 97.84679,31.84049 146.01012,49.91449 11.21098,4.20708 22.40257,8.49434 33.59036,12.80477 44.75115,17.24174 89.44134,34.85441 135.06689,49.1909 22.81278,7.16824 45.85939,13.51745 69.26439,18.59172 28.41162,6.15972 57.58507,10.28066 86.83154,11.85693 58.49294,3.15254 117.27795,-3.87359 170.84457,-25.12548 13.39165,-5.31297 26.45716,-11.51505 39.11041,-18.66948 25.1497,-14.22019 48.20914,-32.06241 68.43171,-52.69172 26.96343,-27.50573 48.88355,-59.96628 63.99065,-95.402484 m -1009.550346,5.9681 c 60.246324,20.470715 122.323631,41.815682 184.999186,62.950964 48.45981,16.61766 97.49513,32.36154 146.13736,47.64684 12.17786,3.58044 24.34547,7.04458 36.48259,10.36111 51.88428,12.93951 103.05777,21.91114 155.68628,32.5987 21.62275,5.74831 43.47749,10.95272 65.59512,14.93051 26.28981,4.88234 53.1787,7.90153 80.01977,8.33317 53.18683,1.04021 105.96473,-7.8163 154.07265,-28.72332 12.02698,-5.22675 23.76881,-11.21071 35.16582,-17.98986 23.51597,-14.30154 45.27852,-31.63549 64.99152,-50.90852 31.83979,-29.74051 62.70517,-58.949095 86.40005,-85.167694 M -39.859335,66.708563 c 53.569294,25.910329 111.394673,50.925047 171.215125,72.937277 47.77162,18.04159 97.14348,32.88261 146.26461,45.37919 13.14473,2.95381 26.28835,5.59484 39.37481,7.91746 59.01741,8.63728 116.6742,8.96787 176.30568,16.0065 20.43272,4.32837 41.09559,8.38799 61.92583,11.26931 24.168,3.60495 48.77233,5.52238 73.20801,4.8094 47.88072,-1.07212 94.65151,-11.759 137.30073,-32.32115 10.66231,-5.14054 21.08047,-10.90639 31.22123,-17.31025 21.88224,-14.38288 42.3479,-31.20856 61.55133,-49.12532 36.71615,-31.97529 76.52679,-57.93191 108.80945,-74.932904 M -37.485795,76.11095 c 46.8922657,31.34994 100.465715,60.03441 157.431065,82.9236 47.08343,19.4655 96.79182,33.40366 146.39185,43.11154 14.11161,2.32716 28.23124,4.14509 42.26704,5.4738 66.15054,4.33505 130.29062,-3.97539 196.92507,-0.5857 19.24269,2.90843 38.71369,5.82325 58.25656,7.6081 22.04618,2.32757 44.36596,3.14324 66.39624,1.28563 42.57461,-3.18445 83.33829,-15.7017 120.52882,-35.91898 9.29763,-5.05432 18.39211,-10.60205 27.27663,-16.63063 20.24851,-14.46422 39.41728,-30.78163 58.11113,-47.34211 41.59251,-34.210078 90.34841,-56.914734 131.21886,-64.698124 M -35.112255,85.513336 C 5.1029821,122.3029 54.424503,154.65711 108.53474,178.42326 c 46.39526,20.88942 96.44018,33.92472 146.51911,40.84388 15.07848,1.70053 30.17412,2.69535 45.15925,3.03014 73.28368,0.0328 143.90706,-16.91865 217.54447,-17.17789 18.05267,1.48849 36.33179,3.25852 54.58728,3.9469 19.92437,1.05018 39.95959,0.76409 59.58447,-2.23814 37.26851,-5.29678 72.02508,-19.64441 103.75691,-39.51681 7.93296,-4.9681 15.70377,-10.29772 23.33203,-15.95103 18.61479,-14.54556 36.48667,-30.35469 54.67095,-45.5589 C 860.15808,69.356554 917.85924,49.903861 967.31747,51.338076 M -32.738714,94.915723 C 0.79949357,137.1449 45.869085,173.16887 97.124223,197.81196 c 45.707067,22.31335 96.088517,34.44579 146.646347,38.57624 16.04537,1.07388 32.11702,1.24559 48.05148,0.58648 80.41681,-4.2694 157.52349,-29.86191 238.16387,-33.77009 16.86263,0.0686 33.94988,0.69379 50.918,0.28569 17.80255,-0.2272 35.55322,-1.61505 52.7727,-5.76191 31.9624,-7.4091 60.71186,-23.5871 86.98499,-43.11464 6.56828,-4.88188 13.01542,-9.99338 19.38744,-15.27141 16.98106,-14.6269 33.55605,-29.92776 51.23076,-43.775703 C 842.62504,56.886986 909.27146,40.686256 967.31747,51.338076 M -30.365174,104.31811 c 26.861179,47.66879 67.678842,87.36251 116.078875,112.88256 45.018879,23.73726 95.736869,34.96684 146.773599,36.30858 17.01224,0.44725 34.0599,-0.20415 50.9437,-1.85717 87.54994,-8.57163 171.13992,-42.80518 258.78326,-50.36229 15.67261,-1.35138 31.56798,-1.87094 47.24872,-3.37552 15.68074,-1.50458 31.14685,-3.99418 45.96094,-9.28567 26.65629,-9.52144 49.39864,-27.52981 70.21307,-46.71247 5.20361,-4.79567 10.32708,-9.68905 15.44285,-14.5918 15.34732,-14.70825 30.62543,-29.500835 47.79057,-41.992502 C 825.092,44.417419 900.68368,31.468651 967.31747,51.338076"
     sodipodi:nodetypes="caaaccaaaaac" />
</svg>
