<?xml version="1.0" encoding="UTF-8" standalone="no"?>
<svg
   id="visual"
   viewBox="0 0 900 600"
   width="900"
   height="600"
   version="1.1"
   sodipodi:docname="layered-waves-haikei.svg"
   inkscape:version="1.1 (c68e22c387, 2021-05-23)"
   xmlns:inkscape="http://www.inkscape.org/namespaces/inkscape"
   xmlns:sodipodi="http://sodipodi.sourceforge.net/DTD/sodipodi-0.dtd"
   xmlns:xlink="http://www.w3.org/1999/xlink"
   xmlns="http://www.w3.org/2000/svg"
   xmlns:svg="http://www.w3.org/2000/svg">
  <defs
     id="defs17">
    <linearGradient
       inkscape:collect="always"
       id="linearGradient1128">
      <stop
         style="stop-color:#ffa3be;stop-opacity:1"
         offset="0"
         id="stop1124" />
      <stop
         style="stop-color:#f1f5f9;stop-opacity:1"
         offset="1"
         id="stop1126" />
    </linearGradient>
    <linearGradient
       inkscape:collect="always"
       id="linearGradient4615">
      <stop
         style="stop-color:#ffa3be;stop-opacity:1"
         offset="0"
         id="stop4611" />
      <stop
         style="stop-color:#f1f5f9;stop-opacity:1"
         offset="1"
         id="stop4613" />
    </linearGradient>
    <linearGradient
       inkscape:collect="always"
       xlink:href="#linearGradient4615"
       id="linearGradient5033"
       gradientUnits="userSpaceOnUse"
       x1="424.26407"
       y1="288.32208"
       x2="423.78522"
       y2="350.49402"
       gradientTransform="matrix(1,0,0,1.2829031,0,-164.36197)" />
    <linearGradient
       inkscape:collect="always"
       xlink:href="#linearGradient1128"
       id="linearGradient9995"
       gradientUnits="userSpaceOnUse"
       gradientTransform="matrix(1,0,0,1.2829031,0,-144.36197)"
       x1="424.26407"
       y1="291.4556"
       x2="424.26407"
       y2="318.67679" />
  </defs>
  <sodipodi:namedview
     id="namedview15"
     pagecolor="#ffffff"
     bordercolor="#999999"
     borderopacity="1"
     inkscape:pageshadow="0"
     inkscape:pageopacity="0"
     inkscape:pagecheckerboard="0"
     showgrid="false"
     inkscape:zoom="1.1433333"
     inkscape:cx="320.99126"
     inkscape:cy="188.04665"
     inkscape:window-width="1920"
     inkscape:window-height="974"
     inkscape:window-x="-11"
     inkscape:window-y="-11"
     inkscape:window-maximized="1"
     inkscape:current-layer="visual" />
  <path
     d="m 0,246.73646 21.5,-1.66777 c 21.5,-1.79606 64.5,-5.13162 107.3,-9.23691 42.9,-4.10528 75.3045,21.92337 118.2045,23.97601 42.8,2.18093 95.9955,-19.48585 138.7955,-14.61081 42.9,5.00333 88.99854,16.2687 131.89854,10.49563 42.8,-5.77307 82.30146,-28.58456 125.10146,-25.63389 42.9,2.95068 85.5,36.29329 128.4,40.27029 42.8,4.10529 85.8,-21.02674 107.3,-26.15835 l 21.5,-5.13162 v 66.71097 H 878.5 771.2 642.8 514.2 385.8 257.2 128.8 21.5 0 Z"
     fill="#c62368"
     id="path1738"
     style="fill:url(#linearGradient9995);fill-opacity:1;stroke:none;stroke-width:1.13265"
     sodipodi:nodetypes="ccccccccscccccccccccc" />
  <path
     d="m -34.042649,13.578931 c 23.151303,-17.1277943 50.68828,29.044495 78.742467,35.548859 29.880019,6.927683 61.432952,5.76608 91.971902,2.905842 43.94732,-4.116049 85.37809,-25.784242 129.27464,-28.68537 40.58898,-2.682532 81.33986,4.3876 121.60291,10.587189 42.66143,6.568885 83.56505,27.960286 126.65073,28.122887 43.68809,0.164875 84.91545,-28.173841 128.6,-27.54612 43.8596,0.630238 85.04803,24.085101 128.4,31.356848 44.73205,7.503238 109.20292,20.82061 135.28834,12.560959 32.28926,-10.224024 49.16223,2.544732 57.57871,22.805325 24.18837,58.22751 -15.59733,142.53659 -64.06705,178.57887 -5.91812,4.40074 -14.33333,0 -21.5,0 H 771.2 642.8 514.2 385.8 257.2 128.8 21.5 c -7.166667,0 -16.1206203,4.73533 -21.5,0 C -67.155408,220.69899 -105.96668,66.789761 -34.042649,13.578931 Z"
     fill="#fa7268"
     id="path4"
     sodipodi:nodetypes="aaaaaaaasaaaaaaaaaaaa"
     style="stroke-width:1.04345" />
  <path
     d="m -31.486881,85.98251 0.508746,1.625364 C -24.512529,108.26449 61.465435,76.8253 107.80875,78.289798 158.00599,79.876084 214.3,98.15423 257.2,97.85423 c 42.8,-0.3 85.8,4.3 128.6,2.7 42.9,-1.7 85.5,-9.7 128.4,-13.7 42.8,-4 85.8,-4 128.6,4.5 42.9,8.5 85.5,25.5 128.4,21.5 42.8,-4 85.8,-29 107.3,-41.5 L 903.7172,57.542277 900,258.85423 H 878.5 771.2 642.8 514.2 385.8 257.2 128.8 21.5 0 Z"
     fill="#ef5f67"
     id="path6"
     sodipodi:nodetypes="csacccccscccccccccccc" />
  <path
     d="M 0,104.85423 -29.228865,51.629738 C -51.033811,11.923881 35.460891,128.38368 99.937025,125.1586 152.4349,122.53267 214.3,116.15423 257.2,113.55423 c 42.8,-2.7 85.8,10.3 128.6,20.1 42.9,9.9 85.5,16.5 128.4,10 42.8,-6.5 85.8,-26.1 128.6,-35.5 42.9,-9.3 85.5,-8.3 128.4,-3.3 42.8,5 85.8,14 107.3,18.5 l 21.5,4.5 v 131 H 878.5 771.2 642.8 514.2 385.8 257.2 128.8 21.5 0 Z"
     fill="#e34c67"
     id="path8"
     sodipodi:nodetypes="csscccccscccccccccccc" />
  <path
     d="m 0,166.85423 21.5,-3 c 21.5,-3 64.5,-9 107.3,-8.3 42.9,0.6 85.5,8 128.4,7.1 42.8,-0.8 85.8,-9.8 128.6,-10.8 42.9,-1 85.5,6 128.4,7.2 42.8,1.1 85.8,-3.5 128.6,-6.5 42.9,-3 85.5,-4.4 128.4,-5.7 42.8,-1.3 85.8,-2.7 107.3,-3.3 l 21.5,-0.7 v 116 h -21.5 c -21.5,0 -64.5,0 -107.3,0 -42.9,0 -85.5,0 -128.4,0 -42.8,0 -85.8,0 -128.6,0 -42.9,0 -85.5,0 -128.4,0 -42.8,0 -85.8,0 -128.6,0 -42.9,0 -85.5,0 -128.4,0 -42.8,0 -85.8,0 -107.3,0 H 0 Z"
     fill="#d53867"
     id="path10" />
  <path
     d="m 0,226.73646 21.5,-1.66777 c 21.5,-1.79606 64.5,-5.13162 107.3,-9.23691 42.9,-4.10528 85.5,-8.72373 128.4,-6.67109 42.8,2.18093 85.8,11.16125 128.6,16.03629 42.9,5.00333 85.5,5.77307 128.4,0 42.8,-5.77307 85.8,-18.08893 128.6,-15.13826 42.9,2.95068 85.5,21.42449 128.4,25.40149 42.8,4.10529 85.8,-6.15794 107.3,-11.28955 l 21.5,-5.13162 v 66.71097 h -21.5 c -21.5,0 -64.5,0 -107.3,0 -42.9,0 -85.5,0 -128.4,0 -42.8,0 -85.8,0 -128.6,0 -42.9,0 -85.5,0 -128.4,0 -42.8,0 -85.8,0 -128.6,0 -42.9,0 -85.5,0 -128.4,0 -42.8,0 -85.8,0 -107.3,0 H 0 Z"
     fill="#c62368"
     id="path12"
     style="fill:url(#linearGradient5033);fill-opacity:1;stroke:none;stroke-width:1.13265" />
  <path
     d="m 0,193.00436 21.5,3.42077 c 21.5,3.42077 64.5,10.26232 107.3,9.7492 42.9,-0.47035 85.5,-8.33813 128.4,-9.44988 42.8,-1.15451 85.8,4.40425 128.6,8.59469 42.9,4.2332 85.5,7.05535 128.4,4.27596 42.8,-2.77937 85.8,-11.16026 128.6,-15.17967 42.9,-3.97665 85.5,-3.54906 128.4,-1.41107 42.8,2.13798 85.8,5.98635 107.3,7.91053 l 21.5,1.92419 v 56.01515 H 878.5 L 771.2,278.97085 642.8,258.85423 516.82391,273.72303 385.8,258.85423 258.07464,273.71393 128.8,258.85423 H 21.5 0 Z"
     fill="#e34c67"
     id="path9991"
     style="stroke-width:0.653909"
     sodipodi:nodetypes="csccccccscccccccccccc" />
  <path
     d="m 0,246.73646 21.5,-1.66777 c 21.5,-1.79606 64.5,-5.13162 107.3,-9.23691 42.9,-4.10528 75.3045,21.92337 118.2045,23.97601 42.8,2.18093 95.9955,-19.48585 138.7955,-14.61081 42.9,5.00333 88.99854,16.2687 131.89854,10.49563 42.8,-5.77307 82.30146,-28.58456 125.10146,-25.63389 42.9,2.95068 85.5,36.29329 128.4,40.27029 42.8,4.10529 85.8,-21.02674 107.3,-26.15835 l 21.5,-5.13162 v 66.71097 H 878.5 771.2 642.8 514.2 385.8 257.2 128.8 21.5 0 Z"
     fill="#c62368"
     id="path9993"
     style="fill:url(#linearGradient9995);fill-opacity:1;stroke:none;stroke-width:1.13265"
     sodipodi:nodetypes="ccccccccscccccccccccc" />
  <circle
     style="fill:#ffffff;fill-opacity:0.45355189;stroke:none;stroke-width:10.6364;stroke-linecap:square;paint-order:stroke fill markers;stop-color:#000000"
     id="path10941"
     cx="480.23477"
     cy="241.19971"
     r="12.059984" />
  <circle
     style="fill:#ffffff;fill-opacity:0.34790528;stroke:none;stroke-width:6.00002;stroke-linecap:square;paint-order:stroke fill markers;stop-color:#000000"
     id="circle11383"
     cx="468.6716"
     cy="221.69354"
     r="6.8030677" />
  <circle
     style="fill:#ffffff;fill-opacity:0.24408014;stroke:none;stroke-width:3.54547;stroke-linecap:square;paint-order:stroke fill markers;stop-color:#000000"
     id="circle11385"
     cx="476.59634"
     cy="207.5675"
     r="4.0199943" />
  <circle
     style="fill:#ffffff;fill-opacity:0.56466305;stroke:none;stroke-width:6.77236;stroke-linecap:square;paint-order:stroke fill markers;stop-color:#000000"
     id="circle11690"
     cx="45.571007"
     cy="164.40182"
     r="7.678781" />
  <circle
     style="fill:#ffffff;fill-opacity:0.45719489;stroke:none;stroke-width:3.82031;stroke-linecap:square;paint-order:stroke fill markers;stop-color:#000000"
     id="circle11692"
     cx="51.426327"
     cy="151.49255"
     r="4.3316197" />
  <circle
     style="fill:#ffffff;fill-opacity:0.27686703;stroke:none;stroke-width:2.25746;stroke-linecap:square;paint-order:stroke fill markers;stop-color:#000000"
     id="circle11694"
     cx="45.019905"
     cy="144.67453"
     r="2.5595934" />
</svg>
