<?xml version="1.0" standalone="no"?>
<!DOCTYPE svg PUBLIC "-//W3C//DTD SVG 20010904//EN"
 "http://www.w3.org/TR/2001/REC-SVG-20010904/DTD/svg10.dtd">
<svg version="1.0" xmlns="http://www.w3.org/2000/svg"
 width="260.000000pt" height="260.000000pt" viewBox="0 0 260.000000 260.000000"
 preserveAspectRatio="xMidYMid meet">
<metadata>
Created by potrace 1.14, written by Peter Selinger 2001-2017
</metadata>
<g transform="translate(0.000000,260.000000) scale(0.100000,-0.100000)"
fill="#000000" stroke="none">
<path d="M1085 2268 c-104 -183 -204 -359 -222 -390 l-33 -57 -58 25 c-31 14
-66 29 -77 34 -11 5 -67 29 -125 54 -58 24 -207 87 -332 140 -125 53 -230 96
-233 96 -3 0 8 -20 25 -44 16 -25 30 -47 30 -51 0 -3 28 -52 61 -108 34 -56
73 -122 87 -147 14 -25 44 -76 67 -115 39 -64 335 -569 375 -640 10 -16 54
-93 100 -170 45 -77 91 -155 102 -174 10 -18 83 -142 160 -275 78 -132 146
-250 152 -261 52 -95 112 -183 118 -172 16 27 236 388 453 743 127 206 237
388 246 404 8 15 24 41 35 57 10 15 25 40 34 54 24 42 172 285 202 332 15 23
31 49 35 57 5 9 45 76 91 150 46 74 87 142 92 150 97 159 121 202 118 205 -3
4 -516 -195 -583 -225 -11 -5 -72 -29 -135 -54 -106 -42 -116 -44 -128 -28
-11 14 -433 682 -461 730 -4 8 -78 -113 -196 -320z"/>
</g>
</svg>
