<?xml version="1.0" encoding="UTF-8" standalone="no"?>
<!-- Created with Inkscape (http://www.inkscape.org/) -->

<svg
   width="1081.572"
   height="536.11401"
   viewBox="0 0 286.16593 141.84684"
   version="1.1"
   id="svg5"
   inkscape:version="1.1 (c68e22c387, 2021-05-23)"
   sodipodi:docname="world-map-white.svg"
   xmlns:inkscape="http://www.inkscape.org/namespaces/inkscape"
   xmlns:sodipodi="http://sodipodi.sourceforge.net/DTD/sodipodi-0.dtd"
   xmlns="http://www.w3.org/2000/svg"
   xmlns:svg="http://www.w3.org/2000/svg">
  <sodipodi:namedview
     id="namedview7"
     pagecolor="#323232"
     bordercolor="#999999"
     borderopacity="1"
     inkscape:pageshadow="0"
     inkscape:pageopacity="0.88627451"
     inkscape:pagecheckerboard="0"
     inkscape:document-units="mm"
     showgrid="false"
     units="px"
     width="286.166px"
     inkscape:zoom="1"
     inkscape:cx="539.5"
     inkscape:cy="320"
     inkscape:window-width="1920"
     inkscape:window-height="974"
     inkscape:window-x="-11"
     inkscape:window-y="-11"
     inkscape:window-maximized="1"
     inkscape:current-layer="layer1" />
  <defs
     id="defs2">
    <linearGradient
       id="linearGradient5608"
       inkscape:swatch="solid">
      <stop
         style="stop-color:#858585;stop-opacity:1;"
         offset="0"
         id="stop5606" />
    </linearGradient>
  </defs>
  <g
     inkscape:label="Layer 1"
     inkscape:groupmode="layer"
     id="layer1">
    <path
       style="fill:#ffffff;stroke:#ffffff;stroke-width:0.13229167;stroke-opacity:1;stroke-miterlimit:4;stroke-dasharray:none;stroke-linejoin:round;stroke-linecap:round;paint-order:markers fill stroke;fill-opacity:1"
       d="m 96.095536,4.739301 0.285645,1.1425508 -5.427119,0.8569119 v 0.5712754 l 4.855851,1.1901666 1.951767,1.3805715 -0.523585,1.9994628 1.428195,0.285639 v 0.285636 l -1.71384,0.856913 h 1.428183 v 0.571276 c -2.401922,0.0632 -2.455052,2.717298 -2.094573,4.570199 0.163375,0.840949 0.0056,1.82194 0.523573,2.570741 0.650682,0.938204 2.494753,1.324613 3.570487,1.142548 0.76463,-0.129419 1.08141,-0.869909 1.52329,-1.428187 0.75666,-0.955601 1.78666,-2.327177 2.76126,-3.04681 1.21053,-0.893875 2.94919,-0.681303 4.28456,-1.237753 2.98148,-1.242266 5.7396,-3.336334 9.14042,-3.142014 l 0.23793,-1.90426 2.61843,-1.8090274 c -0.47845,-0.8613402 -0.22793,-1.211533 0.57127,-1.7138272 l -0.57127,-1.7138228 4.85584,-1.7138273 c -0.86092,-0.6262252 -2.29053,0.2519825 -3.42765,-0.1428183 -3.17628,-1.1028707 -5.82215,-1.3223286 -9.14041,-0.9997313 -1.41362,0.1374233 -2.87321,-0.1568025 -4.28456,0 -0.71152,0.079077 -1.28765,0.492205 -1.99947,0.5712742 -2.17112,0.2412409 -4.39567,0.074283 -6.56964,0.2856389 C 98.940202,4.3080112 97.554,4.739301 96.095536,4.739301 M 79.242919,5.3105764 c 0.04289,1.6256489 0.856348,1.8417923 2.2851,1.4281873 -1.445325,1.9709566 -3.752703,0.8569131 -5.712746,0.8569131 L 74.387086,8.7382264 C 74.182855,7.0028924 72.402759,7.5952479 72.101984,9.0238652 l 3.998922,0.5712754 1.142557,-1.1425507 c 0.114822,0.9758521 0.792642,0.9542005 1.713821,1.0949349 1.544727,0.235993 4.033493,0.0631 5.427112,-0.5236596 V 8.7382264 H 79.814195 V 8.4525899 L 86.098227,7.786112 90.097154,5.8818518 98.66629,3.8823879 93.810434,3.5967503 84.384396,4.4536633 h -2.570735 l -2.570742,0.8569131 m -2.570734,0.5712754 c 0.106529,1.0113285 0.41674,1.3217313 1.428188,1.4281873 L 77.81473,5.5962141 76.672185,5.8818518 m -9.426044,1.1425485 v 0.2856388 l 2.570744,-0.8569119 c -0.833496,-0.9849354 -1.683263,0.027362 -2.570744,0.5712731 m 5.712755,-0.8569097 v 0.2856366 l 3.14201,0.2856365 C 75.356819,5.9609738 73.960908,5.7455164 72.958896,6.1674906 M 59.533933,8.1669522 v 0.2856377 l 3.998921,1.3329848 2.570742,-0.3808704 3.142012,-0.6664779 -0.571277,-1.1425496 -1.999465,1.0473483 -2.2851,-0.4760729 0.285643,-1.1425519 -5.141476,1.1425519 m 125.394897,1.1425507 0.57127,0.8569131 h -3.14203 l 1.14258,1.428186 -2.85639,-0.285636 0.8569,0.856913 v 0.285636 l -2.57072,-1.999461 0.57127,0.856912 v 0.285636 l -0.57127,0.856913 h -0.57129 l -0.28562,-1.428187 -2.2851,-0.571274 -0.85693,1.999461 2.28511,2.570738 -5.42711,-1.475803 -1.71382,-0.523658 v 0.285636 l 1.42818,1.142551 c -1.28709,-0.575789 -2.79125,-0.159731 -3.99895,0.571274 -0.22707,-1.929795 -3.94092,1.011815 -5.14145,0.856912 l 0.57127,-0.571274 v -0.285638 l -1.99945,-0.571274 0.8569,1.999463 c -1.23567,-0.195092 -2.40821,0.0058 -2.57074,1.428188 l -2.2851,-0.285639 0.85691,1.14255 -1.71382,-0.666478 -1.14254,-1.332985 v -0.285636 c 1.66526,0 4.21714,1.005644 4.85584,-1.142551 l -7.71222,-1.713825 c -0.19623,-1.667924 -1.97978,-0.96991 -3.14202,-0.856913 -1.67213,0.162557 -3.212,0.209858 -4.85584,0.666478 -1.00174,0.278241 -1.84722,0.834891 -2.85638,1.047348 v 0.285637 h 0.85693 c -0.56274,0.77102 -1.32164,1.255205 -1.90435,1.999462 -0.44247,0.565648 -0.62355,1.507997 -1.23766,1.904262 -1.03258,0.666077 -2.40909,0.106518 -3.33255,1.285369 -0.96003,1.225871 -0.41273,4.139945 1.33306,4.236947 0.9786,0.05438 1.71527,-0.804813 2.57076,-1.142551 0.15195,1.443183 1.77866,2.598758 -0.28565,3.142014 l -0.28562,-1.713825 c -2.11545,0.445366 -1.73497,1.819654 -1.14256,3.427651 -0.8275,0.261356 -2.46648,0.37347 -3.09432,0.952114 -0.3736,0.344309 -0.34192,0.903501 -0.66668,1.285369 -0.52015,0.612036 -1.27936,0.605866 -1.85664,1.047349 -1.25309,0.958313 -1.22538,1.317645 -2.95149,0.99973 l 0.28563,1.142552 h -2.57073 v 0.571274 c 1.25651,0.463018 4.22486,3.11402 1.99946,4.427381 -1.77324,1.046577 -4.21115,-0.653251 -5.99839,0.428459 l 0.19052,2.285099 -0.71409,1.713826 0.23794,1.999459 c 1.19681,0 2.87179,0.309917 2.2851,1.999466 -0.41362,1.191395 -1.70496,1.532728 -2.47562,2.380222 -0.83263,0.916041 -0.43675,2.125709 -0.99972,3.046889 -0.7421,1.214818 -2.05118,1.466465 -2.99921,2.332805 -1.05772,0.966599 -1.77238,2.503617 -2.52304,3.665583 -0.38161,0.590706 -1.15226,2.15942 -1.14256,2.856377 0.0172,1.22653 0.91149,2.357086 0.66642,3.713289 -0.35163,1.948619 -1.43163,3.363958 -0.71411,5.427119 0.33447,0.961739 1.62213,1.460466 2.23768,2.285101 0.57186,0.766078 0.69154,1.738676 1.23767,2.475619 0.77121,1.040001 3.17316,2.876084 4.42739,3.18943 1.06114,0.265355 2.06573,-0.809215 3.14201,-0.809215 0.85462,0 1.71125,0.655251 2.57073,0.476163 1.70241,-0.354763 2.9138,-2.207411 4.85584,-1.523597 1.10458,0.389039 1.00688,1.485608 1.80895,2.047169 0.52014,0.364183 1.08541,-0.09513 1.61871,-0.09513 0.68496,0 1.29765,0.537853 1.66612,1.094841 0.91004,1.374781 -0.83665,3.127453 -0.47588,4.570207 0.31136,1.245089 1.51418,2.324798 2.14228,3.427644 1.08943,1.913486 1.57701,4.196302 1.80895,6.284032 0.22851,2.057162 -1.42818,3.872669 -1.42818,5.998383 0,2.404776 1.32621,4.139736 2.18997,6.284016 0.53729,1.33393 0.0743,2.68413 0.47587,3.99893 0.38305,1.25339 1.30623,2.51219 1.85665,3.71329 0.57185,1.24738 0.37789,3.23428 1.33308,4.18945 0.74951,0.74952 2.37764,-0.10229 3.28483,-0.19053 1.32679,-0.12907 2.77296,-0.084 3.99894,-0.71407 1.47787,-0.75954 2.4976,-2.61504 3.52275,-3.85612 0.40502,-0.49016 0.95461,-0.8532 1.23795,-1.42818 0.3956,-0.8038 0.11712,-1.83696 0.52358,-2.57076 0.43274,-0.78151 1.49331,-0.86148 1.99946,-1.5233 1.10969,-1.45103 -0.57441,-3.10803 0,-4.47508 0.22508,-0.53529 0.86662,-0.83549 1.28537,-1.19025 1.63642,-1.3862 3.47307,-2.022601 3.90381,-4.236857 0.35562,-1.829511 -0.0847,-3.674726 -0.57128,-5.427111 -0.37219,-1.339351 -0.9983,-2.6013 -0.57127,-3.998931 1.04086,-3.40708 3.97464,-5.593348 6.37916,-7.997843 2.3325,-2.332517 4.28454,-6.434843 4.28454,-9.711676 l -4.28454,0.952023 -1.71384,0.333338 -1.99949,-2.999194 -4.42735,-5.712743 -0.52359,-2.28511 -3.33253,-6.569655 c 1.90178,0.200226 3.83211,3.42707 4.47509,5.141468 0.27706,0.739236 0.26907,1.618144 0.7615,2.285108 1.06428,1.441037 2.26568,2.782967 3.33254,4.284556 l -1.14255,-0.571267 c 0.22993,0.794075 0.79007,1.253093 1.14255,1.999465 0.29136,0.617262 0.29763,1.730109 0.90462,2.142282 0.8115,0.551276 1.52502,-0.172524 2.23739,-0.380756 2.34566,-0.685819 4.03977,-1.678412 5.99839,-3.094602 1.59815,-1.155402 3.93352,-1.324212 3.99892,-3.808401 h 0.85693 l 0.71409,-2.570743 -2.38021,-1.523301 -0.90463,-2.189988 -3.99893,2.285101 -0.28564,-1.999457 -1.14254,0.571278 c -0.12454,-0.676678 -0.27564,-1.413335 -0.66639,-1.999467 -0.32249,-0.483873 -0.99687,-0.871477 -1.19027,-1.428188 -0.23649,-0.68067 0.58901,-1.553296 1.28539,-1.28537 0.75436,0.290208 1.02628,1.491318 1.5233,2.047169 1.37249,1.533865 3.00177,1.785225 4.76072,0.952022 1.20824,3.06118 5.83101,1.297658 8.2835,2.047172 1.25881,0.384462 2.1237,1.756951 3.42763,2.237396 -0.35475,0.898615 0.14884,2.255105 1.42819,2.142282 0.62985,-0.05569 1.00116,-0.94975 1.42819,-1.285372 0,3.952365 1.75755,7.2989 3.18971,10.854231 0.39734,0.986881 1.90777,5.314851 2.80867,2.2851 l 1.71384,3.14201 c 2.48418,-0.738652 1.12397,-3.78555 -1.14256,-3.427652 l 0.85691,-3.713289 -0.14281,-2.2851 1.19025,-0.904605 3.52275,-3.760708 1.14258,-1.713831 3.42764,-0.761789 2.90407,4.570199 0.80923,2.237396 2.2851,-1.094851 1.33306,5.42712 -0.19053,3.713289 c 1.04288,0.301921 2.18313,1.618422 2.38023,2.761254 0.0703,0.406461 -0.14882,0.797506 0,1.237668 0.43388,1.283662 2.40163,2.759546 3.61815,3.142012 l -1.04741,-2.856369 -0.47587,-1.999465 -3.47535,-4.284568 0.42844,-3.713287 h 0.85691 v 1.142555 l 3.71328,2.285099 v 1.428189 c 0.76524,-0.382476 1.16428,-0.830919 1.76155,-1.428189 0.52701,-0.527001 1.43876,-0.77008 1.80894,-1.428188 1.84264,-3.275695 -3.00577,-5.286299 -3.71329,-7.712219 -0.47102,-1.614422 1.78981,-2.53903 2.99919,-2.570735 l 0.57128,1.428189 c 1.0543,-1.950624 3.65073,-1.882067 5.42711,-3.189715 2.20656,-1.624135 2.93807,-4.797 3.14202,-7.378872 l -1.14256,0.285633 c 0.42476,-1.613856 -0.64525,-2.835237 -1.76152,-3.951227 -0.34275,-0.342766 -1.05658,-0.651249 -1.14256,-1.190249 -0.13766,-0.86462 1.31023,-1.731531 1.76153,-2.2851 l -3.14201,0.285634 -1.71382,-1.428184 v -0.28562 l 1.99948,-1.999463 h 0.57126 l 0.28563,0.285638 v 1.999464 c 0.52587,-0.30449 1.10085,-0.975738 1.71383,-1.09485 1.31935,-0.256787 1.09942,0.968311 1.57101,1.618423 0.35161,0.484727 1.09256,0.317057 1.52331,0.71409 0.88747,0.818071 0.79492,2.357659 1.19025,3.332541 3.95207,-0.832065 1.51615,-4.371972 -1.14256,-5.14148 0.28222,-0.487583 0.75066,-0.915754 0.99973,-1.428188 0.35648,-0.733517 -0.008,-1.620422 0.76178,-2.189983 0.4736,-0.350477 0.86436,0.216799 1.38051,0.09539 1.26595,-0.29792 1.60872,-2.249965 1.71383,-3.332533 0.28477,-2.930641 -1.72727,-9.740755 -5.71277,-7.426577 l -0.57126,-1.428188 h -1.99946 l 1.09486,-1.428187 0.66667,-2.237486 2.80867,-0.618891 5.99839,0.285637 -0.57128,-2.570736 c 0.43559,0 1.01116,-0.09352 1.42818,0.04762 0.51901,0.175667 0.67011,0.726807 1.14256,0.952118 1.23566,0.58927 1.34536,-0.800013 1.14255,-1.571008 2.34251,1.472347 -0.003,3.002308 0.0476,4.855838 0.0494,1.784892 2.22625,2.957492 3.37995,3.998927 0.8589,0.775306 1.44445,1.673407 2.57073,1.999462 l -0.28564,-1.428184 v -0.285637 l 0.57128,-3.142013 V 25.59085 l -3.14202,-1.428189 -0.28562,-1.999463 1.71382,0.285637 h 0.28564 l 2.57073,-0.285637 c 0.5467,-1.888977 1.97804,-2.31912 3.71329,-1.999462 v -0.285633 l -3.42763,-1.42819 1.19024,-1.285368 3.09431,0.904528 1.99946,0.38084 -0.57128,-0.856912 V 17.30736 l 0.57128,-0.571276 -5.71274,-1.237752 -12.28241,-2.475535 0.8569,1.14255 -3.14201,-0.571275 -3.99894,-0.04762 -3.14201,-1.094935 -5.14146,-0.285637 -2.57076,-0.761709 -5.71275,-0.38084 0.85691,1.142549 -4.28456,-0.571276 v 1.14255 l -3.42764,-1.856643 -4.28456,-0.714094 0.28563,0.856912 -5.42712,-0.571274 -1.99946,-0.8569129 -2.57073,0.8569129 c 0.3719,-0.234909 0.77522,-0.391125 1.14255,-0.618891 2.90464,-1.8009166 -2.52761,-1.8268527 -3.42765,-1.9518469 -0.8432,-0.1171134 -1.42162,-0.7969299 -2.28512,-0.8569131 -1.49901,-0.1041038 -1.95691,1.0027303 -3.142,1.3805715 -0.78236,0.2494473 -1.75981,-0.031247 -2.57074,0.047617 -1.24453,0.1209904 -2.52246,0.5121769 -3.71328,0.856913 M 53.535494,11.308975 c 0.24136,2.233771 2.869512,0.624176 3.998924,0 l -1.142546,2.570739 1.42818,1.142549 c 1.627564,-0.513948 3.382529,-1.289139 5.141476,-1.142549 1.057433,0.08813 2.225693,1.028865 3.094317,-0.04762 0.444736,-0.550911 0.02426,-0.798814 0,-1.380573 -0.02684,-0.646711 0.315339,-1.318817 0.333338,-1.999462 L 64.104082,11.308973 60.581315,9.7379679 56.96314,9.5951485 55.53495,10.642496 53.535494,11.308973 m 16.281342,-0.285636 -1.142554,-0.571275 -0.285635,0.285637 c 1.142547,1.973299 3.605606,1.278713 3.998923,-0.8569117 -1.099415,0 -2.415919,-0.1729828 -2.570734,1.1425497 m 0,2.856376 c -1.20621,-0.349193 -2.682677,-0.378071 -2.856339,1.142549 l -2.856377,0.190434 -2.570732,-0.761708 -1.999466,0.809297 -3.427655,0.04762 v -0.285637 l 0.856911,-0.285639 -6.284021,-1.380571 -4.5702,0.52366 -1.428187,-0.190435 -1.999467,0.476073 -3.142012,-0.856913 -4.570197,-0.380841 -4.284568,-0.428456 -5.42711,1.571005 -2.427927,0.714095 0.142816,1.666209 c -1.757007,-0.04625 -4.318579,-0.601636 -5.141467,1.428189 h 2.570735 v 1.142549 c -1.821057,0 -3.848312,0.247248 -5.427112,1.190168 -0.853519,0.509719 -2.342862,2.029082 -0.571276,2.237482 l -0.285635,0.856914 1.999456,0.285637 -9.7116745,3.713289 v 0.285638 c 2.4548249,-0.06458 5.4146345,-0.94746 7.7122185,-1.809029 0.917837,-0.344193 1.601134,-1.056458 2.570734,-1.285368 1.2355,-0.291723 3.975673,-0.357304 3.427656,-2.047081 l 2.856365,-0.571273 v 0.285636 l -0.85691,0.856912 c 0.92927,-0.268985 1.939058,-0.373442 2.856376,-0.666477 0.575731,-0.183924 1.07229,-0.681275 1.713824,-0.618891 0.580019,0.05639 1.14118,0.483671 1.713832,0.618891 1.156739,0.273096 2.21575,0.164012 2.713551,1.52339 0.298865,0.816123 -0.142818,2.22503 -0.142818,3.142013 h 1.428189 l -0.285633,4.284563 -1.142556,-0.285637 1.142556,2.285101 -0.761713,1.999462 -2.332689,3.142013 -0.714095,1.713825 -0.952137,1.42819 0.476067,5.427106 1.856649,1.999467 0.333254,1.999464 0.428449,2.570735 -0.190434,1.142554 1.475807,1.713824 1.809029,2.856376 c 0.187983,-0.892909 -0.264979,-1.403062 -0.571264,-2.285106 -0.68582,-1.975184 -2.022116,-4.517929 -1.42819,-6.569665 l 1.42819,2.856376 1.28537,2.285102 0.23793,1.428187 2.427925,3.14201 -0.09514,2.570745 2.713551,1.856639 3.713288,1.904343 2.856377,0.04738 1.713831,1.761527 3.998922,0.999739 c 0.247072,3.128588 3.01062,5.216022 5.712755,5.998387 0.140534,-0.267074 0.367611,-0.959743 0.618972,-1.142556 1.715541,-1.247658 2.089725,3.291974 1.951762,4.284567 -0.262212,1.887781 -2.490189,3.232844 -3.046899,5.141476 -0.276779,0.94974 0.01204,1.514445 0.761798,1.999465 v 0.285633 c -2.304242,1.369921 -0.356474,3.01319 0.523574,4.5702 0.46902,0.829782 0.758943,1.764096 1.285371,2.570743 1.029148,1.576431 1.749815,4.056906 3.094593,5.331997 1.269945,1.204241 4.073191,2.110274 4.713027,3.808394 1.137405,3.01862 0.363609,6.31173 0.666389,9.42603 0.138814,1.42676 0.730658,2.87094 0.809207,4.28456 0.06112,1.09828 -0.128535,2.58818 -0.237931,3.71328 -0.04565,0.47074 -0.310775,0.95233 -0.237937,1.42821 0.09086,0.59526 0.565565,1.1197 0.714093,1.71383 0.289637,1.15881 -0.04089,3.21111 1.237668,3.7133 v -1.14257 h 0.285634 l 0.571277,2.57074 -1.142545,0.28562 0.285634,2.28511 1.142545,0.28565 c -0.75151,1.29822 -0.0038,1.99345 0.761798,3.14202 1.429049,2.144 2.989479,3.74669 5.522234,4.37967 1.34449,0.33619 3.167152,1.07114 3.713288,-0.66639 -1.515593,-0.27936 -4.09861,-1.55701 -4.046626,-3.42766 0.03085,-1.10655 0.630968,-2.1023 0.904614,-3.142 -2.233115,-1.29281 -0.986593,-3.35595 0,-5.14148 l -1.713831,-1.4282 c 0.670393,0 1.766102,0.19968 2.094587,-0.57128 0.258783,-0.60668 -0.271926,-1.12227 0.476156,-1.57101 0.672962,-0.40387 1.574434,0.0189 2.2851,-0.38074 2.08515,-1.17311 0.04423,-3.47621 -0.856911,-4.6179 0.463583,0.23165 0.93203,0.59639 1.428188,0.7618 2.724124,0.90803 2.840077,-2.31138 3.713279,-3.9038 0.445596,-0.81238 1.275092,-1.0106 1.618717,-1.99949 0.349617,-1.00742 -0.150823,-2.30564 0.237924,-3.142 1.06,-2.28023 4.327125,-2.04573 5.76047,-3.71329 2.100847,-2.44448 0.710368,-5.844417 1.618401,-8.569113 0.739809,-2.21912 3.091756,-3.807838 3.332546,-6.284031 0.175951,-1.810653 -0.840342,-1.986322 -1.999474,-2.904073 -0.80036,-0.633549 -1.579566,-1.736681 -2.570723,-2.094587 -0.478447,-0.172801 -0.952043,0.103115 -1.428186,0.142827 -1.082288,0.09027 -1.829237,-0.432462 -2.856373,0 -0.04454,-1.697831 -2.060314,-2.649292 -3.427653,-1.713832 -0.114233,-1.057709 -0.813497,-1.132265 -1.28537,-1.999464 C 83.936783,80.251274 83.991059,78.06786 82.099277,77.148391 80.841903,76.537126 79.32974,76.919306 78.100355,76.05354 76.557338,74.966696 75.456488,72.840977 73.530156,72.435374 l 0.285639,-0.57128 v -0.285637 l -1.999465,0.856912 h -0.285633 l -4.284567,-1.999465 -1.713821,1.42819 0.285633,-1.713824 c -0.945174,0.199091 -3.042609,0.968598 -3.665583,1.713824 -0.50786,0.60726 -0.430171,1.896347 -1.475893,1.999465 -0.712376,0.0703 -1.233379,-0.820067 -1.999456,-0.809218 -0.791794,0.01089 -1.482465,0.610127 -2.2851,0.23794 -1.69041,-0.784074 -1.56301,-2.792968 -1.190259,-4.284565 0.13368,-0.53471 0.454166,-1.170543 0.19052,-1.713823 -0.666389,-1.373348 -3.178853,-0.856912 -4.427382,-0.856912 l 1.999466,-5.427119 c -0.872051,-0.160527 -1.770669,-0.511289 -2.570743,0.09514 -0.562986,0.427029 -0.550988,1.100276 -0.952024,1.61871 -0.510152,0.658681 -2.40478,1.391059 -3.237418,1.190249 -1.696686,-0.409603 -2.527319,-3.20114 -2.094579,-4.617903 0.353905,-1.158258 0.475018,-2.992909 0.999727,-3.998922 0.528149,-1.012013 3.201999,-2.756689 4.33227,-2.95149 0.769508,-0.132824 1.593854,0.46816 2.380213,0.380757 0.606984,-0.06743 0.903764,-0.481018 1.428188,-0.714094 1.083425,-0.481592 1.935771,-0.04004 2.856376,0.285633 0.79379,0.280782 1.368211,-0.195088 1.951762,0.714095 0.388752,0.605264 -0.01738,1.329645 0.04766,1.999465 0.09513,0.978588 0.642403,1.532156 1.428187,1.999457 l 0.571279,-2.856368 -0.142818,-2.570743 5.284294,-4.570199 2.332804,-3.951224 5.379407,-2.904077 c -0.173386,-2.19541 3.055179,-3.096025 4.855843,-3.427651 v 0.285638 l -0.856922,0.285643 v 0.571275 l 0.285643,0.285637 5.42711,-2.285101 -0.285634,-0.856912 h -0.571275 c -0.594128,0.814068 -2.582455,1.973471 -2.665857,0 -0.02741,-0.647255 0.673535,-1.442185 0.952033,-1.999462 l -3.713289,0.571274 3.142011,-1.951761 4.570201,-0.04772 2.856368,-1.142549 -3.142002,3.713287 2.856368,0.571276 0.856917,-0.285638 v 0.571274 l 1.42818,-0.571274 -0.28564,-1.999464 -1.285369,-0.856912 0.856915,-2.570738 -2.332801,-3.14201 -0.380755,-3.998925 c -0.770077,0.222882 -4.450797,3.300769 -4.141742,0.571274 0.03573,-0.315744 0.341907,-0.813581 0.428462,-1.14255 l -1.713824,-1.28537 -1.713832,0.0952 -1.618709,-0.0952 -1.094843,2.142282 -1.28537,1.142551 c 0.0663,0.280153 0.348766,0.865282 0.333339,1.142551 -0.120824,2.173929 -2.688705,1.688488 -3.618176,2.90399 -0.399317,0.522346 -0.248504,1.380886 -0.571269,1.951848 -0.342478,0.605952 -1.042865,0.997246 -1.571013,1.428187 l -0.571269,-1.713823 h 0.856912 V 27.019013 L 67.531732,26.59056 63.532801,25.019553 v -1.713825 h -0.571278 l 3.998932,-2.903991 6.569665,-3.380036 -1.713832,1.428189 0.285644,0.856913 1.999458,-0.61889 1.71383,0.333251 -1.999467,-2.570737 c 1.996325,0.36776 5.04179,-0.582273 4.570201,-3.142012 1.509307,0 3.750704,-0.270157 4.284564,1.428186 -0.98431,0 -1.669832,-0.162128 -1.999465,0.856913 l 2.856377,-0.856913 0.285644,0.856913 -2.856377,1.713826 -2.570743,0.856912 2.285099,-0.0952 1.237668,1.428186 3.332533,0.952117 -0.856912,-1.428189 1.999465,0.856913 0.856905,-1.142549 v -0.285638 l -1.142539,-1.713826 1.142539,-0.285637 c 0.576131,1.938279 2.177997,0.591899 3.427659,0 l -2.856377,-1.713818 c 1.57186,-1.990892 -0.567565,-2.118059 -1.999471,-2.999194 -0.475292,-0.292549 -0.654381,-0.872138 -1.142541,-1.142551 -0.578134,-0.320228 -1.374205,-0.08203 -1.999465,-0.142818 -1.781518,-0.173211 -2.665855,0.04754 -4.284564,0.856913 l 0.856912,-1.142552 c -1.798944,0.04734 -3.945794,0.837033 -3.998922,2.856376 l 1.71382,0.285639 -3.427644,2.2851 0.57127,-1.713826 h -1.142547 l 0.142816,-1.999463 3.570472,-1.713826 c -1.796946,-1.3068486 -3.500491,0.583331 -4.855843,1.618623 -0.95488,0.72949 -1.613275,0.904072 -1.999457,2.094666 m 114.54065,-2.570737 -0.85691,0.571274 0.85691,-0.571274 m -5.14147,1.142551 1.42818,1.52339 1.71383,-0.0952 v 0.285638 l -1.14255,0.285639 c 0.34763,1.320445 -0.0217,1.962473 -1.42818,1.999464 l 0.61896,-1.618623 -1.19024,-2.380304 m -63.98282,4.570201 c 1.18197,1.450725 2.92293,2.331288 4.85585,1.713825 0.64325,-0.205514 2.13486,-0.463504 1.95177,-1.428186 -0.13562,-0.716236 -1.13626,-0.593356 -1.66614,-0.571277 -0.77235,0.03219 -1.50358,0.361617 -2.2851,0.285638 -1.26452,-0.122936 -1.64783,-0.731518 -2.85638,0 m 33.99088,0 c -0.40017,1.2734 -1.79294,1.309792 -2.42791,2.332716 -0.58271,0.938833 -0.11481,2.716614 0.99972,2.999194 1.25566,0.318343 3.21685,-0.476071 4.5702,-0.476071 -0.3916,1.210017 -2.79439,1.047461 -3.99892,1.142549 l 0.85691,0.856913 -0.28565,1.142551 -1.42817,-0.38084 -1.14256,2.618325 -1.99946,-0.0952 -2.57073,0.999731 -0.28565,-0.856911 -1.71383,0.571274 0.85692,-1.428188 1.99947,0.571276 -0.57129,-0.856913 3.14201,-3.142015 v -0.57127 c -2.86806,-1.132152 -0.50671,-2.752717 0.85693,-3.808491 0.51643,-0.399779 0.57384,-1.145663 1.14256,-1.475803 0.52728,-0.306118 1.41274,-0.142818 1.99945,-0.142818 M 23.257906,21.68712 c 0.220907,0 0.04576,0.142191 -0.09522,0.09522 l 0.09522,-0.09522 M 129.2295,23.020121 c -0.563,0.400064 -1.12713,0.511805 -1.71383,0.856913 -2.74811,1.616567 0.99374,3.442504 1.14256,4.85584 h -1.14256 l 0.28563,0.856913 -0.8569,0.571274 1.14255,0.285638 v 0.285636 l -1.42819,1.14255 5.42712,-1.14255 0.28563,-1.713824 h -1.14254 c -0.11864,-1.125184 -0.91491,-2.515468 -1.99947,-2.856375 l 0.57129,-1.713827 h -1.14256 l 0.57127,-1.428188 m -4.85583,4.85584 -0.85693,-0.285638 0.28565,1.713826 -0.85692,0.285638 v 0.571274 c 2.4582,1.03515 3.48651,-1.194337 3.99893,-3.142012 -1.24653,-0.360818 -2.03574,-0.462677 -2.57073,0.856912 m 110.54173,-0.285638 -0.28565,0.285638 0.28565,-0.285638 m -158.528848,5.998372 -0.285646,0.285638 0.285646,-0.285638 m 85.119988,1.142551 -1.14254,2.285102 4.28456,2.570738 -1.14255,1.380485 -4.57021,-1.047149 -3.42764,0.809212 -2.28511,-0.856913 2.28511,-4.570201 1.71383,0.571276 c 0,1.592999 1.50501,1.053145 2.57074,0.856913 V 36.44507 h -0.85693 c 0.28936,-1.338783 1.28622,-1.612424 2.57074,-1.713824 m 11.71115,0.571274 c -0.10857,1.373917 -0.85864,1.459037 -1.99945,1.999464 v 0.285639 c 1.15482,0.668675 2.24823,1.451895 2.28508,2.856372 l 0.85693,-0.571274 h 0.28562 l 0.57127,1.428187 h -1.42818 l 1.71382,3.713294 c -2.32908,0.429023 -6.09378,-0.761513 -3.42764,-3.427654 -1.21254,-0.701812 -3.45279,-2.673568 -3.42766,-4.284564 0.014,-0.88862 2.29539,-2.451342 3.14202,-2.42792 0.43103,0.01204 0.99001,0.336194 1.42819,0.428456 m -31.70578,0.571276 2.85638,3.142013 1.95175,1.190252 0.47617,1.951762 1.42818,1.475888 1.57102,1.666124 1.14254,-1.428187 -1.42818,-2.2851 1.14255,0.571275 c 0.17281,-0.534142 0.62383,-1.242239 1.33307,-0.714094 0.81663,0.608123 0.5747,2.433631 1.33278,3.237134 0.43274,0.458733 1.81551,0.999728 2.42793,0.999728 0.32104,0 0.5447,-0.380756 0.90462,-0.380756 0.53928,0 0.9186,0.45302 1.42818,0.523573 0.79951,0.11111 1.71154,-0.501011 2.57072,-0.523573 0.29935,1.624994 -0.006,4.216581 -1.47588,5.331998 -0.53985,0.409318 -1.06857,0.144813 -1.66613,0.09514 -1.25137,-0.104261 -2.50561,0.475583 -3.71328,0.190522 -1.56302,-0.369045 -2.96692,-1.608708 -4.5702,-1.809231 -1.52416,-0.190522 -2.19512,1.235958 -1.99947,2.475621 -2.14799,0.39561 -3.62559,-1.416764 -5.42711,-2.142282 -0.9466,-0.381322 -2.11972,-0.235074 -2.71355,-1.333068 -0.565,-1.04429 0.97973,-2.796397 -0.99974,-3.427653 -1.06343,-0.339052 -2.45192,0.239076 -3.42764,0.523859 -1.29909,0.378761 -2.68613,-0.03458 -3.99894,0.475868 -0.6781,0.263933 -1.07571,0.888913 -1.71382,1.190261 -0.82235,0.388177 -2.30796,0.09853 -3.14201,-0.142819 0.20422,-1.94091 2.45476,-1.407344 3.66558,-2.618444 0.81064,-0.810354 0.85034,-1.954331 1.57102,-2.808673 0.52356,-0.620405 1.34819,-0.800071 1.85663,-1.428189 0.36962,-0.456449 0.2885,-1.090564 0.90461,-1.333071 0.68753,-0.270498 1.32223,0.245364 1.99949,0.04772 0.79206,-0.231081 1.38419,-1.042006 2.28508,-0.999731 0.86034,0.04027 1.35564,1.658126 1.99946,2.189983 0.95175,0.786075 2.35995,1.081138 3.09431,2.09458 0.76408,1.054288 0.0446,1.936052 -1.09483,1.999463 -0.47246,0.02627 -0.95489,0 -1.4282,0 l 2.28509,1.428189 1.33309,-1.999464 0.38075,-1.999463 1.14255,0.571275 c -0.96632,-1.537587 -3.29025,-1.847789 -4.47509,-3.42765 -0.76352,-1.018299 -0.90034,-1.86493 0.19052,-2.570739 m 94.83167,20.851541 c -0.93633,1.185968 -1.07342,2.126004 -0.28564,3.427653 h 0.28564 c 0.56328,-1.126553 0.86864,-2.421917 0,-3.427653 M 55.249366,60.724294 c 0.837204,-0.09568 1.215678,-0.98859 1.999465,-0.999737 0.707237,-0.0101 2.358511,0.758369 2.808675,1.28537 0.307919,0.360191 0.333336,0.999728 0.714092,1.285372 0.889476,0.667248 3.027757,0.227652 3.332533,-0.714093 -1.011152,-0.212799 -1.445611,-0.784934 -2.285099,-1.333077 -1.628988,-1.063423 -5.869565,-1.878351 -6.569666,0.476165 m 9.997322,1.713821 v 1.428189 h -1.42819 v 0.571279 l 2.285098,0.237928 3.142012,-0.809207 c -0.737515,-1.72069 -2.376791,-1.428199 -3.99892,-1.428199 m 160.813932,1.142557 c 1.17513,0.494724 1.73897,0.09544 1.99947,-1.142557 -1.08257,0 -1.67155,0.03945 -1.99947,1.142557 m 11.42552,-0.285645 -1.04744,3.713289 0.8095,1.333076 1.09483,1.523301 v -1.142545 l 2.57075,1.713824 v 0.571275 l -1.99946,-0.285642 1.14254,2.570744 1.14257,-0.285645 -0.57128,-1.428178 0.85689,-0.285646 0.5713,2.285102 c -1.4302,0.263357 -2.39821,0.360475 -2.57074,1.999466 h 0.28565 l 1.42818,-0.571279 c 0.0298,1.126268 0.32563,1.680409 1.42819,1.999466 l -0.28565,-1.142554 c 1.27909,-0.150525 0.6864,-1.006587 0.71409,-1.999457 0.0336,-1.199963 -0.33105,-1.023159 -0.85691,-1.999465 -0.5704,-1.059717 -0.15137,-2.35851 -1.85663,-1.999466 l 0.28563,-1.428187 c -0.67354,-0.195088 -1.74896,-0.190237 -2.14229,-0.856912 -0.88719,-1.503308 0.95689,-3.018329 -0.99972,-4.284567 M 65.532321,71.864149 v 1.142545 h -0.285633 l 0.285633,-1.142545 m 169.097429,3.427655 -5.14147,5.998388 -1.42819,-0.285645 0.52358,3.427654 0.61898,1.85664 1.71382,-0.04766 3.09433,0.381042 0.38101,-1.618709 0.85692,-1.142546 1.38051,-1.999463 -0.90463,-1.713824 1.04743,-2.570744 -2.14229,-2.285098 m -19.42334,1.999465 c 0.50273,1.417051 2.39907,2.499903 3.33253,3.713289 1.28594,1.672125 1.32564,4.156314 2.66585,5.712752 0.64269,0.746372 2.64045,3.004046 3.57049,1.428188 0.24507,-0.415603 0.10621,-0.976601 0.23792,-1.428188 0.14597,-0.499864 0.36732,-0.911474 0.47615,-1.428189 l -2.85636,-1.999466 0.57128,-0.85691 c -0.9946,-0.575842 -2.30652,-1.462461 -3.14204,-2.285099 -1.25423,-1.234811 -2.91007,-3.265981 -4.85582,-2.856377 m 21.99407,11.425497 c 1.36194,-0.600975 0.89006,-1.878065 0.85694,-3.142012 l 0.8569,0.285644 0.28564,2.2851 h 1.14256 l -0.85692,-3.713289 0.85692,-0.285642 v -0.571278 l -0.28566,-0.285634 -1.71383,0.571278 c -1.21194,-3.543045 3.66588,0.307918 3.99894,-2.856375 -0.77664,0.204514 -1.44047,0.641544 -2.28511,0.571277 -0.64268,-0.05369 -1.37303,-0.502157 -1.99944,-0.142816 -0.71868,0.412173 -0.47332,1.194241 -0.6664,1.856636 -0.54016,1.851501 -0.81322,3.606465 -0.19054,5.427111 m 9.99733,-5.141477 1.571,1.713832 0.52357,1.285373 3.90381,1.380483 1.14258,2.189978 -0.85694,0.856912 3.99894,0.856919 2.2851,-1.237667 1.71381,1.523301 2.85639,1.142554 c -0.3622,-1.21796 -1.6767,-1.683837 -2.2374,-2.856376 -0.31934,-0.66725 0.45588,-1.057434 0.0952,-1.666128 -0.32106,-0.541856 -1.05173,-0.519857 -1.47588,-0.952311 -1.55445,-1.585008 -4.17944,-3.700153 -6.6648,-3.665592 -1.10112,0.01537 -1.66696,1.709542 -2.57072,1.52331 -1.01689,-0.209377 -1.28824,-1.589576 -1.14256,-2.380222 l -3.14201,0.285634 m -22.851,5.998398 2.57074,1.094841 5.99839,1.190258 1.71381,-0.333338 1.14255,0.333338 5.99839,-0.285644 v 0.285644 l -1.42818,1.428188 3.14201,-2.570742 -2.57074,0.285635 -1.71382,-0.190514 -1.42821,0.476156 -2.85636,-0.571277 -3.42765,-0.285634 0.28564,-0.856911 c -0.83892,0 -1.79153,-0.619555 -2.52304,-0.523583 -0.55585,0.07289 -0.82349,0.587851 -1.47588,0.523583 -1.43592,-0.14168 -2.30369,-1.736969 -3.42765,0 m 17.70953,1.713822 -0.28565,0.285633 0.28565,-0.285633 m 14.85315,2.285101 -0.95205,4.284565 -1.33305,2.85637 c -1.06573,-0.39275 -3.51534,-1.896919 -3.761,-3.142014 -0.17681,-0.896611 1.08973,-1.901487 1.19026,-2.856378 l -1.99945,0.09513 -2.28511,-0.952022 0.28562,1.142545 -2.18996,1.142554 -0.95205,1.571006 -2.28509,-0.952034 -0.9046,1.047154 -2.52305,2.04716 v -0.571279 l -2.2851,3.046898 -5.71275,2.42792 -1.28538,0.80922 -0.23794,1.42818 -0.71407,2.33279 0.52356,5.09378 -1.42818,3.71329 c 2.03687,0.58956 2.72982,-0.32363 4.57019,-0.80922 0.9129,-0.24107 1.97575,0.21311 2.85638,-0.19051 2.57931,-1.18225 6.93986,-3.88438 9.37835,-0.71408 0.36646,0.47613 0.39473,1.18081 0.61897,1.71381 h 0.57127 l 1.71383,-1.71381 -1.14256,1.99945 1.14256,-0.57127 -1.71383,1.71383 0.28563,0.28563 1.4282,-1.14256 c 0.066,0.62642 -0.0968,1.40677 0.0952,1.99946 0.52415,1.61758 2.76612,1.66528 3.90382,0.85692 l 0.57127,1.14256 c 0.8132,-0.40674 1.47329,-1.08115 2.28509,-1.47589 0.56356,-0.27395 1.18967,-0.19139 1.71383,-0.57129 1.13911,-0.8255 1.91549,-2.33766 2.85638,-3.37995 2.14541,-2.37649 4.61903,-5.04637 4.57019,-8.56912 -0.0128,-0.86463 -0.70923,-1.53473 -1.04744,-2.2851 -0.30075,-0.66782 -0.77919,-1.09199 -1.09485,-1.71383 -0.22992,-0.45273 -0.0585,-0.97402 -0.28562,-1.42818 -0.38533,-0.77094 -1.20339,-1.19768 -1.57101,-1.99946 -0.49845,-1.08743 -0.24394,-2.379938 -0.66639,-3.427652 -0.26737,-0.662674 -1.05372,-0.711526 -1.28538,-1.428188 -0.34104,-1.054282 -0.0485,-2.037448 -0.90461,-2.856377 m -82.54925,1.71383 c -1.4979,0.433601 -1.74066,1.834364 -2.85638,2.761256 -0.99888,0.82978 -2.44676,0.871475 -2.76125,2.380221 -0.2071,0.99459 0.44902,2.09258 0.14281,3.142 -0.41903,1.43706 -1.9589,3.78241 -0.23792,5.04636 1.37704,1.01116 2.82808,-0.33762 3.23712,-1.6187 0.80405,-2.51675 1.15768,-5.25345 1.95205,-7.712218 0.14938,-0.463021 0.61211,-0.67953 0.7615,-1.142542 0.28163,-0.871486 0.003,-2.021178 -0.23793,-2.856377 M 276.9043,118.13747 c 0,2.03461 -0.0692,3.55418 -1.99948,4.57021 l 0.85692,0.57125 -1.14255,1.4282 c -1.28566,-1.23794 -2.28367,-0.0326 -3.42766,0.76179 -1.96461,1.36422 -4.4211,2.73414 -6.56965,3.8084 v 0.57129 c 2.16313,0.62612 3.16114,-0.79808 4.85585,-1.90435 0.51842,-0.33819 1.16597,-0.39245 1.66612,-0.76151 0.85833,-0.63326 1.64298,-1.573 2.61844,-2.04716 0.61952,-0.30106 1.35391,-0.16224 1.99945,-0.47616 0.95459,-0.46386 1.29509,-1.20997 2.04717,-1.80895 0.87919,-0.70008 1.49588,-0.70153 1.95175,-1.85663 l -1.42818,0.28563 -0.28563,-2.85637 -1.14255,-0.28564 m -26.84993,5.71274 -0.85693,3.14203 c 2.07174,0 2.8401,-1.1097 3.71331,-2.85638 z"
       id="path1460" />
  </g>
</svg>
