<?xml version="1.0" encoding="UTF-8" standalone="no"?>
<!-- Created with Inkscape (http://www.inkscape.org/) -->

<svg
   width="192"
   height="192"
   viewBox="0 0 50.799998 50.799996"
   version="1.1"
   id="SvgjsSvg1011"
   inkscape:version="1.1 (c68e22c387, 2021-05-23)"
   sodipodi:docname="favicon-rounded.svg"
   inkscape:export-filename="D:\Project\rakit.id\blog\static\favicon.png"
   inkscape:export-xdpi="24"
   inkscape:export-ydpi="24"
   xmlns:inkscape="http://www.inkscape.org/namespaces/inkscape"
   xmlns:sodipodi="http://sodipodi.sourceforge.net/DTD/sodipodi-0.dtd"
   xmlns="http://www.w3.org/2000/svg"
   xmlns:svg="http://www.w3.org/2000/svg">
  <sodipodi:namedview
     id="SvgjsSodipodi:namedview1010"
     pagecolor="#ffffff"
     bordercolor="#000000"
     borderopacity="1"
     inkscape:pageshadow="0"
     inkscape:pageopacity="0"
     inkscape:pagecheckerboard="true"
     inkscape:document-units="mm"
     showgrid="false"
     inkscape:zoom="2.8284271"
     inkscape:cx="91.923882"
     inkscape:cy="107.12668"
     inkscape:window-width="1920"
     inkscape:window-height="974"
     inkscape:window-x="-11"
     inkscape:window-y="-11"
     inkscape:window-maximized="1"
     inkscape:current-layer="layer1"
     showguides="true"
     inkscape:guide-bbox="true"
     fit-margin-top="0"
     fit-margin-left="0"
     fit-margin-right="0"
     fit-margin-bottom="0"
     units="px"
     inkscape:object-nodes="true"
     inkscape:snap-text-baseline="false"
     inkscape:object-paths="false"
     inkscape:snap-intersection-paths="false"
     inkscape:snap-midpoints="false"
     inkscape:snap-smooth-nodes="true"
     inkscape:snap-nodes="false" />
  <defs
     id="SvgjsDefs1009" />
  <g
     inkscape:groupmode="layer"
     id="SvgjsG1008"
     inkscape:label="back"
     style="display:none"
     sodipodi:insensitive="true">
    <circle
       style="opacity:1;fill:#1a1a1a;stroke:none;stroke-width:2.02586;stroke-linecap:round;stroke-linejoin:round;paint-order:markers stroke fill"
       id="path971"
       cx="25.4"
       cy="25.4"
       r="38.963928" />
  </g>
  <g
     inkscape:groupmode="layer"
     id="layer1"
     inkscape:label="back 2"
     style="display:inline">
    <path
       style="color:#000000;fill:#1a1a1a;stroke-width:0.170336;stroke-linecap:round;stroke-linejoin:round;-inkscape-stroke:none;paint-order:markers stroke fill"
       d="M 3.0383788,1.8444427 50.8,0 46.564205,49.488607 0,50.8 Z"
       id="SvgjsPath1007" />
  </g>
  <g
     inkscape:label="Layer 1"
     inkscape:groupmode="layer"
     id="SvgjsG1006"
     transform="translate(-56.660919,-167.60083)">
    <path
       style="color:#000000;-inkscape-font-specification:'Jaya Baru, Normal';fill:#ffffff;stroke-width:0.446218;-inkscape-stroke:none"
       d="m 76.57981,184.15505 c 1.262282,-0.41013 2.427463,-1.09914 3.243091,-1.96858 2.582819,-2.75601 0.835044,-6.25023 -2.563402,-7.33293 -3.486658,-0.91143 -6.807008,-0.53337 -10.098244,-0.53337 -0.03882,5.4464 -0.09709,10.70432 0,15.93744 l 3.650903,-0.13127 c 0,-1.8045 -0.01944,-3.26452 -0.01944,-4.74097 0.563172,-0.0327 1.223443,-0.0493 1.98081,-0.21324 2.116746,2.1162 4.000458,3.78948 6.38908,5.34795 l 2.175007,-2.52635 c -1.747774,-1.19755 -3.340188,-2.39509 -4.757826,-3.83869 z m -1.553576,-2.78882 c -1.320538,0.55774 -2.796437,0.82024 -4.155816,0.93509 0.03882,-1.68972 0.135943,-3.33019 0.174778,-4.72461 1.514736,-0.4101 5.16564,-0.47572 6.039526,0.91868 0.582591,0.90226 -0.349554,2.13262 -2.058488,2.87084 z"
       id="SvgjsPath1005" />
    <path
       style="color:#000000;-inkscape-font-specification:'Jaya Baru, Normal';fill:#ffffff;stroke-width:0.474268;-inkscape-stroke:none"
       d="m 96.240324,176.0046 c -1.279707,-1.39489 -3.3231,-2.00513 -5.222015,-1.67388 -3.302459,0.50566 -5.366498,2.91181 -6.295316,5.35286 -1.486105,4.01026 -1.093939,7.70667 -0.268321,11.5077 l 3.818467,-0.78462 c -0.330244,-1.08103 -0.495369,-2.16206 -0.536649,-3.27793 2.31172,0.57538 4.602803,0.55794 6.790681,0.17434 0,1.02873 -0.185764,2.10976 -0.309605,3.27797 l 3.839118,0.13951 c 0.330253,-1.81335 0.433449,-3.67898 0.474734,-5.50977 0,-1.62153 -0.04132,-3.57436 -0.557295,-5.75385 -0.412811,-1.23796 -0.804988,-2.45847 -1.733799,-3.4523 z m -8.462554,7.58463 c 0.123831,-0.94155 0.330244,-1.91797 0.660491,-2.87691 0.454091,-1.02874 1.05266,-1.98773 1.898914,-2.58054 1.279704,-0.85435 2.559405,-0.74973 3.24054,0.47077 0.866895,1.62153 0.970098,3.52207 1.052659,5.21333 -2.18788,0.68001 -4.767925,0.73234 -6.852604,-0.22665 z"
       id="SvgjsPath1004" />
    <path
       style="color:#000000;-inkscape-font-specification:'Jaya Baru, Normal';fill:#ffffff;stroke-width:0.467281;-inkscape-stroke:none"
       d="m 79.554467,195.15596 -2.481026,-2.28482 c -2.847079,2.11303 -5.836512,3.91683 -8.541239,5.8924 l -0.02034,-5.94393 h -3.843557 l 0.122023,16.76675 h 3.843557 l -0.06101,-6.52805 c 2.765734,2.06149 5.592477,3.7966 8.805611,4.94757 l 1.647237,-2.69712 c -3.213132,-1.44303 -5.470459,-2.73145 -7.768458,-4.41501 2.562372,-1.90687 5.653485,-3.8481 8.297202,-5.73779 z"
       id="SvgjsPath1003" />
    <path
       style="color:#000000;-inkscape-font-specification:'Jaya Baru, Normal';fill:#ffffff;stroke-width:0.469873;-inkscape-stroke:none"
       d="m 81.20884,197.20988 0.162692,15.89369 h 3.823222 l -0.122025,-15.89369 z"
       id="SvgjsPath1002" />
    <path
       style="color:#000000;-inkscape-font-specification:'Jaya Baru, Normal';fill:#ffffff;stroke-width:0.467281;-inkscape-stroke:none"
       d="m 87.552228,192.99854 v 3.24684 c 2.013293,-0.0687 3.436832,-0.0517 4.860371,-0.10295 l -0.101691,13.69171 h 3.843565 l 0.08132,-13.74324 c 1.504887,0 2.684397,0.12028 4.087557,0.24049 l 0.58973,-3.22964 c -5.185698,0 -8.968247,-0.10295 -13.360883,-0.10295 z"
       id="SvgjsPath1001" />
    <g
       id="SvgjsPath1000"
       inkscape:transform-center-x="0.46717972"
       inkscape:transform-center-y="-0.25283864"
       transform="matrix(1.0271414,0,0,1.0271414,-2.417888,-5.1117321)">
      <path
         style="color:#000000;fill:#1a1a1a;fill-opacity:1;stroke-linecap:round;stroke-linejoin:round;-inkscape-stroke:none;paint-order:markers stroke fill"
         d="m 80.974609,184.57617 a 1.4630712,1.4630712 0 0 0 -1.11914,1.06445 l -1.017578,3.92188 -3.808594,1.38281 a 1.4630712,1.4630712 0 0 0 -0.28711,2.60742 l 3.414063,2.18164 0.138672,4.04883 a 1.4630712,1.4630712 0 0 0 2.390625,1.07813 l 3.128906,-2.57227 3.894531,1.11914 a 1.4630712,1.4630712 0 0 0 1.765625,-1.9414 l -1.480468,-3.76953 2.267578,-3.35743 a 1.4630712,1.4630712 0 0 0 -1.300782,-2.27929 l -4.042968,0.24218 -2.492188,-3.19336 a 1.4630712,1.4630712 0 0 0 -1.451172,-0.5332 z m 0.966797,4.66992 1.142578,1.46289 a 1.4630712,1.4630712 0 0 0 1.240235,0.56055 l 1.853515,-0.11133 -1.039062,1.53907 a 1.4630712,1.4630712 0 0 0 -0.148438,1.35351 l 0.677735,1.72656 -1.785157,-0.51172 a 1.4630712,1.4630712 0 0 0 -1.332031,0.2754 l -1.433594,1.17968 -0.06445,-1.85547 a 1.4630712,1.4630712 0 0 0 -0.673828,-1.18359 l -1.564453,-0.99805 1.744141,-0.63476 a 1.4630712,1.4630712 0 0 0 0.916015,-1.00586 z"
         id="path1140" />
      <path
         style="color:#000000;fill:#ffffff;stroke-width:2.92585;stroke-linecap:round;stroke-linejoin:round;-inkscape-stroke:none;paint-order:markers stroke fill"
         d="m 88.1122,198.00199 -4.632532,-1.33123 -3.722902,3.06148 -0.165432,-4.8172 -4.062072,-2.59461 4.530286,-1.64597 1.212396,-4.66506 2.965321,3.79997 4.81138,-0.28849 -2.697618,3.99446 z"
         id="path1142" />
    </g>
  </g>
</svg>
