<svg xmlns="http://www.w3.org/2000/svg" version="1.1" xmlns:xlink="http://www.w3.org/1999/xlink" xmlns:svgjs="http://svgjs.com/svgjs" width="192" height="192"><svg width="192" height="192" viewBox="0 0 50.799998 50.799996" version="1.1" id="SvgjsSvg1011" inkscape:version="1.1 (c68e22c387, 2021-05-23)" sodipodi:docname="favicon.svg" inkscape:export-filename="D:\Project\rakit.id\Design\rakit-id-logo-1.png" inkscape:export-xdpi="465" inkscape:export-ydpi="465" xmlns:inkscape="http://www.inkscape.org/namespaces/inkscape" xmlns:sodipodi="http://sodipodi.sourceforge.net/DTD/sodipodi-0.dtd" xmlns="http://www.w3.org/2000/svg" xmlns:svg="http://www.w3.org/2000/svg">
  <sodipodi:namedview id="SvgjsSodipodi:namedview1010" pagecolor="#ffffff" bordercolor="#000000" borderopacity="1" inkscape:pageshadow="0" inkscape:pageopacity="0" inkscape:pagecheckerboard="true" inkscape:document-units="mm" showgrid="false" inkscape:zoom="2" inkscape:cx="18.5" inkscape:cy="78.5" inkscape:window-width="1920" inkscape:window-height="974" inkscape:window-x="-11" inkscape:window-y="-11" inkscape:window-maximized="1" inkscape:current-layer="layer1" showguides="true" inkscape:guide-bbox="true" fit-margin-top="0" fit-margin-left="0" fit-margin-right="0" fit-margin-bottom="0" units="px" inkscape:object-nodes="true" inkscape:snap-text-baseline="false" inkscape:object-paths="false" inkscape:snap-intersection-paths="false" inkscape:snap-midpoints="false" inkscape:snap-smooth-nodes="true" inkscape:snap-nodes="false"></sodipodi:namedview>
  <defs id="SvgjsDefs1009"></defs>
  <g inkscape:groupmode="layer" id="SvgjsG1008" inkscape:label="back">
    <path id="SvgjsPath1007" style="fill:#1a1a1a;stroke-width:0.171606;stroke-linecap:round;stroke-linejoin:round;paint-order:markers stroke fill" d="M 3.094752,1.85209 51.587551,0.00827 47.286911,49.48017 0.009859,50.79112 Z" sodipodi:nodetypes="ccccc"></path>
  </g>
  <g inkscape:label="Layer 1" inkscape:groupmode="layer" id="SvgjsG1006" transform="translate(-56.660919,-167.60083)">
    <path d="m 76.580199,185.02908 c 1.266129,-0.41138 2.434863,-1.10249 3.252976,-1.97458 2.590693,-2.76441 0.837591,-6.26928 -2.571215,-7.35529 -2.064764,-0.67464 -4.168484,-0.75692 -6.17481,-0.49365 0,0 0,0 0,0 h -3.700992 c -0.03895,5.463 -0.35062,10.6956 -0.253226,15.94468 l 3.662033,-0.13166 c 0,-1.81 -0.01949,-3.27448 -0.01949,-4.75543 0.564889,-0.0328 1.227172,-0.0495 1.986849,-0.21389 2.123199,2.12265 4.012652,3.80103 6.408556,5.36425 l 2.181637,-2.53405 c -1.753101,-1.2012 -3.35037,-2.4024 -4.77233,-3.8504 z m -1.558312,-2.79732 c -1.324564,0.55944 -2.804962,0.82274 -4.168485,0.93793 0.03895,-1.69486 0.136358,-3.34033 0.175311,-4.73901 1.519353,-0.41135 5.181387,-0.47717 6.057937,0.92149 0.584367,0.90501 -0.35062,2.13912 -2.064763,2.87959 z" style="font-size:11.6537px;line-height:1.25;font-family:'Jaya Baru';-inkscape-font-specification:'Jaya Baru, Normal';letter-spacing:-0.212402px;fill:#ffffff;stroke-width:0.447579" id="SvgjsPath1005"></path>
    <path d="m 96.036062,174.80696 c -1.283608,-1.39913 -3.333231,-2.01124 -5.237934,-1.67897 -3.312527,0.5072 -5.382857,2.92068 -6.314506,5.36917 -1.490636,4.02249 -1.097274,7.73017 -0.269141,11.54279 l 3.830109,-0.78702 c -0.331252,-1.08432 -0.496879,-2.16865 -0.538285,-3.28792 2.318767,0.57713 4.616834,0.55964 6.811382,0.17487 0,1.03186 -0.186332,2.11619 -0.31055,3.28797 l 3.850818,0.13992 c 0.331257,-1.81887 0.43477,-3.69019 0.476177,-5.52656 0,-1.62647 -0.04145,-3.58526 -0.558992,-5.77139 -0.414063,-1.24173 -0.807435,-2.46596 -1.739078,-3.46283 z m -8.488351,7.60776 c 0.124208,-0.94441 0.331251,-1.92381 0.662504,-2.88568 0.455475,-1.03188 1.055868,-1.99379 1.904703,-2.58841 1.283605,-0.85696 2.567208,-0.75203 3.250418,0.47221 0.869538,1.62647 0.973054,3.5328 1.055868,5.22923 -2.194549,0.68207 -4.78246,0.73455 -6.873493,-0.22735 z" style="font-size:11.6537px;line-height:1.25;font-family:'Jaya Baru';-inkscape-font-specification:'Jaya Baru, Normal';letter-spacing:-0.212402px;fill:#ffffff;stroke-width:0.475713" id="SvgjsPath1004"></path>
    <path d="m 80.382025,195.10211 -2.48859,-2.29179 c -2.855758,2.11948 -5.854304,3.92877 -8.567275,5.91037 l -0.0204,-5.96206 h -3.855273 l 0.122396,16.81787 h 3.855273 l -0.0612,-6.54795 c 2.774165,2.06778 5.609526,3.80817 8.832454,4.96266 l 1.652259,-2.70534 c -3.222927,-1.44743 -5.487135,-2.73978 -7.79214,-4.42848 2.570183,-1.91268 5.67072,-3.85983 8.322496,-5.75528 z" style="font-size:11.6537px;line-height:1.25;font-family:'Jaya Baru';-inkscape-font-specification:'Jaya Baru, Normal';letter-spacing:-0.212402px;fill:#ffffff;stroke-width:0.468705" id="SvgjsPath1003"></path>
    <path d="m 81.270388,196.80145 0.163187,15.0067 h 3.834877 l -0.122396,-15.0067 z" style="font-size:11.6537px;line-height:1.25;font-family:'Jaya Baru';-inkscape-font-specification:'Jaya Baru, Normal';letter-spacing:-0.212402px;fill:#ffffff;stroke-width:0.457269" id="SvgjsPath1002"></path>
    <path d="m 86.471839,192.62077 v 3.25674 c 2.019429,-0.0689 3.447309,-0.0518 4.875188,-0.10328 l -0.101996,13.73346 h 3.855281 l 0.08157,-13.78514 c 1.509475,0 2.692581,0.12065 4.100062,0.24123 l 0.591544,-3.23949 c -5.201567,0 -8.995646,-0.10329 -13.401673,-0.10329 z" style="font-size:11.6537px;line-height:1.25;font-family:'Jaya Baru';-inkscape-font-specification:'Jaya Baru, Normal';letter-spacing:-0.212402px;fill:#ffffff;stroke-width:0.468705" id="SvgjsPath1001"></path>
    <path id="SvgjsPath1000" style="fill:#ffffff;stroke:none;stroke-width:0.197092;stroke-linecap:round;stroke-linejoin:round;paint-order:markers stroke fill" inkscape:transform-center-x="0.25340828" inkscape:transform-center-y="-0.13714028" d="m 85.867082,195.30949 -2.581008,-0.74169 -2.074211,1.7057 -0.09217,-2.68389 -2.263177,-1.44559 2.524042,-0.91705 0.675484,-2.59913 1.652125,2.11714 2.680654,-0.16072 -1.502974,2.2255 z"></path>
  </g>
</svg><style>@media (prefers-color-scheme: light) { :root { filter: none; } }
@media (prefers-color-scheme: dark) { :root { filter: invert(100%); } }
</style></svg>