<?xml version="1.0" encoding="UTF-8" standalone="no"?>
<!-- Created with Inkscape (http://www.inkscape.org/) -->

<svg
   width="192"
   height="192"
   viewBox="0 0 50.799998 50.799996"
   version="1.1"
   id="SvgjsSvg1011"
   inkscape:version="1.1 (c68e22c387, 2021-05-23)"
   sodipodi:docname="favicon.svg"
   inkscape:export-filename="D:\Project\rakit.id\blog\static\favicon.png"
   inkscape:export-xdpi="24"
   inkscape:export-ydpi="24"
   xmlns:inkscape="http://www.inkscape.org/namespaces/inkscape"
   xmlns:sodipodi="http://sodipodi.sourceforge.net/DTD/sodipodi-0.dtd"
   xmlns="http://www.w3.org/2000/svg"
   xmlns:svg="http://www.w3.org/2000/svg">
  <sodipodi:namedview
     id="SvgjsSodipodi:namedview1010"
     pagecolor="#ffffff"
     bordercolor="#000000"
     borderopacity="1"
     inkscape:pageshadow="0"
     inkscape:pageopacity="0"
     inkscape:pagecheckerboard="true"
     inkscape:document-units="mm"
     showgrid="false"
     inkscape:zoom="1.4142136"
     inkscape:cx="94.752306"
     inkscape:cy="67.175142"
     inkscape:window-width="1920"
     inkscape:window-height="1046"
     inkscape:window-x="-11"
     inkscape:window-y="-11"
     inkscape:window-maximized="1"
     inkscape:current-layer="SvgjsG1008"
     showguides="true"
     inkscape:guide-bbox="true"
     fit-margin-top="0"
     fit-margin-left="0"
     fit-margin-right="0"
     fit-margin-bottom="0"
     units="px"
     inkscape:object-nodes="true"
     inkscape:snap-text-baseline="false"
     inkscape:object-paths="false"
     inkscape:snap-intersection-paths="false"
     inkscape:snap-midpoints="false"
     inkscape:snap-smooth-nodes="true"
     inkscape:snap-nodes="false" />
  <defs
     id="SvgjsDefs1009" />
  <g
     inkscape:groupmode="layer"
     id="SvgjsG1008"
     inkscape:label="back"
     style="display:inline">
    <rect
       style="fill:#000000;stroke:none;stroke-width:0.39254;stroke-linecap:square;stroke-dasharray:0.39254, 1.17764;paint-order:stroke fill markers;stop-color:#000000"
       id="rect1139"
       width="45.381271"
       height="45.380756"
       x="2.7096059"
       y="2.7096207"
       rx="9.5512705"
       ry="9.5512705" />
  </g>
  <g
     inkscape:groupmode="layer"
     id="layer1"
     inkscape:label="back 2"
     style="display:none"
     sodipodi:insensitive="true">
    <path
       style="color:#000000;fill:#1a1a1a;stroke-width:0.171606;stroke-linecap:round;stroke-linejoin:round;-inkscape-stroke:none;paint-order:markers stroke fill"
       d="M 3.094752,1.85209 51.587551,0.00827 47.286911,49.48017 0.009859,50.79112 Z"
       id="SvgjsPath1007" />
  </g>
  <g
     inkscape:label="Layer 1"
     inkscape:groupmode="layer"
     id="SvgjsG1006"
     transform="translate(-56.660919,-167.60083)">
    <g
       id="SvgjsPath1000"
       inkscape:transform-center-x="0.9612126"
       inkscape:transform-center-y="-0.52020948"
       transform="matrix(2.1133412,0,0,2.1133412,-92.544047,-214.94595)"
       style="stroke:none">
      <path
         style="color:#000000;fill:#1a1a1a;fill-opacity:1;stroke:none;stroke-linecap:round;stroke-linejoin:round;-inkscape-stroke:none;paint-order:markers stroke fill"
         d="m 80.974609,184.57617 a 1.4630712,1.4630712 0 0 0 -1.11914,1.06445 l -1.017578,3.92188 -3.808594,1.38281 a 1.4630712,1.4630712 0 0 0 -0.28711,2.60742 l 3.414063,2.18164 0.138672,4.04883 a 1.4630712,1.4630712 0 0 0 2.390625,1.07813 l 3.128906,-2.57227 3.894531,1.11914 a 1.4630712,1.4630712 0 0 0 1.765625,-1.9414 l -1.480468,-3.76953 2.267578,-3.35743 a 1.4630712,1.4630712 0 0 0 -1.300782,-2.27929 l -4.042968,0.24218 -2.492188,-3.19336 a 1.4630712,1.4630712 0 0 0 -1.451172,-0.5332 z m 0.966797,4.66992 1.142578,1.46289 a 1.4630712,1.4630712 0 0 0 1.240235,0.56055 l 1.853515,-0.11133 -1.039062,1.53907 a 1.4630712,1.4630712 0 0 0 -0.148438,1.35351 l 0.677735,1.72656 -1.785157,-0.51172 a 1.4630712,1.4630712 0 0 0 -1.332031,0.2754 l -1.433594,1.17968 -0.06445,-1.85547 a 1.4630712,1.4630712 0 0 0 -0.673828,-1.18359 l -1.564453,-0.99805 1.744141,-0.63476 a 1.4630712,1.4630712 0 0 0 0.916015,-1.00586 z"
         id="path1140" />
      <path
         style="color:#000000;fill:#ffffff;stroke:none;stroke-width:2.92585;stroke-linecap:round;stroke-linejoin:round;-inkscape-stroke:none;paint-order:markers stroke fill"
         d="m 88.1122,198.00199 -4.632532,-1.33123 -3.722902,3.06148 -0.165432,-4.8172 -4.062072,-2.59461 4.530286,-1.64597 1.212396,-4.66506 2.965321,3.79997 4.81138,-0.28849 -2.697618,3.99446 z"
         id="path1142" />
    </g>
  </g>
</svg>
