<svg id="Layer_1" data-name="Layer 1" xmlns="http://www.w3.org/2000/svg" viewBox="0 0 1280 1192.27"><defs><style>.cls-1{fill:#f15b22;}.cls-2{fill:#da1f26;}.cls-3{fill:#f8991d;}</style></defs><path class="cls-1" d="M.19,1078.87S234.85,581.19,458.53,454.8c185.65-104.91,337.39,5.94,337.39,5.94L557.31,0S374.55,265.24,263.14,461.72-6.16,964.24.19,1078.87Z"/><path class="cls-2" d="M632.17,29.35s331.61,454.4,316.38,723.48c-11.68,206.13-194,280.76-194,280.76L1280,1083.21S1155.79,786,1050.82,586,732,86,632.17,29.35Z"/><path class="cls-3" d="M1206,1129.59s-524.34,29.46-746.88-112.23C278.75,902.52,297.43,725.83,297.43,725.83L9.87,1159.18S330.5,1190,556.36,1191.89,1108.9,1190.84,1206,1129.59Z"/></svg>