<?xml version="1.0" encoding="UTF-8" standalone="no"?>
<!-- Created with Inkscape (http://www.inkscape.org/) -->

<svg
   width="225"
   height="66"
   viewBox="0 0 59.531247 17.462499"
   version="1.1"
   id="svg5"
   inkscape:version="1.1 (c68e22c387, 2021-05-23)"
   sodipodi:docname="rakit-id-logo.svg"
   inkscape:export-filename="D:\Project\rakit.id\blog\public\rakit-id-logo.png"
   inkscape:export-xdpi="96"
   inkscape:export-ydpi="96"
   xmlns:inkscape="http://www.inkscape.org/namespaces/inkscape"
   xmlns:sodipodi="http://sodipodi.sourceforge.net/DTD/sodipodi-0.dtd"
   xmlns:xlink="http://www.w3.org/1999/xlink"
   xmlns="http://www.w3.org/2000/svg"
   xmlns:svg="http://www.w3.org/2000/svg">
  <sodipodi:namedview
     id="namedview7"
     pagecolor="#000000"
     bordercolor="#999999"
     borderopacity="1"
     inkscape:pageshadow="0"
     inkscape:pageopacity="0"
     inkscape:pagecheckerboard="0"
     inkscape:document-units="mm"
     showgrid="false"
     inkscape:zoom="3.6203867"
     inkscape:cx="103.16577"
     inkscape:cy="65.46262"
     inkscape:window-width="1920"
     inkscape:window-height="974"
     inkscape:window-x="-11"
     inkscape:window-y="-11"
     inkscape:window-maximized="1"
     inkscape:current-layer="g22069"
     showguides="true"
     inkscape:guide-bbox="true"
     fit-margin-top="0"
     fit-margin-left="0"
     fit-margin-right="0"
     fit-margin-bottom="0"
     units="px"
     inkscape:object-nodes="true"
     inkscape:snap-text-baseline="false"
     inkscape:object-paths="false"
     inkscape:snap-intersection-paths="true"
     inkscape:snap-midpoints="false"
     inkscape:snap-smooth-nodes="true" />
  <defs
     id="defs2">
    <linearGradient
       inkscape:collect="always"
       id="linearGradient28453">
      <stop
         style="stop-color:#00da79;stop-opacity:1"
         offset="0"
         id="stop28449" />
      <stop
         style="stop-color:#007cff;stop-opacity:1"
         offset="1"
         id="stop28451" />
    </linearGradient>
    <linearGradient
       inkscape:collect="always"
       xlink:href="#linearGradient28453"
       id="linearGradient22049"
       gradientUnits="userSpaceOnUse"
       gradientTransform="matrix(1.7821287,0,0,1.6368078,-111.85662,-85.202417)"
       x1="94.552063"
       y1="135.08257"
       x2="137.50021"
       y2="135.08257" />
    <linearGradient
       inkscape:collect="always"
       xlink:href="#linearGradient28453"
       id="linearGradient22051"
       gradientUnits="userSpaceOnUse"
       gradientTransform="matrix(1.7821287,0,0,1.6368078,-112.69706,-85.202417)"
       x1="94.552063"
       y1="135.08257"
       x2="137.50021"
       y2="135.08257" />
    <linearGradient
       inkscape:collect="always"
       xlink:href="#linearGradient28453"
       id="linearGradient22053"
       gradientUnits="userSpaceOnUse"
       gradientTransform="matrix(1.7821287,0,0,1.6368078,-113.30027,-85.202417)"
       x1="94.552063"
       y1="135.08257"
       x2="137.50021"
       y2="135.08257" />
    <linearGradient
       inkscape:collect="always"
       xlink:href="#linearGradient28453"
       id="linearGradient22055"
       gradientUnits="userSpaceOnUse"
       gradientTransform="matrix(1.7821287,0,0,1.6368078,-113.88585,-85.202417)"
       x1="94.552063"
       y1="135.08257"
       x2="137.50021"
       y2="135.08257" />
    <linearGradient
       inkscape:collect="always"
       xlink:href="#linearGradient28453"
       id="linearGradient22057"
       gradientUnits="userSpaceOnUse"
       gradientTransform="matrix(1.7821287,0,0,1.6368078,-114.39823,-85.202417)"
       x1="94.552063"
       y1="135.08257"
       x2="137.50021"
       y2="135.08257" />
  </defs>
  <g
     inkscape:label="Layer 1"
     inkscape:groupmode="layer"
     id="layer1"
     transform="translate(-56.660919,-167.60083)">
    <g
       id="g22069"
       transform="translate(-0.74722843,40.945348)">
      <g
         id="g858"
         transform="matrix(0.99218868,0,0,1,0.44844932,-1.9905987e-7)">
        <path
           d="m 66.573774,137.39673 c 1.225951,-0.43307 2.357598,-1.16063 3.14975,-2.07874 2.508485,-2.91023 0.811014,-6.59999 -2.489623,-7.7433 -1.999243,-0.71023 -4.036208,-0.79684 -5.978868,-0.51968 0,0 0,0 0,0 h -3.583548 c -0.03772,5.75118 -0.339495,11.25982 -0.245191,16.7858 l 3.545828,-0.13858 c 0,-1.90551 -0.01886,-3.44723 -0.01886,-5.00629 0.546963,-0.0346 1.18823,-0.052 1.9238,-0.2252 2.055826,2.23464 3.885322,4.00157 6.205198,5.64724 l 2.112407,-2.66772 c -1.69747,-1.26456 -3.244054,-2.52912 -4.620892,-4.05353 z m -1.508862,-2.94488 c -1.282535,0.58897 -2.715954,0.86614 -4.036208,0.9874 0.03772,-1.78425 0.132025,-3.51653 0.169746,-4.98897 1.471141,-0.43307 5.016969,-0.50236 5.865705,0.97008 0.565823,0.95275 -0.339495,2.25197 -1.999243,3.03149 z"
           style="font-size:18.061px;line-height:1.25;font-family:'Jaya Baru';-inkscape-font-specification:'Jaya Baru, Normal';fill:url(#linearGradient22049);stroke-width:0.451886"
           id="path22020" />
        <path
           d="m 82.972087,128.40619 c -1.169368,-1.38582 -3.036586,-1.99212 -4.771777,-1.66298 -3.017725,0.50235 -4.903803,2.8929 -5.752538,5.31809 -1.357976,3.98425 -0.999622,7.65668 -0.24519,11.43305 l 3.489244,-0.77952 c -0.301772,-1.07401 -0.452658,-2.14803 -0.490381,-3.25669 2.112408,0.57165 4.205954,0.55433 6.205197,0.17323 0,1.02205 -0.169747,2.09606 -0.282912,3.25669 l 3.508107,0.13858 c 0.301773,-1.80157 0.396076,-3.65512 0.433798,-5.47401 0,-1.61101 -0.03772,-3.55118 -0.509241,-5.71652 -0.377216,-1.22992 -0.735571,-2.44252 -1.584307,-3.42992 z m -7.732919,7.53543 c 0.113164,-0.93544 0.301772,-1.90551 0.603544,-2.85827 0.414938,-1.02205 0.9619,-1.9748 1.735192,-2.56378 1.169368,-0.84882 2.338737,-0.74488 2.961142,0.46772 0.792153,1.61102 0.886457,3.4992 0.9619,5.17952 -1.999243,0.67559 -4.35684,0.72756 -6.261778,-0.22519 z"
           style="font-size:18.061px;line-height:1.25;font-family:'Jaya Baru';-inkscape-font-specification:'Jaya Baru, Normal';fill:url(#linearGradient22051);stroke-width:0.451886"
           id="path22022" />
        <path
           d="m 99.796213,129.20304 -2.301014,-2.30394 c -2.640509,2.13071 -5.413043,3.9496 -7.921528,5.94173 l -0.01886,-5.99369 h -3.564688 l 0.113165,16.90706 h 3.564689 l -0.05658,-6.58267 c 2.565065,2.07874 5.186713,3.82834 8.166717,4.98897 l 1.527719,-2.71968 c -2.979999,-1.45512 -5.073545,-2.75433 -7.204813,-4.45196 2.376457,-1.92283 5.243296,-3.88031 7.695193,-5.78582 z"
           style="font-size:18.061px;line-height:1.25;font-family:'Jaya Baru';-inkscape-font-specification:'Jaya Baru, Normal';fill:url(#linearGradient22053);stroke-width:0.451886"
           id="path22024" />
        <path
           d="m 100.54972,127.48808 0.15088,15.85037 h 3.54584 l -0.11318,-15.85037 z"
           style="font-size:18.061px;line-height:1.25;font-family:'Jaya Baru';-inkscape-font-specification:'Jaya Baru, Normal';fill:url(#linearGradient22055);stroke-width:0.451886"
           id="path22026" />
        <path
           d="m 105.01657,126.70855 v 3.27401 c 1.86722,-0.0692 3.18747,-0.052 4.50773,-0.10393 L 109.43,143.6849 h 3.56468 l 0.0754,-13.85824 c 1.39571,0 2.48964,0.12126 3.79103,0.24252 l 0.54695,-3.25669 c -4.80949,0 -8.3176,-0.10394 -12.39152,-0.10394 z"
           style="font-size:18.061px;line-height:1.25;font-family:'Jaya Baru';-inkscape-font-specification:'Jaya Baru, Normal';fill:url(#linearGradient22057);stroke-width:0.451886"
           id="path22028" />
      </g>
    </g>
  </g>
</svg>
