<?xml version="1.0" encoding="UTF-8" standalone="no"?>
<!-- Created with Inkscape (http://www.inkscape.org/) -->

<svg
   width="105"
   height="42"
   viewBox="0 0 27.781249 11.1125"
   version="1.1"
   id="svg5"
   inkscape:version="1.1 (c68e22c387, 2021-05-23)"
   sodipodi:docname="rakit-logo-noback-black.svg"
   inkscape:export-filename="D:\Project\rakit.id\blog\static\rakit-id-logo.png"
   inkscape:export-xdpi="465"
   inkscape:export-ydpi="465"
   xmlns:inkscape="http://www.inkscape.org/namespaces/inkscape"
   xmlns:sodipodi="http://sodipodi.sourceforge.net/DTD/sodipodi-0.dtd"
   xmlns="http://www.w3.org/2000/svg"
   xmlns:svg="http://www.w3.org/2000/svg">
  <sodipodi:namedview
     id="namedview7"
     pagecolor="#ffffff"
     bordercolor="#000000"
     borderopacity="1"
     inkscape:pageshadow="0"
     inkscape:pageopacity="0"
     inkscape:pagecheckerboard="true"
     inkscape:document-units="mm"
     showgrid="false"
     inkscape:zoom="5.6568544"
     inkscape:cx="38.537319"
     inkscape:cy="39.951532"
     inkscape:window-width="1920"
     inkscape:window-height="974"
     inkscape:window-x="-11"
     inkscape:window-y="-11"
     inkscape:window-maximized="1"
     inkscape:current-layer="g846"
     showguides="true"
     inkscape:guide-bbox="true"
     fit-margin-top="0"
     fit-margin-left="0"
     fit-margin-right="0"
     fit-margin-bottom="0"
     units="px"
     inkscape:object-nodes="true"
     inkscape:snap-text-baseline="false"
     inkscape:object-paths="false"
     inkscape:snap-intersection-paths="false"
     inkscape:snap-midpoints="false"
     inkscape:snap-smooth-nodes="true"
     inkscape:snap-nodes="false"
     width="105px" />
  <defs
     id="defs2" />
  <g
     inkscape:label="Layer 1"
     inkscape:groupmode="layer"
     id="layer1"
     transform="translate(-56.660919,-167.60083)">
    <g
       id="g846">
      <path
         style="color:#000000;-inkscape-font-specification:'Jaya Baru, Normal';fill:#000000;stroke-width:0.18938;-inkscape-stroke:none"
         d="m 68.501866,171.88377 c -0.510997,-0.55699 -1.326942,-0.80066 -2.085195,-0.66838 -1.318702,0.2019 -2.14289,1.1627 -2.513775,2.13744 -0.593416,1.60132 -0.43682,3.07733 -0.107145,4.59512 l 1.524749,-0.31331 c -0.13187,-0.43166 -0.197805,-0.86332 -0.214288,-1.30891 0.923089,0.22976 1.837939,0.2228 2.711578,0.0696 0,0.41078 -0.07418,0.84245 -0.123628,1.30893 l 1.53299,0.0557 c 0.131871,-0.7241 0.173079,-1.46906 0.189563,-2.2001 0,-0.6475 -0.01648,-1.42728 -0.222531,-2.29757 -0.164837,-0.49432 -0.321433,-0.98168 -0.692318,-1.37854 z m -3.379171,3.02861 c 0.04944,-0.37596 0.13187,-0.76586 0.26374,-1.14878 0.181322,-0.41077 0.420335,-0.79371 0.758253,-1.03042 0.510996,-0.34116 1.021993,-0.29938 1.293976,0.18798 0.346159,0.64749 0.387368,1.40639 0.420335,2.08174 -0.873639,0.27152 -1.903874,0.29241 -2.736304,-0.0905 z"
         id="path15344"
         inkscape:export-filename="D:\Project\rakit.id\blog\static\rakit-id-logo.png"
         inkscape:export-xdpi="465"
         inkscape:export-ydpi="465" />
      <path
         style="color:#000000;-inkscape-font-specification:'Jaya Baru, Normal';fill:#000000;stroke-width:0.18938;-inkscape-stroke:none"
         d="m 75.967137,172.12701 -1.005509,-0.92599 c -1.153864,0.85636 -2.36542,1.5874 -3.461591,2.38807 l -0.0082,-2.40896 h -1.557739 l 0.04945,6.79522 h 1.557715 l -0.02472,-2.64568 c 1.120895,0.83548 2.266517,1.53868 3.568735,2.00515 l 0.667592,-1.09309 c -1.302218,-0.58483 -2.217067,-1.107 -3.148399,-1.78931 1.038477,-0.77282 2.291243,-1.55956 3.362687,-2.32541 z"
         id="path15346"
         inkscape:export-filename="D:\Project\rakit.id\blog\static\rakit-id-logo.png"
         inkscape:export-xdpi="465"
         inkscape:export-ydpi="465" />
      <path
         style="color:#000000;-inkscape-font-specification:'Jaya Baru, Normal';fill:#000000;stroke-width:0.171349;-inkscape-stroke:none"
         d="m 76.386884,173.15105 0.06594,5.21522 h 1.549474 l -0.04945,-5.21522 z"
         id="path15348"
         inkscape:export-filename="D:\Project\rakit.id\blog\static\rakit-id-logo.png"
         inkscape:export-xdpi="465"
         inkscape:export-ydpi="465" />
      <path
         style="color:#000000;-inkscape-font-specification:'Jaya Baru, Normal';fill:#000000;stroke-width:0.18938;-inkscape-stroke:none"
         d="m 78.574512,171.03749 v 1.31588 c 0.815947,-0.0278 1.392879,-0.0209 1.96981,-0.0417 l -0.04121,5.54898 h 1.557717 l 0.03296,-5.56986 c 0.6099,0 1.087931,0.0488 1.656621,0.0975 l 0.239012,-1.30891 c -2.10168,0 -3.63467,-0.0417 -5.414916,-0.0417 z"
         id="path15350"
         inkscape:export-filename="D:\Project\rakit.id\blog\static\rakit-id-logo.png"
         inkscape:export-xdpi="465"
         inkscape:export-ydpi="465" />
      <path
         style="color:#000000;opacity:1;fill:none;stroke:#000000;stroke-width:0.706838;stroke-linecap:square;stroke-linejoin:miter;stroke-miterlimit:4;stroke-dasharray:none;stroke-opacity:1;paint-order:stroke fill markers"
         d="m 79.009522,173.30753 -1.770606,-0.5088 -1.422941,1.17014 -0.06322,-1.84118 -1.552569,-0.9917 1.731527,-0.62913 0.463391,-1.78303 1.133381,1.45237 1.838965,-0.11034 -1.031059,1.52671 z"
         id="path1142"
         inkscape:export-filename="D:\Project\rakit.id\blog\static\rakit-id-logo.png"
         inkscape:export-xdpi="465"
         inkscape:export-ydpi="465" />
      <path
         style="color:#000000;-inkscape-font-specification:'Jaya Baru, Normal';fill:#000000;stroke-width:0.189571;-inkscape-stroke:none"
         d="m 61.14264,175.39139 c 0.536266,-0.17424 1.031281,-0.46695 1.377791,-0.83633 1.097282,-1.17085 0.354761,-2.65533 -1.089032,-3.11532 -1.481269,-0.38721 -2.891882,-0.22659 -4.290128,-0.22659 -0.0165,2.31384 -0.04125,4.5476 0,6.77084 l 1.551047,-0.0558 c 0,-0.76663 -0.0082,-1.3869 -0.0082,-2.01415 0.239258,-0.0139 0.519767,-0.0209 0.841526,-0.0906 0.899276,0.89904 1.69955,1.60991 2.71433,2.27201 l 0.924027,-1.07329 c -0.742522,-0.50877 -1.419041,-1.01753 -2.021309,-1.63083 z m -0.660019,-1.1848 c -0.561016,0.23695 -1.188036,0.34847 -1.765553,0.39726 0.0165,-0.71785 0.05776,-1.41479 0.07425,-2.00719 0.643518,-0.17423 2.194565,-0.20211 2.565826,0.39029 0.247507,0.38332 -0.148505,0.90602 -0.874526,1.21964 z"
         id="SvgjsPath1005"
         inkscape:export-filename="D:\Project\rakit.id\blog\static\rakit-id-logo.png"
         inkscape:export-xdpi="465"
         inkscape:export-ydpi="465" />
    </g>
  </g>
</svg>
