<?xml version="1.0" encoding="UTF-8" standalone="no"?>
<!-- Created with Inkscape (http://www.inkscape.org/) -->

<svg
   width="236"
   height="66"
   viewBox="0 0 62.441664 17.462499"
   version="1.1"
   id="svg5"
   inkscape:version="1.1 (c68e22c387, 2021-05-23)"
   sodipodi:docname="rakit-id-logo.svg"
   inkscape:export-filename="D:\Project\rakit.id\blog\public\rakit-id-logo.png"
   inkscape:export-xdpi="96"
   inkscape:export-ydpi="96"
   xmlns:inkscape="http://www.inkscape.org/namespaces/inkscape"
   xmlns:sodipodi="http://sodipodi.sourceforge.net/DTD/sodipodi-0.dtd"
   xmlns:xlink="http://www.w3.org/1999/xlink"
   xmlns="http://www.w3.org/2000/svg"
   xmlns:svg="http://www.w3.org/2000/svg">
  <sodipodi:namedview
     id="namedview7"
     pagecolor="#000000"
     bordercolor="#999999"
     borderopacity="1"
     inkscape:pageshadow="0"
     inkscape:pageopacity="0"
     inkscape:pagecheckerboard="0"
     inkscape:document-units="mm"
     showgrid="false"
     inkscape:zoom="2.56"
     inkscape:cx="192.1875"
     inkscape:cy="85.9375"
     inkscape:window-width="1920"
     inkscape:window-height="974"
     inkscape:window-x="-11"
     inkscape:window-y="-11"
     inkscape:window-maximized="1"
     inkscape:current-layer="layer1"
     showguides="true"
     inkscape:guide-bbox="true"
     fit-margin-top="0"
     fit-margin-left="0"
     fit-margin-right="0"
     fit-margin-bottom="0"
     units="px"
     inkscape:object-nodes="true"
     inkscape:snap-text-baseline="false"
     inkscape:object-paths="false"
     inkscape:snap-intersection-paths="true"
     inkscape:snap-midpoints="false"
     inkscape:snap-smooth-nodes="true" />
  <defs
     id="defs2">
    <linearGradient
       inkscape:collect="always"
       id="linearGradient28453">
      <stop
         style="stop-color:#00da79;stop-opacity:1"
         offset="0"
         id="stop28449" />
      <stop
         style="stop-color:#007cff;stop-opacity:1"
         offset="1"
         id="stop28451" />
    </linearGradient>
    <linearGradient
       inkscape:collect="always"
       xlink:href="#linearGradient28453"
       id="linearGradient22049"
       gradientUnits="userSpaceOnUse"
       gradientTransform="matrix(1.7792817,0,0,1.6368078,-111.58621,-85.202417)"
       x1="94.552063"
       y1="135.08257"
       x2="137.50021"
       y2="135.08257" />
    <linearGradient
       inkscape:collect="always"
       xlink:href="#linearGradient28453"
       id="linearGradient22051"
       gradientUnits="userSpaceOnUse"
       gradientTransform="matrix(1.7792817,0,0,1.6368078,-111.58621,-85.202417)"
       x1="94.552063"
       y1="135.08257"
       x2="137.50021"
       y2="135.08257" />
    <linearGradient
       inkscape:collect="always"
       xlink:href="#linearGradient28453"
       id="linearGradient22053"
       gradientUnits="userSpaceOnUse"
       gradientTransform="matrix(1.7792817,0,0,1.6368078,-111.58621,-85.202417)"
       x1="94.552063"
       y1="135.08257"
       x2="137.50021"
       y2="135.08257" />
    <linearGradient
       inkscape:collect="always"
       xlink:href="#linearGradient28453"
       id="linearGradient22055"
       gradientUnits="userSpaceOnUse"
       gradientTransform="matrix(1.7792817,0,0,1.6368078,-111.58621,-85.202417)"
       x1="94.552063"
       y1="135.08257"
       x2="137.50021"
       y2="135.08257" />
    <linearGradient
       inkscape:collect="always"
       xlink:href="#linearGradient28453"
       id="linearGradient22057"
       gradientUnits="userSpaceOnUse"
       gradientTransform="matrix(1.7792817,0,0,1.6368078,-111.58621,-85.202417)"
       x1="94.552063"
       y1="135.08257"
       x2="137.50021"
       y2="135.08257" />
  </defs>
  <g
     inkscape:label="Layer 1"
     inkscape:groupmode="layer"
     id="layer1"
     transform="translate(-56.660919,-167.60083)">
    <g
       id="g22069"
       transform="translate(-0.74722843,40.945348)">
      <path
         d="m 66.559132,137.39673 c 1.223992,-0.43307 2.353831,-1.16063 3.144718,-2.07874 2.504477,-2.91023 0.809718,-6.59999 -2.485646,-7.7433 -1.996049,-0.71023 -4.02976,-0.79684 -5.969317,-0.51968 0,0 0,0 0,0 h -3.577823 c -0.03766,5.75118 -0.338952,11.25982 -0.244799,16.7858 l 3.540163,-0.13858 c 0,-1.90551 -0.01883,-3.44723 -0.01883,-5.00629 0.546089,-0.0346 1.186331,-0.052 1.920726,-0.2252 2.052542,2.23464 3.879115,4.00157 6.195285,5.64724 l 2.109033,-2.66772 c -1.694759,-1.26456 -3.238872,-2.52912 -4.61351,-4.05353 z m -1.506452,-2.94488 c -1.280486,0.58897 -2.711615,0.86614 -4.02976,0.9874 0.03766,-1.78425 0.131814,-3.51653 0.169475,-4.98897 1.468791,-0.43307 5.008954,-0.50236 5.856334,0.97008 0.564919,0.95275 -0.338952,2.25197 -1.996049,3.03149 z"
         style="font-size:18.061px;line-height:1.25;font-family:'Jaya Baru';-inkscape-font-specification:'Jaya Baru, Normal';fill:url(#linearGradient22049);stroke-width:0.451525"
         id="path22020" />
      <path
         d="m 83.770336,128.40619 c -1.1675,-1.38582 -3.031735,-1.99212 -4.764154,-1.66298 -3.012904,0.50235 -4.895969,2.8929 -5.743348,5.31809 -1.355807,3.98425 -0.998025,7.65668 -0.244799,11.43305 l 3.48367,-0.77952 c -0.30129,-1.07401 -0.451935,-2.14803 -0.489597,-3.25669 2.109033,0.57165 4.199235,0.55433 6.195284,0.17323 0,1.02205 -0.169476,2.09606 -0.28246,3.25669 l 3.502502,0.13858 c 0.301291,-1.80157 0.395444,-3.65512 0.433105,-5.47401 0,-1.61101 -0.03766,-3.55118 -0.508427,-5.71652 -0.376613,-1.22992 -0.734396,-2.44252 -1.581776,-3.42992 z m -7.720566,7.53543 c 0.112984,-0.93544 0.30129,-1.90551 0.60258,-2.85827 0.414275,-1.02205 0.960364,-1.9748 1.73242,-2.56378 1.1675,-0.84882 2.335001,-0.74488 2.956412,0.46772 0.790887,1.61102 0.885041,3.4992 0.960363,5.17952 -1.996049,0.67559 -4.34988,0.72756 -6.251775,-0.22519 z"
         style="font-size:18.061px;line-height:1.25;font-family:'Jaya Baru';-inkscape-font-specification:'Jaya Baru, Normal';fill:url(#linearGradient22051);stroke-width:0.451525"
         id="path22022" />
      <path
         d="m 101.16984,129.20304 -2.297344,-2.30394 c -2.636291,2.13071 -5.404396,3.9496 -7.908873,5.94173 l -0.01883,-5.99369 H 87.3858 l 0.112984,16.90706 h 3.558994 l -0.05649,-6.58267 c 2.560968,2.07874 5.178428,3.82834 8.153671,4.98897 l 1.525281,-2.71968 c -2.975241,-1.45512 -5.065443,-2.75433 -7.193306,-4.45196 2.372661,-1.92283 5.23492,-3.88031 7.682906,-5.78582 z"
         style="font-size:18.061px;line-height:1.25;font-family:'Jaya Baru';-inkscape-font-specification:'Jaya Baru, Normal';fill:url(#linearGradient22053);stroke-width:0.451525"
         id="path22024" />
      <path
         d="m 102.50679,127.48808 0.15064,15.85037 h 3.54017 l -0.11299,-15.85037 z"
         style="font-size:18.061px;line-height:1.25;font-family:'Jaya Baru';-inkscape-font-specification:'Jaya Baru, Normal';fill:url(#linearGradient22055);stroke-width:0.451525"
         id="path22026" />
      <path
         d="m 107.47806,126.70855 v 3.27401 c 1.86424,-0.0692 3.18238,-0.052 4.50053,-0.10393 l -0.0941,13.80627 h 3.55899 l 0.0753,-13.85824 c 1.39348,0 2.48566,0.12126 3.78497,0.24252 l 0.54608,-3.25669 c -4.80181,0 -8.30431,-0.10394 -12.37173,-0.10394 z"
         style="font-size:18.061px;line-height:1.25;font-family:'Jaya Baru';-inkscape-font-specification:'Jaya Baru, Normal';fill:url(#linearGradient22057);stroke-width:0.451525"
         id="path22028" />
    </g>
  </g>
</svg>
