<?xml version="1.0" encoding="UTF-8" standalone="no"?>
<!-- Created with Inkscape (http://www.inkscape.org/) -->

<svg
   width="195"
   height="70"
   viewBox="0 0 51.593748 18.520832"
   version="1.1"
   id="svg5"
   inkscape:version="1.1 (c68e22c387, 2021-05-23)"
   sodipodi:docname="rakit-logo.svg"
   inkscape:export-filename="D:\Project\rakit.id\Design\rakit-id-logo-1.png"
   inkscape:export-xdpi="465"
   inkscape:export-ydpi="465"
   xmlns:inkscape="http://www.inkscape.org/namespaces/inkscape"
   xmlns:sodipodi="http://sodipodi.sourceforge.net/DTD/sodipodi-0.dtd"
   xmlns="http://www.w3.org/2000/svg"
   xmlns:svg="http://www.w3.org/2000/svg">
  <sodipodi:namedview
     id="namedview7"
     pagecolor="#ffffff"
     bordercolor="#000000"
     borderopacity="1"
     inkscape:pageshadow="0"
     inkscape:pageopacity="0"
     inkscape:pagecheckerboard="true"
     inkscape:document-units="mm"
     showgrid="false"
     inkscape:zoom="5.6568543"
     inkscape:cx="102.88404"
     inkscape:cy="37.123106"
     inkscape:window-width="1920"
     inkscape:window-height="974"
     inkscape:window-x="-11"
     inkscape:window-y="-11"
     inkscape:window-maximized="1"
     inkscape:current-layer="layer1"
     showguides="true"
     inkscape:guide-bbox="true"
     fit-margin-top="0"
     fit-margin-left="0"
     fit-margin-right="0"
     fit-margin-bottom="0"
     units="px"
     inkscape:object-nodes="true"
     inkscape:snap-text-baseline="false"
     inkscape:object-paths="false"
     inkscape:snap-intersection-paths="false"
     inkscape:snap-midpoints="false"
     inkscape:snap-smooth-nodes="true"
     inkscape:snap-nodes="false" />
  <defs
     id="defs2" />
  <g
     inkscape:label="Layer 1"
     inkscape:groupmode="layer"
     id="layer1"
     transform="translate(-56.660919,-167.60083)">
    <path
       id="rect959"
       style="fill:#1a1a1a;stroke-width:0.171606;stroke-linecap:round;stroke-linejoin:round;paint-order:markers stroke fill"
       d="m 59.755671,169.45292 48.492799,-1.84382 -4.30064,17.47974 -47.202638,0.95542 z"
       sodipodi:nodetypes="ccccc" />
    <path
       d="m 68.059482,178.10407 c 0.824164,-0.26778 1.58493,-0.71764 2.117466,-1.28532 1.686365,-1.79944 0.545215,-4.08087 -1.673686,-4.78779 -1.344021,-0.43914 -2.713399,-0.4927 -4.019381,-0.32133 0,0 0,0 0,0 h -2.409093 c -0.02536,3.55604 -0.22823,6.96211 -0.164833,10.3789 l 2.383734,-0.0857 c 0,-1.17819 -0.01268,-2.13147 -0.01268,-3.09546 0.367704,-0.0214 0.798805,-0.0322 1.293303,-0.13923 1.382058,1.3817 2.611963,2.47422 4.171534,3.49176 l 1.420097,-1.64949 c -1.141149,-0.7819 -2.180863,-1.5638 -3.106462,-2.50635 z m -1.014355,-1.82086 c -0.862201,0.36416 -1.825839,0.53554 -2.7134,0.61052 0.02536,-1.10323 0.08876,-2.17432 0.114116,-3.08476 0.988995,-0.26777 3.37273,-0.31061 3.943304,0.59982 0.380383,0.5891 -0.228229,1.39242 -1.34402,1.87442 z"
       style="font-size:11.6537px;line-height:1.25;font-family:'Jaya Baru';-inkscape-font-specification:'Jaya Baru, Normal';letter-spacing:-0.212402px;fill:#ffffff;stroke-width:0.291344"
       id="path15342" />
    <path
       d="m 79.417383,172.54509 c -0.786126,-0.85688 -2.041389,-1.23176 -3.207897,-1.02826 -2.02871,0.31062 -3.296654,1.78873 -3.867229,3.28827 -0.912919,2.46351 -0.67201,4.73423 -0.164832,7.06922 l 2.345696,-0.482 c -0.202871,-0.66408 -0.304307,-1.32816 -0.329665,-2.01365 1.420096,0.35346 2.827514,0.34275 4.171534,0.1071 0,0.63195 -0.114116,1.29603 -0.190192,2.01367 l 2.358375,0.0857 c 0.202872,-1.11395 0.266268,-2.26001 0.291628,-3.38466 0,-0.99612 -0.02536,-2.19575 -0.342345,-3.53461 -0.253589,-0.76048 -0.494499,-1.51024 -1.065073,-2.12077 z m -5.198569,4.65926 c 0.07607,-0.57839 0.202871,-1.17821 0.405742,-1.7673 0.278948,-0.63195 0.646651,-1.22106 1.166508,-1.58523 0.786125,-0.52483 1.57225,-0.46057 1.990672,0.2892 0.532536,0.99611 0.595933,2.16361 0.646651,3.20257 -1.34402,0.41773 -2.928949,0.44986 -4.209573,-0.13924 z"
       style="font-size:11.6537px;line-height:1.25;font-family:'Jaya Baru';-inkscape-font-specification:'Jaya Baru, Normal';letter-spacing:-0.212402px;fill:#ffffff;stroke-width:0.291344"
       id="path15344" />
    <path
       d="m 90.902068,173.03779 -1.546891,-1.42456 c -1.775121,1.31745 -3.638998,2.4421 -5.325363,3.67385 l -0.01268,-3.70598 h -2.396413 l 0.07608,10.45388 h 2.396413 l -0.03804,-4.07016 c 1.724403,1.28531 3.486845,2.36713 5.490196,3.08475 l 1.027034,-1.68162 c -2.003351,-0.89971 -3.410768,-1.70303 -4.843544,-2.75271 1.597609,-1.18891 3.524883,-2.39925 5.173209,-3.57745 z"
       style="font-size:11.6537px;line-height:1.25;font-family:'Jaya Baru';-inkscape-font-specification:'Jaya Baru, Normal';letter-spacing:-0.212402px;fill:#ffffff;stroke-width:0.291344"
       id="path15346" />
    <path
       d="m 91.454269,174.09409 0.101436,9.80051 h 2.383734 l -0.07608,-9.80051 z"
       style="font-size:11.6537px;line-height:1.25;font-family:'Jaya Baru';-inkscape-font-specification:'Jaya Baru, Normal';letter-spacing:-0.212402px;fill:#ffffff;stroke-width:0.291344"
       id="path15348" />
    <path
       d="m 94.687457,171.49541 v 2.02437 c 1.255264,-0.0428 2.142825,-0.0322 3.030385,-0.0642 l -0.0634,8.53663 h 2.396417 l 0.0507,-8.56876 c 0.93828,0 1.67369,0.075 2.54857,0.14995 l 0.3677,-2.01365 c -3.233257,0 -5.591632,-0.0642 -8.33039,-0.0642 z"
       style="font-size:11.6537px;line-height:1.25;font-family:'Jaya Baru';-inkscape-font-specification:'Jaya Baru, Normal';letter-spacing:-0.212402px;fill:#ffffff;stroke-width:0.291344"
       id="path15350" />
    <path
       id="path21371"
       style="fill:#ffffff;stroke-width:0.5;stroke-linecap:round;stroke-linejoin:round;paint-order:markers stroke fill;stroke:none"
       inkscape:transform-center-x="0.15751444"
       inkscape:transform-center-y="-0.085244492"
       transform="matrix(0.24474981,-0.01153952,0.01153952,0.24474981,60.098934,185.01973)"
       d="m 141.75429,-41.745687 -6.45186,-2.187892 -5.46,4.074545 0.0871,-6.812186 -5.56235,-3.93366 6.50568,-2.022271 2.02227,-6.50568 3.93366,5.562354 6.81219,-0.08707 -4.07455,5.459995 z" />
  </g>
</svg>
