<?xml version="1.0" encoding="UTF-8" standalone="no"?>
<!-- Created with Inkscape (http://www.inkscape.org/) -->

<svg
   width="195"
   height="70"
   viewBox="0 0 51.593748 18.520832"
   version="1.1"
   id="svg5"
   inkscape:version="1.1 (c68e22c387, 2021-05-23)"
   sodipodi:docname="rakit-id-logo.svg"
   inkscape:export-filename="D:\Project\rakit.id\blog\static\rakit-id-logo.png"
   inkscape:export-xdpi="465"
   inkscape:export-ydpi="465"
   xmlns:inkscape="http://www.inkscape.org/namespaces/inkscape"
   xmlns:sodipodi="http://sodipodi.sourceforge.net/DTD/sodipodi-0.dtd"
   xmlns="http://www.w3.org/2000/svg"
   xmlns:svg="http://www.w3.org/2000/svg">
  <sodipodi:namedview
     id="namedview7"
     pagecolor="#ffffff"
     bordercolor="#000000"
     borderopacity="1"
     inkscape:pageshadow="0"
     inkscape:pageopacity="0"
     inkscape:pagecheckerboard="true"
     inkscape:document-units="mm"
     showgrid="false"
     inkscape:zoom="2.8284272"
     inkscape:cx="41.012192"
     inkscape:cy="61.164735"
     inkscape:window-width="1920"
     inkscape:window-height="974"
     inkscape:window-x="-11"
     inkscape:window-y="-11"
     inkscape:window-maximized="1"
     inkscape:current-layer="g846"
     showguides="true"
     inkscape:guide-bbox="true"
     fit-margin-top="0"
     fit-margin-left="0"
     fit-margin-right="0"
     fit-margin-bottom="0"
     units="px"
     inkscape:object-nodes="true"
     inkscape:snap-text-baseline="false"
     inkscape:object-paths="false"
     inkscape:snap-intersection-paths="false"
     inkscape:snap-midpoints="false"
     inkscape:snap-smooth-nodes="true"
     inkscape:snap-nodes="false" />
  <defs
     id="defs2" />
  <g
     inkscape:label="Layer 1"
     inkscape:groupmode="layer"
     id="layer1"
     transform="translate(-56.660919,-167.60083)">
    <g
       id="g846">
      <g
         id="g896">
        <path
           style="color:#000000;fill:#1a1a1a;stroke-width:0.171606;stroke-linecap:round;stroke-linejoin:round;-inkscape-stroke:none;paint-order:markers stroke fill"
           d="m 59.755671,169.45292 48.492799,-1.84382 -4.30064,17.47974 -47.202638,0.95542 z"
           id="rect959" />
        <path
           style="color:#000000;-inkscape-font-specification:'Jaya Baru, Normal';fill:#ffffff;stroke-width:0.291344;-inkscape-stroke:none"
           d="m 79.323838,173.92183 c -0.786126,-0.85688 -2.041389,-1.23176 -3.207897,-1.02826 -2.02871,0.31062 -3.296654,1.78873 -3.867229,3.28827 -0.912919,2.46351 -0.67201,4.73423 -0.164832,7.06922 l 2.345696,-0.482 c -0.202871,-0.66408 -0.304307,-1.32816 -0.329665,-2.01365 1.420096,0.35346 2.827514,0.34275 4.171534,0.1071 0,0.63195 -0.114116,1.29603 -0.190192,2.01367 l 2.358375,0.0857 c 0.202872,-1.11395 0.266268,-2.26001 0.291628,-3.38466 0,-0.99612 -0.02536,-2.19575 -0.342345,-3.53461 -0.253589,-0.76048 -0.494499,-1.51024 -1.065073,-2.12077 z m -5.198569,4.65926 c 0.07607,-0.57839 0.202871,-1.17821 0.405742,-1.7673 0.278948,-0.63195 0.646651,-1.22106 1.166508,-1.58523 0.786125,-0.52483 1.57225,-0.46057 1.990672,0.2892 0.532536,0.99611 0.595933,2.16361 0.646651,3.20257 -1.34402,0.41773 -2.928949,0.44986 -4.209573,-0.13924 z"
           id="path15344" />
        <path
           style="color:#000000;-inkscape-font-specification:'Jaya Baru, Normal';fill:#ffffff;stroke-width:0.291344;-inkscape-stroke:none"
           d="m 90.808523,174.29602 -1.546891,-1.42456 c -1.775121,1.31745 -3.638998,2.4421 -5.325363,3.67385 l -0.01268,-3.70598 h -2.396413 l 0.07608,10.45388 h 2.396413 l -0.03804,-4.07016 c 1.724403,1.28531 3.486845,2.36713 5.490196,3.08475 l 1.027034,-1.68162 c -2.003351,-0.89971 -3.410768,-1.70303 -4.843544,-2.75271 1.597609,-1.18891 3.524883,-2.39925 5.173209,-3.57745 z"
           id="path15346" />
        <path
           style="color:#000000;-inkscape-font-specification:'Jaya Baru, Normal';fill:#ffffff;stroke-width:0.291344;-inkscape-stroke:none"
           d="m 91.454269,174.09409 0.101436,9.80051 h 2.383734 l -0.07608,-9.80051 z"
           id="path15348" />
        <path
           style="color:#000000;-inkscape-font-specification:'Jaya Baru, Normal';fill:#ffffff;stroke-width:0.291344;-inkscape-stroke:none"
           d="m 94.819749,172.61989 v 2.02437 c 1.255264,-0.0428 2.142825,-0.0322 3.030385,-0.0642 l -0.0634,8.53663 h 2.396416 l 0.0507,-8.56876 c 0.93828,0 1.67369,0.075 2.54857,0.14995 l 0.3677,-2.01365 c -3.233256,0 -5.591631,-0.0642 -8.330389,-0.0642 z"
           id="path15350" />
        <path
           style="color:#000000;fill:#1a1a1a;stroke-width:0.55248;stroke-linecap:round;stroke-linejoin:round;-inkscape-stroke:none;paint-order:markers stroke fill"
           d="m 91.357332,168.52245 a 0.80831828,0.80831828 0 0 0 -0.618303,0.58809 l -0.562192,2.16676 -2.104174,0.76398 a 0.80831828,0.80831828 0 0 0 -0.158623,1.44055 l 1.886204,1.20531 0.07661,2.2369 a 0.80831828,0.80831828 0 0 0 1.320774,0.59565 l 1.728659,-1.42113 2.151653,0.6183 a 0.80831828,0.80831828 0 0 0 0.975473,-1.07259 l -0.81793,-2.08259 1.252793,-1.85491 a 0.80831828,0.80831828 0 0 0 -0.718657,-1.25927 l -2.233661,0.1338 -1.376885,-1.76426 a 0.80831828,0.80831828 0 0 0 -0.801744,-0.29459 z m 0.534136,2.58004 0.631252,0.80822 a 0.80831828,0.80831828 0 0 0 0.685206,0.30969 l 1.024031,-0.0615 -0.574062,0.8503 a 0.80831828,0.80831828 0 0 0 -0.08201,0.74779 l 0.374436,0.95389 -0.986265,-0.28271 a 0.80831828,0.80831828 0 0 0 -0.735921,0.15215 l -0.792033,0.65175 -0.03561,-1.02511 a 0.80831828,0.80831828 0 0 0 -0.372277,-0.65391 l -0.86433,-0.55141 0.963604,-0.35069 a 0.80831828,0.80831828 0 0 0 0.506081,-0.55572 z"
           id="path1140" />
        <path
           style="color:#000000;fill:#ffffff;stroke-width:1.61647;stroke-linecap:round;stroke-linejoin:round;-inkscape-stroke:none;paint-order:markers stroke fill"
           d="m 95.300712,175.93996 -2.559384,-0.73548 -2.056831,1.69141 -0.0914,-2.66141 -2.244215,-1.43347 2.502895,-0.90937 0.669825,-2.57736 1.638282,2.09941 2.658193,-0.15938 -1.490381,2.20686 z"
           id="path1142" />
        <path
           style="color:#000000;-inkscape-font-specification:'Jaya Baru, Normal';fill:#ffffff;stroke-width:0.291639;-inkscape-stroke:none"
           d="m 68.002293,179.318 c 0.825,-0.26805 1.586538,-0.71837 2.119614,-1.28662 1.688076,-1.80126 0.545769,-4.08501 -1.675383,-4.79265 -2.278806,-0.59569 -4.448915,-0.3486 -6.599997,-0.3486 -0.02538,3.55965 -0.06346,6.99611 0,10.41637 l 2.386153,-0.0858 c 0,-1.17938 -0.01269,-2.13362 -0.01269,-3.09859 0.368078,-0.0214 0.799616,-0.0322 1.294616,-0.13937 1.38346,1.3831 2.614613,2.47672 4.175766,3.49529 l 1.421537,-1.65116 c -1.142307,-0.78269 -2.183075,-1.56538 -3.109613,-2.50889 z m -1.015383,-1.82271 c -0.863076,0.36453 -1.827692,0.53609 -2.716153,0.61115 0.02538,-1.10436 0.08885,-2.17654 0.114231,-3.0879 0.989998,-0.26803 3.376152,-0.31092 3.947305,0.60044 0.380769,0.58969 -0.228461,1.39383 -1.345383,1.87631 z"
           id="SvgjsPath1005" />
      </g>
    </g>
  </g>
</svg>
