<?xml version="1.0" encoding="UTF-8" standalone="no"?>
<svg
   width="43"
   height="43"
   version="1.1"
   id="svg33"
   sodipodi:docname="Bootstrap-logo.svg"
   inkscape:version="1.1 (c68e22c387, 2021-05-23)"
   xmlns:inkscape="http://www.inkscape.org/namespaces/inkscape"
   xmlns:sodipodi="http://sodipodi.sourceforge.net/DTD/sodipodi-0.dtd"
   xmlns="http://www.w3.org/2000/svg"
   xmlns:svg="http://www.w3.org/2000/svg">
  <sodipodi:namedview
     id="namedview35"
     pagecolor="#ffffff"
     bordercolor="#999999"
     borderopacity="1"
     inkscape:pageshadow="0"
     inkscape:pageopacity="0"
     inkscape:pagecheckerboard="0"
     showgrid="false"
     inkscape:zoom="9.5112794"
     inkscape:cx="18.083792"
     inkscape:cy="18.294069"
     inkscape:window-width="1920"
     inkscape:window-height="974"
     inkscape:window-x="-11"
     inkscape:window-y="-11"
     inkscape:window-maximized="1"
     inkscape:current-layer="svg33" />
  <defs
     id="defs27">
    <linearGradient
       id="bs-logo-a"
       x1="76.079002"
       x2="523.47998"
       y1="10.798"
       y2="365.94501"
       gradientUnits="userSpaceOnUse"
       gradientTransform="matrix(0.07240552,0,0,0.07240552,3.0057175,6.7292725)">
      <stop
         stop-color="#9013fe"
         id="stop2" />
      <stop
         offset="1"
         stop-color="#6610f2"
         id="stop4" />
    </linearGradient>
    <linearGradient
       id="bs-logo-b"
       x1="193.508"
       x2="293.51401"
       y1="109.74"
       y2="278.87201"
       gradientUnits="userSpaceOnUse">
      <stop
         stop-color="#fff"
         id="stop7" />
      <stop
         offset="1"
         stop-color="#f1e5fc"
         id="stop9" />
    </linearGradient>
    <filter
       id="bs-logo-c"
       width="197"
       height="249"
       x="161.901"
       y="83.457001"
       color-interpolation-filters="sRGB"
       filterUnits="userSpaceOnUse">
      <feFlood
         flood-opacity="0"
         result="BackgroundImageFix"
         id="feFlood12" />
      <feColorMatrix
         in="SourceAlpha"
         values="0 0 0 0 0 0 0 0 0 0 0 0 0 0 0 0 0 0 127 0"
         id="feColorMatrix14" />
      <feOffset
         dy="4"
         id="feOffset16" />
      <feGaussianBlur
         stdDeviation="8"
         id="feGaussianBlur18" />
      <feColorMatrix
         values="0 0 0 0 0 0 0 0 0 0 0 0 0 0 0 0 0 0 0.15 0"
         id="feColorMatrix20" />
      <feBlend
         in2="BackgroundImageFix"
         result="effect1_dropShadow"
         id="feBlend22"
         mode="normal" />
      <feBlend
         in="SourceGraphic"
         in2="effect1_dropShadow"
         result="shape"
         id="feBlend24"
         mode="normal" />
    </filter>
  </defs>
  <path
     fill="url(#bs-logo-a)"
     d="M 7.095256,10.589936 C 7.025311,8.5814073 8.5902132,6.7292726 10.705468,6.7292726 h 21.67481 c 2.115255,0 3.680157,1.8521347 3.610212,3.8606634 -0.0672,1.929387 0.02006,4.428682 0.649045,6.466539 0.631011,2.044148 1.695085,3.336229 3.437814,3.502256 v 1.882537 c -1.742729,0.166028 -2.806803,1.458109 -3.437814,3.502257 -0.628987,2.037856 -0.716236,4.537151 -0.649045,6.466614 0.06994,2.008454 -1.494957,3.860588 -3.610212,3.860588 h -21.67481 c -2.1152548,0 -3.680157,-1.852134 -3.610143,-3.860588 C 7.162446,30.480676 7.075197,27.981381 6.4461419,25.943525 5.8151999,23.899377 4.7485209,22.607296 3.0057175,22.441268 V 20.558731 C 4.7484461,20.392704 5.8151999,19.100623 6.4461419,17.056475 7.0751978,15.018618 7.1624463,12.519323 7.095256,10.589936 Z"
     id="path29"
     style="fill:url(#bs-logo-a);stroke-width:0.0724056" />
  <path
     fill="url(#bs-logo-b)"
     filter="url(#bs-logo-c)"
     stroke="#ffffff"
     d="m 267.103,312.457 c 47.297,0 75.798,-23.158 75.798,-61.355 0,-28.873 -20.336,-49.776 -50.532,-53.085 v -1.203 c 22.185,-3.609 39.594,-24.211 39.594,-47.219 0,-32.783 -25.882,-54.138 -65.322,-54.138 h -88.74 v 217 z m -54.692,-189.48 h 45.911 c 24.958,0 39.131,11.128 39.131,31.279 0,21.505 -16.484,33.535 -46.372,33.535 h -38.67 z m 0,161.961 v -71.431 h 45.602 c 32.661,0 49.608,12.03 49.608,35.49 0,23.459 -16.484,35.941 -47.605,35.941 z"
     id="path31"
     style="fill:url(#bs-logo-b)"
     transform="matrix(0.07240553,0,0,0.07240553,3.0057175,6.4427631)" />
</svg>
