<svg width="43" height="43" viewBox="0 0 43 43" fill="none" xmlns="http://www.w3.org/2000/svg">
<mask id="mask0" mask-type="alpha" maskUnits="userSpaceOnUse" x="0" y="0" width="43" height="43">
<rect width="43" height="43" fill="#C4C4C4"/>
</mask>
<g mask="url(#mask0)">
<path d="M23.5142 7H19.3711V11.1431H23.5142V7Z" fill="#449BD8"/>
<path d="M23.5142 12.2073H19.3711V16.3504H23.5142V12.2073Z" fill="#449BD8"/>
<path d="M23.5142 17.4143H19.3711V21.5574H23.5142V17.4143Z" fill="#449BD8"/>
<path d="M18.4829 12.2073H14.3398V16.3504H18.4829V12.2073Z" fill="#449BD8"/>
<path d="M18.4829 17.4143H14.3398V21.5574H18.4829V17.4143Z" fill="#449BD8"/>
<path d="M13.4556 12.2073H9.3125V16.3504H13.4556V12.2073Z" fill="#449BD8"/>
<path d="M13.4556 17.4143H9.3125V21.5574H13.4556V17.4143Z" fill="#449BD8"/>
<path d="M8.48293 17.4143H4.33984V21.5574H8.48293V17.4143Z" fill="#449BD8"/>
<path d="M28.5415 17.4143H24.3984V21.5574H28.5415V17.4143Z" fill="#449BD8"/>
<path d="M15.5405 36.3186C0.287719 36.3186 2.06333 22.8867 2.06333 22.8867C2.06333 22.8867 23.2348 22.8867 27.5299 22.8867C31.825 22.8867 33.2449 21.5251 33.2449 21.5251C33.2449 21.5251 30.8192 18.3878 33.6588 14.6038C36.8543 16.4376 36.7346 19.1608 36.7346 19.1608C36.7346 19.1608 39.9883 18.0968 42 19.9306C40.8745 23.5982 35.9067 23.3621 35.9067 23.3621C35.9067 23.3621 31.2914 36.3186 15.5405 36.3186Z" fill="#449BD8"/>
</g>
</svg>
