<svg width="43" height="43" viewBox="0 0 43 43" fill="none" xmlns="http://www.w3.org/2000/svg">
<mask id="mask0" mask-type="alpha" maskUnits="userSpaceOnUse" x="0" y="0" width="43" height="43">
<rect width="43" height="43" fill="#C4C4C4"/>
</mask>
<g mask="url(#mask0)">
<path d="M42 1H2V41H42V1Z" fill="#F5DE19"/>
<path d="M28.8589 32.2513C29.669 33.5654 30.7131 34.5375 32.5673 34.5375C34.1334 34.5375 35.1235 33.7635 35.1235 32.6834C35.1235 31.3872 34.0974 30.9372 32.3872 30.1811L31.4511 29.7851C28.7329 28.6329 26.9327 27.1748 26.9327 24.1145C26.9327 21.2882 29.0749 19.146 32.4412 19.146C34.8355 19.146 36.5457 19.9741 37.7878 22.1523L34.8535 24.0425C34.2054 22.8904 33.5213 22.4403 32.4412 22.4403C31.3431 22.4403 30.6411 23.1424 30.6411 24.0425C30.6411 25.1766 31.3431 25.6266 32.9453 26.3287L33.8814 26.7248C37.0677 28.0929 38.8859 29.497 38.8859 32.6293C38.8859 36.0137 36.2216 37.8679 32.6573 37.8679C29.1649 37.8679 26.9147 36.2117 25.8166 34.0155L28.8589 32.2513ZM15.5916 32.5753C16.1856 33.6194 16.7257 34.5015 18.0038 34.5015C19.2459 34.5015 20.02 34.0155 20.02 32.1433V19.362H23.7824V32.1973C23.7824 36.0857 21.4961 37.8679 18.1658 37.8679C15.1595 37.8679 13.4133 36.3017 12.5312 34.4295L15.5916 32.5753Z" fill="black"/>
</g>
</svg>
