<?xml version="1.0" encoding="UTF-8" standalone="no"?>
<svg
   width="43"
   height="43"
   viewBox="0 0 43 43"
   fill="none"
   version="1.1"
   id="svg19"
   sodipodi:docname="mongodb-logo.svg"
   inkscape:version="1.1 (c68e22c387, 2021-05-23)"
   xmlns:inkscape="http://www.inkscape.org/namespaces/inkscape"
   xmlns:sodipodi="http://sodipodi.sourceforge.net/DTD/sodipodi-0.dtd"
   xmlns="http://www.w3.org/2000/svg"
   xmlns:svg="http://www.w3.org/2000/svg">
  <defs
     id="defs23" />
  <sodipodi:namedview
     id="namedview21"
     pagecolor="#ffffff"
     bordercolor="#999999"
     borderopacity="1"
     inkscape:pageshadow="0"
     inkscape:pageopacity="0"
     inkscape:pagecheckerboard="0"
     showgrid="false"
     inkscape:zoom="7.9767442"
     inkscape:cx="0.87755102"
     inkscape:cy="20.810496"
     inkscape:window-width="1920"
     inkscape:window-height="974"
     inkscape:window-x="-11"
     inkscape:window-y="-11"
     inkscape:window-maximized="1"
     inkscape:current-layer="svg19" />
  <mask
     id="mask0"
     mask-type="alpha"
     maskUnits="userSpaceOnUse"
     x="0"
     y="0"
     width="43"
     height="43">
    <rect
       width="43"
       height="43"
       fill="#C4C4C4"
       id="rect2" />
  </mask>
  <g
     mask="url(#mask0)"
     id="g17"
     transform="translate(-1.6297376)">
    <path
       fill-rule="evenodd"
       clip-rule="evenodd"
       d="m 22.8645,41 -1.0648,-0.3639 c 0,0 0.1301,-5.4283 -1.8182,-5.8178 -1.2984,-1.5067 0.2083,-63.8955 4.8834,-0.208 0,0 -1.6106,0.8049 -1.8963,2.1819 C 22.6568,38.1429 22.8645,41 22.8645,41 Z"
       fill="#ffffff"
       id="path5" />
    <path
       fill-rule="evenodd"
       clip-rule="evenodd"
       d="m 22.8645,41 -1.0648,-0.3639 c 0,0 0.1301,-5.4283 -1.8182,-5.8178 -1.2984,-1.5067 0.2083,-63.8955 4.8834,-0.208 0,0 -1.6106,0.8049 -1.8963,2.1819 C 22.6568,38.1429 22.8645,41 22.8645,41 Z"
       fill="#a6a385"
       id="path7" />
    <path
       fill-rule="evenodd"
       clip-rule="evenodd"
       d="m 23.4372,35.7524 c 0,0 9.3248,-6.1299 7.1427,-18.8832 C 28.4762,7.59696 23.5152,4.55802 22.9697,3.38911 22.3724,2.55795 21.8008,1.10364 21.8008,1.10364 l 0.3898,25.79146 c 0,0.0262 -0.8053,7.8961 1.2469,8.8576"
       fill="#ffffff"
       id="path9" />
    <path
       fill-rule="evenodd"
       clip-rule="evenodd"
       d="m 23.4372,35.7524 c 0,0 9.3248,-6.1299 7.1427,-18.8832 C 28.4762,7.59696 23.5152,4.55802 22.9697,3.38911 22.3724,2.55795 21.8008,1.10364 21.8008,1.10364 l 0.3898,25.79146 c 0,0.0262 -0.8053,7.8961 1.2469,8.8576"
       fill="#499d4a"
       id="path11" />
    <path
       fill-rule="evenodd"
       clip-rule="evenodd"
       d="m 21.2561,36.0904 c 0,0 -8.7534,-5.974 -8.2339,-16.4931 C 13.5157,9.07795 19.6974,3.90919 20.8922,2.97417 21.6716,2.14302 21.6975,1.83116 21.7495,1 c 0.5455,1.16891 0.4416,17.4805 0.5193,19.4023 0.2336,7.4024 -0.4154,14.2859 -1.0127,15.6881 z"
       fill="#ffffff"
       id="path13" />
    <path
       fill-rule="evenodd"
       clip-rule="evenodd"
       d="m 21.2561,36.0904 c 0,0 -8.7534,-5.974 -8.2339,-16.4931 C 13.5157,9.07795 19.6974,3.90919 20.8922,2.97417 21.6716,2.14302 21.6975,1.83116 21.7495,1 c 0.5455,1.16891 0.4416,17.4805 0.5193,19.4023 0.2336,7.4024 -0.4154,14.2859 -1.0127,15.6881 z"
       fill="#58aa50"
       id="path15" />
  </g>
</svg>
