<svg width="43" height="43" viewBox="0 0 43 43" fill="none" xmlns="http://www.w3.org/2000/svg">
<mask id="mask0" mask-type="alpha" maskUnits="userSpaceOnUse" x="0" y="0" width="43" height="43">
<rect width="43" height="43" fill="#C4C4C4"/>
</mask>
<g mask="url(#mask0)">
<path fill-rule="evenodd" clip-rule="evenodd" d="M1 29.9211H2.32008V24.6915L4.38168 29.251C4.6152 29.7991 4.95045 30.0023 5.60025 30.0023C6.25027 30.0023 6.56505 29.7991 6.8088 29.251L8.86016 24.6915V29.9211H10.1905V24.6915C10.1905 24.184 9.98724 23.9397 9.56071 23.8077C8.55541 23.5032 7.88512 23.7672 7.5806 24.4475L5.55996 28.9565L3.61012 24.4475C3.3156 23.7675 2.63508 23.5034 1.61975 23.8077C1.20347 23.9397 1.00023 24.1837 1.00023 24.6915V29.9211H1ZM11.2871 25.6663H12.6174V28.5402C12.6074 28.7025 12.6681 29.0683 13.3892 29.078C13.7649 29.0883 16.2528 29.078 16.2731 29.078V25.6458H17.6034V30.3476C17.6034 31.5052 16.1716 31.7589 15.5013 31.7692H11.3173V30.8859H15.5113C16.3644 30.7944 16.2628 30.3681 16.2628 30.2258V29.8803H13.4499C12.1399 29.8701 11.2971 29.2913 11.2871 28.6313C11.2871 28.5705 11.3173 25.6864 11.2871 25.6663ZM39.8222 22.3354C39.0101 22.3151 38.3801 22.3964 37.8521 22.6199C37.7 22.6811 37.456 22.6811 37.436 22.8739C37.5173 22.9547 37.5271 23.0869 37.5983 23.1989C37.7201 23.4022 37.9335 23.676 38.1263 23.8182C38.3398 23.9809 38.5531 24.1432 38.7761 24.2855C39.1721 24.529 39.6189 24.6713 40.0047 24.915C40.2282 25.0573 40.4515 25.24 40.675 25.3925C40.7865 25.4738 40.8577 25.606 41 25.6565V25.6258C40.929 25.5348 40.9085 25.4028 40.8377 25.3008C40.736 25.1995 40.6345 25.1078 40.5327 25.0065C40.2384 24.6105 39.8727 24.265 39.4764 23.9809C39.1514 23.7574 38.4406 23.4529 38.3086 23.0771L38.2886 23.0567C38.5116 23.0362 38.7759 22.9549 38.9892 22.8939C39.3346 22.8029 39.6492 22.8229 40.0045 22.7316C40.1672 22.6909 40.3295 22.6402 40.4922 22.5894V22.4981C40.3095 22.3154 40.1775 22.0716 39.9847 21.8991C39.4669 21.4523 38.8979 21.0155 38.3089 20.65C37.9941 20.447 37.5878 20.3148 37.253 20.1425C37.1308 20.0815 36.928 20.051 36.857 19.9495C36.6738 19.7262 36.5725 19.4317 36.4405 19.1674C36.1462 18.6089 35.8617 17.9896 35.6079 17.4006C35.4252 17.0046 35.3132 16.6085 35.0901 16.243C34.0441 14.5167 32.9065 13.4706 31.1599 12.445C30.7844 12.2318 30.3376 12.1403 29.8601 12.0288C29.6063 12.0185 29.3526 11.9983 29.0986 11.988C28.9358 11.917 28.7736 11.724 28.6313 11.6325C28.0525 11.267 26.5597 10.4749 26.1329 11.5208C25.8587 12.1808 26.5392 12.8306 26.7727 13.1659C26.9457 13.3994 27.1688 13.6634 27.291 13.9274C27.3618 14.0999 27.382 14.2829 27.4533 14.4657C27.6155 14.9125 27.768 15.41 27.9813 15.8265C28.0928 16.0398 28.2146 16.2633 28.3568 16.4563C28.4381 16.568 28.5803 16.6188 28.6106 16.8015C28.4683 17.0048 28.4586 17.3093 28.3773 17.5633C28.0116 18.7109 28.1538 20.1325 28.6716 20.9753C28.8343 21.229 29.2201 21.7876 29.7381 21.5743C30.1952 21.3915 30.0934 20.8128 30.2254 20.305C30.2561 20.1832 30.2357 20.102 30.2964 20.0207V20.041C30.4387 20.3252 30.5809 20.5995 30.7129 20.8838C31.0277 21.3813 31.5762 21.8993 32.0332 22.2446C32.2768 22.4273 32.4698 22.7423 32.7743 22.8539V22.8231H32.7543C32.6933 22.7321 32.6018 22.6914 32.5205 22.6201C32.3378 22.4374 32.1348 22.2139 31.9925 22.0108C31.5662 21.4423 31.1907 20.8125 30.8554 20.1627C30.6927 19.848 30.5504 19.5027 30.4189 19.1879C30.3574 19.0659 30.3574 18.8832 30.2561 18.8224C30.1037 19.0457 29.8806 19.2389 29.7684 19.5129C29.5754 19.9495 29.5554 20.4877 29.4844 21.0463C29.4434 21.0565 29.4639 21.0463 29.4434 21.0665C29.1188 20.9855 29.0069 20.6502 28.8851 20.366C28.5806 19.6449 28.5296 18.4874 28.7936 17.6546C28.8646 17.4413 29.1696 16.771 29.0478 16.568C28.9864 16.375 28.7838 16.2635 28.6718 16.111C28.5398 15.918 28.398 15.6745 28.3065 15.4612C28.063 14.8924 27.9412 14.2629 27.677 13.6941C27.5548 13.4301 27.3417 13.1558 27.169 12.9123C26.976 12.638 26.7632 12.445 26.6107 12.1203C26.5599 12.0085 26.4889 11.8257 26.5702 11.704C26.5902 11.6227 26.6312 11.5922 26.712 11.572C26.844 11.4602 27.22 11.6025 27.352 11.6632C27.7275 11.8155 28.0423 11.9578 28.3571 12.1708C28.4993 12.2723 28.6518 12.4653 28.8346 12.5163H29.048C29.3731 12.5873 29.7384 12.5365 30.0429 12.6278C30.5812 12.8006 31.0685 13.0543 31.5054 13.3286C32.8355 14.1714 33.9326 15.3697 34.6736 16.8015C34.7954 17.0351 34.8462 17.2483 34.9581 17.4921C35.1716 17.9898 35.4356 18.4974 35.6484 18.9849C35.8619 19.4622 36.065 19.9497 36.3695 20.3457C36.522 20.559 37.131 20.6705 37.4053 20.7823C37.6085 20.8735 37.9231 20.955 38.1063 21.0665C38.4513 21.2798 38.7966 21.5235 39.1216 21.7571C39.2839 21.8786 39.7919 22.1324 39.8222 22.3354Z" fill="#00678C"/>
<path fill-rule="evenodd" clip-rule="evenodd" d="M29.4629 13.511C29.2904 13.511 29.1686 13.5312 29.0469 13.5617V13.582H29.0669C29.1482 13.7445 29.2904 13.8563 29.3919 13.9983C29.4732 14.1608 29.5444 14.3233 29.6257 14.4858L29.6457 14.4655C29.7879 14.364 29.8592 14.2015 29.8592 13.9578C29.7982 13.8868 29.7882 13.8155 29.7374 13.7445C29.6764 13.643 29.5444 13.5922 29.4629 13.511Z" fill="#00678C"/>
<path fill-rule="evenodd" clip-rule="evenodd" d="M18.6172 29.921H22.4354C22.8822 29.921 23.3089 29.8299 23.654 29.6672C24.2328 29.4032 24.507 29.0479 24.507 28.5809V27.606C24.507 27.2305 24.1922 26.8748 23.5629 26.6312C23.2379 26.5095 22.8317 26.4382 22.4356 26.4382H20.8313C20.293 26.4382 20.0392 26.2755 19.968 25.9204C19.958 25.8799 19.958 25.8392 19.958 25.7987V25.1994C19.958 25.1687 19.958 25.1284 19.968 25.0879C20.039 24.8136 20.1813 24.7424 20.6485 24.6919H24.558V23.8081H20.8411C20.3028 23.8081 20.0185 23.8388 19.7647 23.9201C18.9827 24.1636 18.6374 24.5496 18.6374 25.2297V26.0019C18.6374 26.6007 19.3077 27.1087 20.445 27.2305C20.5668 27.2407 20.6988 27.2408 20.8308 27.2408H22.2019C22.2526 27.2408 22.3032 27.2408 22.3437 27.251C22.7602 27.2915 22.943 27.3625 23.0647 27.5146C23.146 27.5958 23.1665 27.667 23.1665 27.7585V28.5303C23.1665 28.6214 23.1055 28.7438 22.9837 28.8451C22.8615 28.9464 22.6685 29.0176 22.4147 29.0279C22.3639 29.0279 22.3339 29.0381 22.2827 29.0381H18.6172V29.921ZM32.7728 28.3879C32.7728 29.2917 33.4533 29.7992 34.8141 29.9009C34.9461 29.9112 35.0679 29.921 35.1999 29.921H38.6526V29.0377H35.1696C34.3974 29.0377 34.1031 28.8446 34.1031 28.3776V23.8079H32.7725V28.3879H32.7728ZM25.3496 28.4281V25.2804C25.3496 24.4781 25.9181 23.9904 27.0254 23.8384C27.1472 23.8281 27.2689 23.8179 27.3807 23.8179H29.8989C30.0309 23.8179 30.1428 23.8281 30.2749 23.8384C31.3817 23.9904 31.94 24.4781 31.94 25.2804V28.4281C31.94 29.0779 31.7067 29.4234 31.1579 29.6572L32.4578 30.8348H30.9247L29.8684 29.8805L28.8018 29.9414H27.3802C27.1469 29.9414 26.8827 29.9112 26.6084 29.8402C25.7661 29.6062 25.3496 29.1594 25.3496 28.4281ZM26.7814 28.3576C26.7814 28.3981 26.8019 28.4384 26.8121 28.4896C26.8832 28.8549 27.2282 29.0581 27.7562 29.0581H28.9548L27.8582 28.0628H29.3913L30.3559 28.9364C30.5391 28.8346 30.6506 28.6924 30.6911 28.5096C30.7014 28.4691 30.7014 28.4186 30.7014 28.3776V25.3615C30.7014 25.3209 30.7014 25.2807 30.6911 25.2397C30.6201 24.8947 30.2751 24.7019 29.7571 24.7019H27.7562C27.1672 24.7019 26.7814 24.9556 26.7814 25.3615V28.3576ZM39.2621 29.9312H39.4551V29.1901H39.7089V29.0377H38.9981V29.1901H39.2621V29.9312ZM40.7344 29.9312H40.9172V29.0377H40.6434L40.4199 29.6472L40.1764 29.0377H39.9123V29.9312H40.0849V29.2511H40.0951L40.3489 29.9312H40.4809L40.7347 29.2511V29.9312H40.7344Z" fill="#CE8B2C"/>
</g>
</svg>
