<?xml version="1.0" encoding="UTF-8" standalone="no"?>
<svg
   width="43"
   height="43"
   version="1.2"
   viewBox="0 0 32.24998 32.250059"
   id="svg58"
   sodipodi:docname="nodejs-logo.svg"
   inkscape:version="1.1 (c68e22c387, 2021-05-23)"
   xmlns:inkscape="http://www.inkscape.org/namespaces/inkscape"
   xmlns:sodipodi="http://sodipodi.sourceforge.net/DTD/sodipodi-0.dtd"
   xmlns="http://www.w3.org/2000/svg"
   xmlns:svg="http://www.w3.org/2000/svg">
  <sodipodi:namedview
     id="namedview60"
     pagecolor="#ffffff"
     bordercolor="#999999"
     borderopacity="1"
     inkscape:pageshadow="0"
     inkscape:pageopacity="0"
     inkscape:pagecheckerboard="0"
     showgrid="false"
     inkscape:zoom="10.742508"
     inkscape:cx="17.035129"
     inkscape:cy="23.923651"
     inkscape:window-width="1920"
     inkscape:window-height="974"
     inkscape:window-x="-11"
     inkscape:window-y="-11"
     inkscape:window-maximized="1"
     inkscape:current-layer="svg58" />
  <defs
     id="defs36">
    <clipPath
       id="a">
      <path
         d="m 239.03,226.605 -42.13,24.317 c -1.578,0.91 -2.546,2.59 -2.546,4.406 v 48.668 c 0,1.817 0.968,3.496 2.546,4.406 l 42.133,24.336 c 1.575,0.907 3.517,0.907 5.09,0 l 42.126,-24.336 c 1.57,-0.91 2.54,-2.59 2.54,-4.406 v -48.668 c 0,-1.816 -0.97,-3.496 -2.55,-4.406 l -42.12,-24.317 c -0.79,-0.453 -1.67,-0.68 -2.55,-0.68 -0.88,0 -1.76,0.227 -2.55,0.68"
         id="path2" />
    </clipPath>
    <linearGradient
       id="b"
       x1="-0.34799999"
       x2="1.251"
       gradientTransform="matrix(-38.064915,77.652126,-77.652126,-38.064915,258.72325,244.62943)"
       gradientUnits="userSpaceOnUse">
      <stop
         offset=".3"
         stop-color="#3E863D"
         id="stop5" />
      <stop
         offset=".5"
         stop-color="#55934F"
         id="stop7" />
      <stop
         offset=".8"
         stop-color="#5AAD45"
         id="stop9" />
    </linearGradient>
    <clipPath
       id="c">
      <path
         d="m 195.398,307.086 c 0.403,0.523 0.907,0.976 1.5,1.316 l 36.14,20.875 6.02,3.46 c 0.9,0.52 1.926,0.74 2.934,0.665 0.336,-0.027 0.672,-0.09 1,-0.183 l 44.434,-81.36 c -0.34,-0.37 -0.738,-0.68 -1.184,-0.94 l -27.586,-15.93 -14.582,-8.39 c -0.414,-0.24 -0.863,-0.41 -1.32,-0.53 z m 0,0"
         id="path12" />
    </clipPath>
    <linearGradient
       id="d"
       x1="-0.456"
       x2="0.58200002"
       gradientTransform="matrix(106.8057,-78.916731,78.916731,106.8057,235.18824,285.39477)"
       gradientUnits="userSpaceOnUse">
      <stop
         offset=".57"
         stop-color="#3E863D"
         id="stop15" />
      <stop
         offset=".72"
         stop-color="#619857"
         id="stop17" />
      <stop
         offset="1"
         stop-color="#76AC64"
         id="stop19" />
    </linearGradient>
    <clipPath
       id="e">
      <path
         d="m 241.066,225.953 c -0.707,0.07 -1.398,0.29 -2.035,0.652 l -42.01,24.247 45.3,82.51 c 0.63,-0.09 1.25,-0.3 1.81,-0.624 l 42.13,-24.336 c 1.3,-0.754 2.19,-2.03 2.46,-3.476 l -46.18,-78.89 c -0.34,-0.067 -0.68,-0.102 -1.03,-0.102 -0.14,0 -0.28,0.007 -0.42,0.02"
         id="path22" />
    </clipPath>
    <linearGradient
       id="f"
       x1="0.043000001"
       x2="0.98400003"
       gradientTransform="matrix(97.417,0,0,97.417,192.862,279.652)"
       gradientUnits="userSpaceOnUse">
      <stop
         offset=".16"
         stop-color="#6BBF47"
         id="stop25" />
      <stop
         offset=".38"
         stop-color="#79B461"
         id="stop27" />
      <stop
         offset=".47"
         stop-color="#75AC64"
         id="stop29" />
      <stop
         offset=".7"
         stop-color="#659E5A"
         id="stop31" />
      <stop
         offset=".9"
         stop-color="#3E863D"
         id="stop33" />
    </linearGradient>
  </defs>
  <g
     id="g953"
     transform="translate(-0.03607464,-3.1578426)">
    <path
       fill="#689f63"
       d="m 15.98409,28.728196 c -0.101793,0 -0.202904,-0.02668 -0.292154,-0.07806 l -0.929926,-0.55055 c -0.138888,-0.07768 -0.07108,-0.105146 -0.02535,-0.120971 0.185196,-0.06486 0.222771,-0.0795 0.420442,-0.19175 0.02077,-0.01186 0.04803,-0.0076 0.06925,0.0048 l 0.714405,0.423934 c 0.02583,0.01397 0.06237,0.01397 0.08628,0 l 2.78552,-1.607865 c 0.02583,-0.01464 0.04257,-0.04458 0.04257,-0.07528 v -3.214333 c 0,-0.03205 -0.01674,-0.06065 -0.04314,-0.07672 l -2.784411,-1.606468 c -0.02583,-0.01531 -0.05999,-0.01531 -0.0858,0 l -2.783856,1.606468 c -0.02698,0.01531 -0.0441,0.04534 -0.0441,0.07605 v 3.214333 c 0,0.03071 0.01674,0.05999 0.04324,0.07461 l 0.762789,0.440666 c 0.414168,0.207084 0.667272,-0.03692 0.667272,-0.282388 v -3.172501 c 0,-0.04534 0.03559,-0.08016 0.08094,-0.08016 h 0.352811 c 0.04391,0 0.08016,0.03482 0.08016,0.08016 v 3.173898 c 0,0.552224 -0.301212,0.869469 -0.824843,0.869469 -0.161072,0 -0.287974,0 -0.642173,-0.174311 L 12.903292,27.040085 C 12.722706,26.935504 12.611148,26.74027 12.611148,26.531789 v -3.214334 c 0,-0.209178 0.111558,-0.40441 0.292144,-0.507598 l 2.788297,-1.608602 c 0.176405,-0.09971 0.410686,-0.09971 0.585695,0 l 2.784822,1.609262 c 0.179898,0.103887 0.292154,0.29842 0.292154,0.507598 v 3.214334 c 0,0.208479 -0.112256,0.403014 -0.292154,0.507598 l -2.784822,1.608564 c -0.08925,0.05156 -0.190353,0.07806 -0.293541,0.07806"
       id="path38"
       style="stroke-width:0.0697253" />
    <path
       fill="#689f63"
       d="m 16.844501,26.513294 c -1.218799,0 -1.474345,-0.559474 -1.474345,-1.028723 0,-0.04458 0.03597,-0.08016 0.08064,-0.08016 h 0.359785 c 0.03979,0 0.07317,0.02899 0.0795,0.06821 0.05444,0.366617 0.216152,0.551535 0.953151,0.551535 0.587083,0 0.836697,-0.132621 0.836697,-0.443946 0,-0.17919 -0.07108,-0.312366 -0.983122,-0.401617 -0.7628,-0.07528 -1.234143,-0.243339 -1.234143,-0.853436 0,-0.561991 0.474137,-0.896665 1.268303,-0.896665 0.891786,0 1.333847,0.309574 1.389627,0.974761 0.0018,0.02297 -0.0067,0.04534 -0.02161,0.06208 -0.01531,0.01607 -0.03692,0.02583 -0.0593,0.02583 H 17.67781 c -0.03769,0 -0.07041,-0.0265 -0.07806,-0.06276 -0.08715,-0.385584 -0.297721,-0.508994 -0.870167,-0.508994 -0.640776,0 -0.715381,0.223116 -0.715381,0.390454 0,0.202903 0.08782,0.262173 0.952444,0.376516 0.85623,0.113653 1.262726,0.274026 1.262726,0.875753 0,0.606606 -0.506212,0.95454 -1.388929,0.95454 m 3.392835,-3.408868 h 0.09345 c 0.07672,0 0.09135,-0.05366 0.09135,-0.08504 0,-0.08227 -0.05643,-0.08227 -0.08782,-0.08227 h -0.09621 z m -0.113651,-0.263555 h 0.207083 c 0.07118,0 0.210566,0 0.210566,0.158967 0,0.110871 -0.07108,0.133876 -0.113653,0.147824 0.08293,0.0057 0.08858,0.05999 0.09971,0.136659 0.0057,0.04811 0.01465,0.131082 0.03138,0.158977 h -0.127601 c -0.0039,-0.02794 -0.02305,-0.181285 -0.02305,-0.189655 -0.0087,-0.03415 -0.02017,-0.05089 -0.06276,-0.05089 h -0.10529 v 0.241253 h -0.116436 z m -0.248917,0.299818 c 0,0.249613 0.201498,0.451819 0.449026,0.451819 0.249614,0 0.451122,-0.206386 0.451122,-0.451819 0,-0.250313 -0.204291,-0.449027 -0.45182,-0.449027 -0.244038,0 -0.449025,0.19592 -0.449025,0.448328 m 0.987302,0.0018 c 0,0.295636 -0.241942,0.53688 -0.53688,0.53688 -0.292843,0 -0.536889,-0.23846 -0.536889,-0.53688 0,-0.304006 0.249623,-0.53689 0.536889,-0.53689 0.289361,0 0.53619,0.233583 0.53619,0.53689"
       id="path40"
       style="stroke-width:0.0697253" />
    <path
       fill="#333333"
       fill-rule="evenodd"
       d="m 7.3583036,16.151144 c 0,-0.128289 -0.06763,-0.246132 -0.1783569,-0.309928 L 4.2266581,14.142015 c -0.04984,-0.02927 -0.105704,-0.04458 -0.1623152,-0.04668 h -0.030515 c -0.05663,0.0018 -0.1124669,0.01741 -0.1631569,0.04668 l -2.953145,1.699201 c -0.11002809,0.06419 -0.17863472,0.181983 -0.17863472,0.310282 l 0.006691,4.576765 c 0,0.06342 0.0328111,0.122711 0.088581,0.154088 0.0543339,0.03349 0.12271207,0.03349 0.17710422,0 l 1.7556837,-1.00544 c 0.1108694,-0.06601 0.1785007,-0.182537 0.1785007,-0.309573 v -2.138125 c 0,-0.1276 0.067632,-0.245434 0.1781469,-0.308885 L 3.8710545,16.68984 c 0.055483,-0.03205 0.1164369,-0.04803 0.1784913,-0.04803 0.061126,0 0.1234199,0.01579 0.1773814,0.04793 l 0.7471109,0.430344 c 0.1105824,0.06342 0.1785007,0.181284 0.1785007,0.308884 v 2.137982 c 0,0.126902 0.068492,0.244037 0.1788451,0.309583 l 1.7545591,1.004741 c 0.055099,0.03281 0.1236303,0.03281 0.1785006,0 0.054148,-0.03137 0.088394,-0.09068 0.088394,-0.154088 z m 13.9358494,2.382937 c 0,0.03186 -0.01693,0.06132 -0.04458,0.0771 L 20.235218,19.1959 c -0.02755,0.01578 -0.06161,0.01578 -0.08905,0 l -1.014513,-0.584715 c -0.02783,-0.01578 -0.04458,-0.04534 -0.04458,-0.0771 v -1.171112 c 0,-0.03195 0.01674,-0.06132 0.0439,-0.07739 l 1.01381,-0.585694 c 0.02794,-0.01607 0.06208,-0.01607 0.08992,0 l 1.014498,0.585694 c 0.02794,0.01607 0.04458,0.04544 0.04458,0.07739 z m 0.274025,-8.6739695 c -0.05538,-0.030798 -0.122721,-0.029952 -0.177381,0.00183 -0.05444,0.03205 -0.088,0.09059 -0.088,0.1540885 v 4.532149 c 0,0.04458 -0.02373,0.0858 -0.06237,0.108074 -0.03835,0.02229 -0.0861,0.02229 -0.124808,0 l -0.739783,-0.426097 c -0.110173,-0.0637 -0.245854,-0.0637 -0.356437,0 l -2.954264,1.704988 c -0.110373,0.06342 -0.17849,0.181295 -0.17849,0.308187 v 3.410963 c 0,0.1276 0.0681,0.244734 0.17849,0.308884 l 2.954264,1.706175 c 0.110306,0.06342 0.246132,0.06342 0.356781,0 l 2.954264,-1.706874 c 0.110163,-0.06418 0.178492,-0.181283 0.178492,-0.308884 v -8.500902 c 0,-0.129409 -0.0704,-0.248428 -0.183379,-0.311668 z m 9.837745,7.4720455 c 0.109754,-0.0637 0.177315,-0.181428 0.177315,-0.30833 v -0.826661 c 0,-0.12718 -0.06763,-0.244526 -0.177592,-0.30854 l -2.935438,-1.704081 c -0.11086,-0.06419 -0.246821,-0.06419 -0.35769,0 l -2.953556,1.704779 c -0.110871,0.06418 -0.178501,0.181294 -0.178501,0.308885 v 3.409564 c 0,0.1283 0.06907,0.246831 0.179887,0.310282 l 2.93474,1.672712 c 0.108075,0.06208 0.240555,0.06276 0.350019,0.0018 l 1.775212,-0.986614 c 0.05577,-0.03137 0.09135,-0.09068 0.09135,-0.154786 0,-0.06419 -0.03415,-0.124109 -0.08992,-0.155485 L 27.250062,18.59023 c -0.05577,-0.03137 -0.08992,-0.09068 -0.08992,-0.154089 v -1.069554 c 0,-0.06391 0.03349,-0.122712 0.08925,-0.154509 l 0.924558,-0.533399 c 0.0551,-0.03205 0.122713,-0.03205 0.177794,0 L 29.277,17.212078 c 0.0551,0.03137 0.08926,0.09068 0.08926,0.154087 v 0.840887 c 0,0.06342 0.03415,0.122721 0.08926,0.154796 0.0551,0.03137 0.12341,0.03137 0.178491,-6.99e-4 z m 0,0"
       id="path42"
       style="stroke-width:0.0697253" />
    <path
       fill="#689f63"
       fill-rule="evenodd"
       d="m 28.248134,17.172626 c 0.02095,-0.01234 0.04716,-0.01234 0.06831,0 l 0.566869,0.327002 c 0.02123,0.01224 0.03415,0.03492 0.03415,0.0593 v 0.654723 c 0,0.02439 -0.01301,0.04696 -0.03415,0.05921 l -0.566869,0.327011 c -0.02125,0.01234 -0.04745,0.01234 -0.06831,0 l -0.566515,-0.327011 c -0.02161,-0.01224 -0.03482,-0.03482 -0.03482,-0.05921 v -0.654723 c 0,-0.02439 0.01254,-0.04696 0.03415,-0.0593 z m 0,0"
       id="path44"
       style="stroke-width:0.0697253" />
    <g
       clip-path="url(#a)"
       transform="matrix(0.06972528,0,0,0.06972528,-4.7210411,-1.5985362)"
       id="g48">
      <path
         fill="url(#b)"
         d="m 331.363,246.793 -118.715,-58.19 -60.87,124.174 118.712,58.193 z m 0,0"
         id="path46"
         style="fill:url(#b)" />
    </g>
    <g
       clip-path="url(#c)"
       transform="matrix(0.06972528,0,0,0.06972528,-4.7210411,-1.5985362)"
       id="g52">
      <path
         fill="url(#d)"
         d="m 144.07,264.004 83.825,113.453 110.86,-81.906 -83.83,-113.45 z m 0,0"
         id="path50"
         style="fill:url(#d)" />
    </g>
    <g
       clip-path="url(#e)"
       transform="matrix(0.06972528,0,0,0.06972528,-4.7210411,-1.5985362)"
       id="g56">
      <path
         fill="url(#f)"
         d="m 197.02,225.934 v 107.43 h 91.683 v -107.43 z m 0,0"
         id="path54"
         style="fill:url(#f)" />
    </g>
  </g>
</svg>
