<svg width="43" height="43" viewBox="0 0 43 43" fill="none" xmlns="http://www.w3.org/2000/svg">
<mask id="mask0" mask-type="alpha" maskUnits="userSpaceOnUse" x="0" y="0" width="43" height="43">
<rect width="43" height="43" fill="#C4C4C4"/>
</mask>
<g mask="url(#mask0)">
<path d="M39.4306 30.4357C37.296 31.5491 26.239 36.0951 23.8849 37.322C21.5308 38.5489 20.2233 38.5373 18.3633 37.6486C16.5033 36.76 4.73692 32.0072 2.61608 30.9935C1.55566 30.4866 1 30.0603 1 29.6573V25.6139C1 25.6139 16.3199 22.2789 18.7938 21.3914C21.2678 20.5038 22.1235 20.472 24.2295 21.2429C26.3355 22.0138 38.9195 24.2842 40.999 25.0466V29.0338C40.999 29.4336 40.5197 29.8821 39.4327 30.4378L39.4306 30.4357Z" fill="#A41E11"/>
<path d="M39.4316 26.3911C37.297 27.5045 26.24 32.0505 23.8859 33.2774C21.5318 34.5043 20.2243 34.4927 18.3643 33.604C16.5043 32.7154 4.73792 27.9626 2.61708 26.9489C0.496247 25.9351 0.45383 25.2384 2.53543 24.4229L18.7938 18.1283C21.2667 17.2418 22.1235 17.2089 24.2295 17.9798C26.3355 18.7508 37.3256 23.125 39.4041 23.8991C41.4825 24.6732 41.5641 25.2882 39.4295 26.4017L39.4316 26.3911Z" fill="#D82C20"/>
<path d="M39.4306 23.8419C37.296 24.9554 26.239 29.5014 23.8849 30.7283C21.5308 31.9552 20.2233 31.9435 18.3633 31.0549C16.5033 30.1663 4.73692 25.4135 2.61608 24.3997C1.55566 23.8928 1 23.4665 1 23.0636V19.0202C1 19.0202 16.3199 15.6852 18.7938 14.7976C21.2678 13.91 22.1235 13.8782 24.2295 14.6492C26.3355 15.4201 38.9195 17.6904 40.999 18.4529V22.4401C40.999 22.8398 40.5197 23.2884 39.4327 23.844L39.4306 23.8419Z" fill="#A41E11"/>
<path d="M39.4316 19.7986C37.297 20.912 26.24 25.458 23.8859 26.685C21.5318 27.9119 20.2243 27.9002 18.3643 27.0116C16.5043 26.1229 4.73792 21.3701 2.61708 20.3564C0.496247 19.3426 0.45383 18.6459 2.53543 17.8305L18.7938 11.5369C21.2667 10.6493 22.1235 10.6175 24.2295 11.3884C26.3355 12.1593 37.3256 16.5346 39.4062 17.2949C41.4867 18.0553 41.5663 18.6841 39.4316 19.7975V19.7986Z" fill="#D82C20"/>
<path d="M39.4306 17.0041C37.296 18.1176 26.239 22.6636 23.8849 23.8915C21.5308 25.1195 20.2233 25.1068 18.3633 24.2181C16.5033 23.3295 4.73692 18.5767 2.61608 17.563C1.55566 17.0561 1 16.6298 1 16.2268V12.1813C1 12.1813 16.3199 8.84632 18.7938 7.95875C21.2678 7.07118 22.1235 7.03936 24.2295 7.81029C26.3355 8.58121 38.9195 10.8516 40.999 11.614V15.6012C40.999 16.001 40.5197 16.4495 39.4327 17.0052L39.4306 17.0041Z" fill="#A41E11"/>
<path d="M39.4316 12.9597C37.297 14.0732 26.24 18.6192 23.8859 19.8461C21.5318 21.073 20.2243 21.0613 18.3643 20.1727C16.5043 19.2841 4.73792 14.5313 2.61708 13.5175C0.496247 12.5037 0.45383 11.8071 2.53543 10.9916L18.7938 4.698C21.2667 3.81043 22.1235 3.77862 24.2295 4.54954C26.3355 5.32047 37.3256 9.69576 39.4062 10.4561C41.4867 11.2164 41.5663 11.8452 39.4316 12.9587V12.9597Z" fill="#D82C20"/>
<path d="M21.9967 11.2926L20.7433 9.20888L16.7413 8.84834L19.7274 7.77095L18.8314 6.1167L21.6266 7.20893L24.2628 6.34575L23.5502 8.05514L26.2373 9.06254L22.7719 9.42308L21.9967 11.2926ZM15.3203 15.441L24.5884 14.0179L21.7889 18.1238L15.3203 15.441Z" fill="white"/>
<path d="M12.8215 13.9448C15.5576 13.9448 17.7757 13.085 17.7757 12.0244C17.7757 10.9638 15.5576 10.104 12.8215 10.104C10.0853 10.104 7.86719 10.9638 7.86719 12.0244C7.86719 13.085 10.0853 13.9448 12.8215 13.9448Z" fill="white"/>
<path d="M35.8225 11.7447L30.3402 13.9101L30.3359 9.57617L35.8225 11.7447Z" fill="#7A0C00"/>
<path d="M30.3415 13.91L29.7477 14.1433L24.2695 11.9779L30.3383 9.57715L30.3415 13.91Z" fill="#AD2115"/>
</g>
</svg>
