<?xml version="1.0" encoding="UTF-8" standalone="no"?>
<!-- Generator: Adobe Illustrator 23.0.2, SVG Export Plug-In . SVG Version: 6.00 Build 0)  -->

<svg
   version="1.1"
   id="Layer_1"
   x="0px"
   y="0px"
   viewBox="0 0 43.000001 43"
   xml:space="preserve"
   sodipodi:docname="svelte-logo.svg"
   width="43"
   height="43"
   inkscape:version="1.1 (c68e22c387, 2021-05-23)"
   xmlns:inkscape="http://www.inkscape.org/namespaces/inkscape"
   xmlns:sodipodi="http://sodipodi.sourceforge.net/DTD/sodipodi-0.dtd"
   xmlns="http://www.w3.org/2000/svg"
   xmlns:svg="http://www.w3.org/2000/svg"><defs
   id="defs11" /><sodipodi:namedview
   id="namedview9"
   pagecolor="#ffffff"
   bordercolor="#999999"
   borderopacity="1"
   inkscape:pageshadow="0"
   inkscape:pageopacity="0"
   inkscape:pagecheckerboard="0"
   showgrid="false"
   inkscape:zoom="5.8135593"
   inkscape:cx="2.9241983"
   inkscape:cy="41.798834"
   inkscape:window-width="1920"
   inkscape:window-height="974"
   inkscape:window-x="-11"
   inkscape:window-y="-11"
   inkscape:window-maximized="1"
   inkscape:current-layer="Layer_1" />
<style
   type="text/css"
   id="style2">
	.st0{fill:#FF3E00;}
	.st1{fill:#FFFFFF;}
</style>
<path
   style="color:#000000;fill:#ff3e00;stroke-width:0.3296;-inkscape-stroke:none"
   d="M 35.598306,7.1953403 C 32.005662,2.0206131 24.853332,0.50445084 19.711565,3.7674953 L 10.647551,9.568463 c -2.4720032,1.549123 -4.1859257,4.087046 -4.6803262,6.95457 -0.4284802,2.406083 -0.065917,4.878087 1.087682,7.02049 -0.7910417,1.186562 -1.318402,2.504963 -1.5491228,3.889285 -0.5273603,2.933445 0.1648004,5.965768 1.8787229,8.371852 3.6256051,5.174727 10.7449751,6.690889 15.8867431,3.427845 l 9.064012,-5.768008 c 2.472003,-1.549122 4.185926,-4.087046 4.680327,-6.95457 0.428481,-2.406083 0.06592,-4.878087 -1.087682,-7.02049 0.791041,-1.186561 1.318402,-2.504963 1.549122,-3.889286 0.560321,-2.966404 -0.13184,-5.9987275 -1.878723,-8.4048107"
   id="path4" />
<path
   style="color:#000000;fill:#ffffff;stroke-width:0.3296;-inkscape-stroke:none"
   d="m 18.830237,36.29906 c -2.933444,0.758081 -5.998728,-0.39552 -7.71265,-2.867523 -1.054722,-1.450243 -1.4502423,-3.263045 -1.153602,-5.042887 0.065924,-0.296641 0.13184,-0.560321 0.19776,-0.856962 l 0.164801,-0.527361 0.46144,0.329601 c 1.087682,0.791041 2.274243,1.384322 3.559685,1.779842 l 0.329601,0.09888 -0.03296,0.329601 c -0.03296,0.461441 0.09888,0.955842 0.36256,1.351362 0.527361,0.758081 1.450243,1.120642 2.340164,0.889921 0.19776,-0.06592 0.39552,-0.13184 0.560321,-0.23072 l 9.031052,-5.768008 c 0.461441,-0.29664 0.758081,-0.725121 0.856962,-1.252481 0.09888,-0.527362 -0.03296,-1.087683 -0.329601,-1.516163 -0.527361,-0.758081 -1.450242,-1.087682 -2.340163,-0.856961 -0.19776,0.06592 -0.395521,0.13184 -0.560321,0.23072 l -3.460805,2.208323 c -0.560321,0.362561 -1.186561,0.626241 -1.845762,0.791042 -2.933448,0.75808 -5.998732,-0.395521 -7.712654,-2.867524 -1.021761,-1.450242 -1.450242,-3.263045 -1.120641,-5.042888 0.29664,-1.713922 1.351361,-3.263044 2.834563,-4.185926 L 22.324,7.5249406 c 0.560321,-0.3625607 1.186561,-0.6262405 1.845762,-0.8240007 2.933445,-0.7580811 5.998729,0.3955205 7.712652,2.8675233 1.054721,1.4502428 1.450241,3.2630448 1.153601,5.0428868 -0.06592,0.296641 -0.131841,0.560321 -0.230721,0.856962 l -0.164798,0.527361 -0.46144,-0.329601 C 31.091374,14.875031 29.904813,14.28175 28.619371,13.88623 l -0.329601,-0.09888 0.03296,-0.329601 c 0.03296,-0.461441 -0.09888,-0.955842 -0.36256,-1.351362 -0.527361,-0.758081 -1.450242,-1.087681 -2.340164,-0.856961 -0.19776,0.06592 -0.39552,0.13184 -0.560321,0.23072 l -9.031052,5.768008 c -0.461441,0.296641 -0.758081,0.725121 -0.856962,1.252482 -0.09888,0.52736 0.03296,1.087681 0.329601,1.516162 0.527361,0.758081 1.450242,1.087682 2.340163,0.856961 0.197761,-0.06592 0.395521,-0.13184 0.560321,-0.23072 l 3.460805,-2.208323 c 0.560321,-0.362561 1.186561,-0.626242 1.845762,-0.824002 2.933445,-0.75808 5.998729,0.395521 7.712651,2.867524 1.054722,1.450242 1.450242,3.263045 1.153602,5.042888 -0.29664,1.713922 -1.351362,3.263044 -2.834564,4.185926 L 20.676,35.47506 c -0.560321,0.36256 -1.186563,0.62624 -1.845764,0.824"
   id="path6" />
</svg>
